<svg width="360" height="372" viewBox="0 0 360 372" fill="none" xmlns="http://www.w3.org/2000/svg">
<rect width="360" height="372" fill="white"/>
<path d="M97 81C97 76.5817 100.582 73 105 73H255C259.418 73 263 76.5817 263 81V299H97V81Z" fill="#F6F8F9"/>
<ellipse cx="160" cy="87.8438" rx="3" ry="2.84375" fill="#BFC6CD"/>
<rect x="167" y="85" width="32" height="5.6875" rx="2.84375" fill="#BFC6CD"/>
<g filter="url(#filter0_d)">
<rect x="82" y="118" width="196" height="102" rx="8" fill="white"/>
<rect x="82.5" y="118.5" width="195" height="101" rx="7.5" stroke="#2355F5"/>
</g>
<line x1="98" y1="100.021" x2="263" y2="100.021" stroke="#BFC6CD"/>
<rect x="109" y="247" width="142" height="10" fill="#E9EDEF"/>
<rect x="109" y="232" width="80" height="10" fill="#E9EDEF"/>
<rect x="97" y="267" width="166" height="32" fill="#2D3843"/>
<path d="M178.16 277.64H176.84V280.86H175.22V281.93H176.84V286.88H178.16V277.64ZM173.89 279.92V279.6H175.78V278.53H170.67V279.6H172.56V279.92C172.56 281.62 171.83 283.4 170.29 284.12L171.07 285.16C172.15 284.63 172.85 283.62 173.24 282.37C173.64 283.54 174.35 284.47 175.39 284.98L176.15 283.94C174.63 283.25 173.89 281.54 173.89 279.92ZM187.999 279.77H186.779V277.65H185.459V283.12H186.779V280.85H187.999V279.77ZM184.389 282.85L185.019 281.83C183.569 281.4 182.949 280.37 182.919 279.32H184.719V278.26H179.739V279.32H181.569C181.539 280.48 180.889 281.63 179.399 282.14L180.059 283.17C181.139 282.82 181.869 282.1 182.279 281.18C182.679 281.94 183.379 282.54 184.389 282.85ZM183.769 283.28C181.839 283.28 180.649 283.95 180.649 285.08C180.649 286.2 181.839 286.86 183.769 286.86C185.689 286.86 186.879 286.2 186.879 285.08C186.879 283.95 185.689 283.28 183.769 283.28ZM183.769 285.85C182.559 285.85 181.959 285.59 181.959 285.08C181.959 284.56 182.559 284.3 183.769 284.3C184.939 284.3 185.569 284.55 185.569 285.08C185.569 285.6 184.939 285.85 183.769 285.85Z" fill="white"/>
<rect x="97" y="148" width="63" height="63" rx="9" fill="#2355F5"/>
<path d="M145.5 156C141.358 156 138 159.358 138 163.5C138 167.642 141.358 171 145.5 171C149.642 171 153 167.642 153 163.5C153 159.358 149.642 156 145.5 156ZM148.68 161.296L145.419 166.337C145.093 166.841 144.376 166.893 143.981 166.442L142.38 164.616C142.133 164.335 142.161 163.906 142.442 163.66C142.724 163.413 143.152 163.441 143.399 163.723L144.605 165.099L147.542 160.56C147.745 160.245 148.165 160.156 148.479 160.359C148.793 160.562 148.883 160.982 148.68 161.296Z" fill="white"/>
<rect x="164" y="148" width="63" height="63" rx="9" fill="#BFC6CD"/>
<path d="M231 157C231 152.029 235.029 148 240 148H277V211H240C235.029 211 231 206.971 231 202V157Z" fill="#BFC6CD"/>
<path d="M104.47 130.7H99.4V133.49H106.03V132.45H100.75V131.69H105.81V128.94H99.39V129.98H104.47V130.7ZM106.77 134.16H98.43V135.22H101.92V137.88H103.24V135.22H106.77V134.16ZM115.179 128.65H113.849V135.45H115.179V128.65ZM113.089 132.9C111.949 133.09 110.919 133.12 109.339 133.12V132.25H112.189V131.23H109.339V130.4H112.459V129.35H108.029V134.16H108.819C110.769 134.16 111.899 134.14 113.209 133.93L113.089 132.9ZM110.369 136.65V134.87H109.049V137.7H115.409V136.65H110.369ZM123.008 135.45H124.328V128.65H123.008V130.61H121.318V131.68H123.008V135.45ZM122.128 133.09C120.688 132.58 120.068 131.41 120.068 130.21V129.21H118.728V130.2C118.728 131.51 118.088 132.79 116.568 133.3L117.258 134.33C118.338 133.94 119.038 133.2 119.428 132.24C119.818 133.09 120.468 133.76 121.428 134.11L122.128 133.09ZM119.568 136.65V134.77H118.248V137.7H124.528V136.65H119.568ZM132.328 128.65V130.91H131.588V128.81H130.358V134.21H131.588V131.96H132.328V134.27H133.578V128.65H132.328ZM129.868 132.66C129.028 132.79 128.298 132.84 127.308 132.85V132.07H129.568V131.07H127.308V130.31H129.658V129.27H126.038V133.91H126.678C128.038 133.91 128.948 133.87 129.988 133.71L129.868 132.66ZM127.238 135.72H132.258V137.87H133.578V134.67H127.238V135.72Z" fill="#2D3843"/>
<path d="M119.9 186H121.45L119.07 178.6H117.33L114.96 186H116.46L116.98 184.1H119.38L119.9 186ZM117.3 182.95L117.52 182.14C117.75 181.37 117.96 180.53 118.15 179.72H118.19C118.42 180.52 118.61 181.37 118.84 182.14L119.06 182.95H117.3ZM129.942 179.7H124.872V182.49H131.502V181.45H126.222V180.69H131.282V177.94H124.862V178.98H129.942V179.7ZM132.242 183.16H123.902V184.22H127.392V186.88H128.712V184.22H132.242V183.16ZM140.651 177.65H139.321V184.45H140.651V177.65ZM138.561 181.9C137.421 182.09 136.391 182.12 134.811 182.12V181.25H137.661V180.23H134.811V179.4H137.931V178.35H133.501V183.16H134.291C136.241 183.16 137.371 183.14 138.681 182.93L138.561 181.9ZM135.841 185.65V183.87H134.521V186.7H140.881V185.65H135.841Z" fill="white"/>
<path d="M181.91 186H184.55C186.18 186 187.42 185.31 187.42 183.82C187.42 182.82 186.83 182.26 186.03 182.07V182.02C186.66 181.81 187.04 181.08 187.04 180.42C187.04 179.03 185.88 178.6 184.36 178.6H181.91V186ZM183.39 181.61V179.73H184.27C185.16 179.73 185.6 179.99 185.6 180.64C185.6 181.24 185.21 181.61 184.25 181.61H183.39ZM183.39 184.86V182.71H184.42C185.46 182.71 185.98 183.01 185.98 183.73C185.98 184.5 185.43 184.86 184.42 184.86H183.39ZM196.342 179.7H191.272V182.49H197.902V181.45H192.622V180.69H197.682V177.94H191.262V178.98H196.342V179.7ZM198.642 183.16H190.302V184.22H193.792V186.88H195.112V184.22H198.642V183.16ZM207.051 177.65H205.721V184.45H207.051V177.65ZM204.961 181.9C203.821 182.09 202.791 182.12 201.211 182.12V181.25H204.061V180.23H201.211V179.4H204.331V178.35H199.901V183.16H200.691C202.641 183.16 203.771 183.14 205.081 182.93L204.961 181.9ZM202.241 185.65V183.87H200.921V186.7H207.281V185.65H202.241Z" fill="white"/>
<path d="M252.93 186.14C253.9 186.14 254.68 185.78 255.29 185.05L254.51 184.13C254.11 184.56 253.62 184.86 252.98 184.86C251.81 184.86 251.05 183.89 251.05 182.28C251.05 180.69 251.89 179.73 253.01 179.73C253.57 179.73 254 179.99 254.37 180.35L255.15 179.41C254.67 178.9 253.94 178.46 252.98 178.46C251.11 178.46 249.54 179.89 249.54 182.33C249.54 184.8 251.05 186.14 252.93 186.14ZM264.108 179.7H259.038V182.49H265.668V181.45H260.388V180.69H265.448V177.94H259.028V178.98H264.108V179.7ZM266.408 183.16H258.068V184.22H261.558V186.88H262.878V184.22H266.408V183.16ZM274.817 177.65H273.487V184.45H274.817V177.65ZM272.727 181.9C271.587 182.09 270.557 182.12 268.977 182.12V181.25H271.827V180.23H268.977V179.4H272.097V178.35H267.667V183.16H268.457C270.407 183.16 271.537 183.14 272.847 182.93L272.727 181.9ZM270.007 185.65V183.87H268.687V186.7H275.047V185.65H270.007Z" fill="white"/>
<defs>
<filter id="filter0_d" x="67" y="103" width="226" height="132" filterUnits="userSpaceOnUse" color-interpolation-filters="sRGB">
<feFlood flood-opacity="0" result="BackgroundImageFix"/>
<feColorMatrix in="SourceAlpha" type="matrix" values="0 0 0 0 0 0 0 0 0 0 0 0 0 0 0 0 0 0 127 0"/>
<feOffset/>
<feGaussianBlur stdDeviation="7.5"/>
<feColorMatrix type="matrix" values="0 0 0 0 0 0 0 0 0 0 0 0 0 0 0 0 0 0 0.1 0"/>
<feBlend mode="normal" in2="BackgroundImageFix" result="effect1_dropShadow"/>
<feBlend mode="normal" in="SourceGraphic" in2="effect1_dropShadow" result="shape"/>
</filter>
<linearGradient id="paint0_linear" x1="180" y1="118" x2="180" y2="220" gradientUnits="userSpaceOnUse">
<stop stop-color="white"/>
<stop offset="1" stop-color="white" stop-opacity="0"/>
</linearGradient>
<linearGradient id="paint1_linear" x1="179.5" y1="276" x2="179.5" y2="290" gradientUnits="userSpaceOnUse">
<stop stop-color="white"/>
<stop offset="1" stop-color="white" stop-opacity="0"/>
</linearGradient>
<linearGradient id="paint2_linear" x1="145.5" y1="156" x2="145.5" y2="171" gradientUnits="userSpaceOnUse">
<stop stop-color="white"/>
<stop offset="1" stop-color="white" stop-opacity="0"/>
</linearGradient>
<linearGradient id="paint3_linear" x1="128.5" y1="176" x2="128.5" y2="190" gradientUnits="userSpaceOnUse">
<stop stop-color="white"/>
<stop offset="1" stop-color="white" stop-opacity="0"/>
</linearGradient>
<linearGradient id="paint4_linear" x1="195" y1="176" x2="195" y2="190" gradientUnits="userSpaceOnUse">
<stop stop-color="white"/>
<stop offset="1" stop-color="white" stop-opacity="0"/>
</linearGradient>
<linearGradient id="paint5_linear" x1="262.5" y1="176" x2="262.5" y2="190" gradientUnits="userSpaceOnUse">
<stop stop-color="white"/>
<stop offset="1" stop-color="white" stop-opacity="0"/>
</linearGradient>
</defs>
</svg>
