<svg width="360" height="372" viewBox="0 0 360 372" fill="none" xmlns="http://www.w3.org/2000/svg">
<rect width="360" height="372" fill="white"/>
<circle cx="179.5" cy="185.5" r="59" stroke="#F6F8F9" stroke-width="3"/>
<circle cx="179.5" cy="185.5" r="77" stroke="#F6F8F9" stroke-width="3"/>
<circle cx="179.5" cy="185.5" r="95" stroke="#F6F8F9" stroke-width="3"/>
<circle cx="224" cy="122" r="6" fill="#F6F8F9"/>
<circle cx="155" cy="258" r="6" fill="#F6F8F9"/>
<path d="M81.2452 208.174C85.6931 202.331 101.346 202.804 102.015 202.834L113.5 202.814L125.005 202.834C125.654 202.814 141.307 202.331 145.755 208.174C145.765 208.184 145.765 208.195 145.775 208.205C145.785 208.225 146.095 208.697 146.614 209.562C152.482 202.231 156 192.908 156 182.771C156 159.148 136.969 140 113.5 140C90.031 140 71 159.148 71 182.761C71 192.908 74.5183 202.221 80.3856 209.552C80.9053 208.687 81.2152 208.215 81.2252 208.195C81.2252 208.195 81.2352 208.184 81.2452 208.174Z" fill="#2355F5"/>
<path d="M113.5 225.522C126.884 225.522 138.828 219.287 146.615 209.552C146.095 208.687 145.785 208.215 145.775 208.195C145.765 208.184 145.765 208.174 145.755 208.164C141.307 202.321 125.654 202.794 125.005 202.824L113.5 202.804L102.016 202.824C101.356 202.804 85.6932 202.321 81.2453 208.164C81.2353 208.174 81.2353 208.184 81.2253 208.195C81.2154 208.215 80.9055 208.687 80.3857 209.552C88.1721 219.287 100.116 225.522 113.5 225.522Z" fill="#11171C"/>
<path d="M122.326 184.933H104.674L101.995 203.327C101.995 203.327 113.49 214.912 125.004 203.327L122.326 184.933Z" fill="white"/>
<path d="M122.326 184.933H104.674L101.995 203.327C101.995 203.327 113.49 214.912 125.004 203.327L122.326 184.933Z" stroke="#11171C" stroke-width="1.2796" stroke-miterlimit="10" stroke-linecap="round" stroke-linejoin="round"/>
<path d="M133.011 171.105C133.011 168.39 130.842 166.178 128.153 166.137C128.133 158.213 121.746 151.797 113.87 151.797C105.974 151.797 99.5766 158.233 99.5766 166.178V166.218C99.2967 166.168 99.0168 166.137 98.727 166.137C95.9983 166.137 93.7793 168.37 93.7793 171.115C93.7793 173.861 95.9983 176.094 98.727 176.094C99.0168 176.094 99.2967 176.063 99.5766 176.013V179.452C99.5766 187.397 105.974 193.834 113.87 193.834C121.766 193.834 128.163 187.397 128.163 179.452V176.083C130.842 176.023 133.011 173.821 133.011 171.105Z" fill="white"/>
<path d="M133.011 171.105C133.011 168.39 130.842 166.178 128.153 166.137C128.133 158.213 121.746 151.797 113.87 151.797C105.974 151.797 99.5766 158.233 99.5766 166.178V166.218C99.2967 166.168 99.0168 166.137 98.727 166.137C95.9983 166.137 93.7793 168.37 93.7793 171.115C93.7793 173.861 95.9983 176.094 98.727 176.094C99.0168 176.094 99.2967 176.063 99.5766 176.013V179.452C99.5766 187.397 105.974 193.834 113.87 193.834C121.766 193.834 128.163 187.397 128.163 179.452V176.083C130.842 176.023 133.011 173.821 133.011 171.105Z" stroke="#11171C" stroke-width="1.2796" stroke-miterlimit="10"/>
<path d="M99.7666 169.144C99.7666 169.144 99.9666 169.607 99.7666 172.805" stroke="#11171C" stroke-width="1.2796" stroke-miterlimit="10" stroke-linecap="round" stroke-linejoin="round"/>
<path d="M127.953 169.144C127.953 169.144 127.353 170.633 127.953 172.805" stroke="#11171C" stroke-width="1.2796" stroke-miterlimit="10" stroke-linecap="round" stroke-linejoin="round"/>
<path d="M108.812 172.181C109.365 172.181 109.812 171.731 109.812 171.176C109.812 170.62 109.365 170.17 108.812 170.17C108.26 170.17 107.812 170.62 107.812 171.176C107.812 171.731 108.26 172.181 108.812 172.181Z" fill="#11171C"/>
<path d="M119.878 172.181C120.43 172.181 120.878 171.731 120.878 171.176C120.878 170.62 120.43 170.17 119.878 170.17C119.326 170.17 118.878 170.62 118.878 171.176C118.878 171.731 119.326 172.181 119.878 172.181Z" fill="#11171C"/>
<path d="M113.39 169.647C113.66 170.351 113.36 174.877 111.061 176.787C108.762 178.698 112.86 179.603 114.26 179.402" stroke="#11171C" stroke-width="1.2796" stroke-miterlimit="10" stroke-linecap="round" stroke-linejoin="round"/>
<path d="M110.371 184.984C110.371 184.984 111.061 186.693 115.559 186.693" stroke="#11171C" stroke-width="1.2796" stroke-miterlimit="10" stroke-linecap="round" stroke-linejoin="round"/>
<path d="M128.033 162.517H98.7471V161.149C98.7471 158.786 100.646 156.875 102.995 156.875H123.775C126.124 156.875 128.023 158.786 128.023 161.149V162.517H128.033Z" fill="white"/>
<path d="M128.033 162.517H98.7471V161.149C98.7471 158.786 100.646 156.875 102.995 156.875H123.775C126.124 156.875 128.023 158.786 128.023 161.149V162.517H128.033Z" stroke="#11171C" stroke-width="1.2796" stroke-miterlimit="10" stroke-linecap="round" stroke-linejoin="round"/>
<path d="M105.613 166.711L110.941 168.139" stroke="#11171C" stroke-width="1.2796" stroke-miterlimit="10" stroke-linecap="round" stroke-linejoin="round"/>
<path d="M116.759 167.897C116.759 167.897 119.757 165.785 122.356 167.897" stroke="#11171C" stroke-width="1.2796" stroke-miterlimit="10" stroke-linecap="round" stroke-linejoin="round"/>
<path d="M235.545 202.451L247.03 202.431L258.534 202.451C259.184 202.431 274.837 201.951 279.285 207.758C279.295 207.768 279.295 207.778 279.305 207.788C279.315 207.808 279.534 208.138 279.914 208.758C285.602 201.531 288.99 192.415 288.99 182.5C289 159.031 269.969 140 246.5 140C223.031 140 204 159.031 204 182.5C204 192.755 207.638 202.171 213.685 209.507C214.345 208.408 214.745 207.808 214.755 207.778C219.223 201.951 234.875 202.421 235.545 202.451Z" fill="#2355F5"/>
<path d="M246.5 225C260.063 225 272.138 218.643 279.924 208.758C279.544 208.138 279.324 207.808 279.314 207.788C279.304 207.778 279.304 207.768 279.294 207.758C274.847 201.951 259.194 202.431 258.544 202.451L247.04 202.431L235.555 202.451C234.895 202.431 219.233 201.951 214.765 207.788C214.745 207.808 214.355 208.408 213.695 209.517C221.482 218.973 233.286 225 246.5 225Z" fill="#11171C"/>
<path d="M255.856 184.659H238.204L235.525 202.941C235.525 202.941 247.02 214.455 258.535 202.941L255.856 184.659Z" fill="white"/>
<path d="M247.43 208.538C245.62 208.538 243.961 208.188 242.562 207.718C238.184 206.259 235.305 203.4 235.185 203.28C235.075 203.17 235.025 203.01 235.045 202.86L237.724 184.579C237.764 184.339 237.964 184.159 238.214 184.159H255.866C256.105 184.159 256.315 184.339 256.355 184.579L259.034 202.86C259.054 203.01 259.004 203.17 258.894 203.28C254.876 207.298 250.868 208.538 247.43 208.538ZM236.045 202.76C237.544 204.17 247.669 212.896 258.015 202.76L255.436 185.149H238.634L236.045 202.76Z" fill="#11171C"/>
<path d="M266.541 170.916C266.541 168.217 264.372 166.018 261.683 165.978C261.663 158.102 255.276 151.725 247.4 151.725C239.504 151.725 233.107 158.122 233.107 166.018V166.058C232.827 166.008 232.547 165.978 232.257 165.978C229.529 165.978 227.31 168.197 227.31 170.926C227.31 173.654 229.529 175.873 232.257 175.873C232.547 175.873 232.827 175.843 233.107 175.793V179.212C233.107 187.108 239.504 193.505 247.4 193.505C255.296 193.505 261.693 187.108 261.693 179.212V175.863C264.372 175.803 266.541 173.614 266.541 170.916Z" fill="white"/>
<path d="M247.39 193.975C239.244 193.975 232.607 187.348 232.607 179.192V176.333C232.487 176.343 232.367 176.343 232.247 176.343C229.248 176.343 226.81 173.904 226.81 170.905C226.81 167.907 229.248 165.468 232.247 165.468C232.367 165.468 232.487 165.468 232.617 165.478C232.907 157.552 239.424 151.215 247.39 151.215C255.366 151.215 261.893 157.582 262.163 165.498C264.892 165.788 267.031 168.117 267.031 170.905C267.031 173.684 264.892 176.013 262.173 176.313V179.192C262.173 187.348 255.546 193.975 247.39 193.975ZM233.596 175.193V179.192C233.596 186.798 239.783 192.995 247.4 192.995C255.006 192.995 261.203 186.808 261.203 179.192V175.363L261.683 175.353C264.092 175.313 266.061 173.314 266.061 170.905C266.061 168.497 264.092 166.498 261.683 166.458L261.203 166.448V165.968C261.173 158.381 254.976 152.204 247.39 152.204C239.783 152.204 233.586 158.391 233.586 166.008V166.587L233.017 166.528C232.737 166.478 232.487 166.458 232.247 166.458C229.788 166.458 227.789 168.457 227.789 170.915C227.789 173.374 229.788 175.373 232.247 175.373C232.487 175.373 232.737 175.353 233.017 175.303L233.596 175.193Z" fill="#11171C"/>
<path d="M233.307 173.094C233.297 173.094 233.287 173.094 233.277 173.094C233.007 173.074 232.797 172.845 232.817 172.575C232.997 169.726 232.847 169.146 232.837 169.116C232.727 168.866 232.847 168.597 233.097 168.487C233.347 168.377 233.646 168.517 233.746 168.766C233.906 169.126 233.916 170.536 233.786 172.635C233.776 172.895 233.556 173.094 233.307 173.094Z" fill="#11171C"/>
<path d="M261.483 173.094C261.263 173.094 261.073 172.954 261.013 172.735C260.374 170.446 261.003 168.846 261.033 168.776C261.133 168.527 261.423 168.407 261.673 168.507C261.923 168.607 262.043 168.896 261.943 169.146C261.933 169.166 261.423 170.526 261.963 172.475C262.033 172.735 261.883 173.004 261.623 173.074C261.573 173.084 261.523 173.094 261.483 173.094Z" fill="#11171C"/>
<path d="M245.141 168.257C245.031 168.257 244.921 168.217 244.831 168.147C242.562 166.308 239.933 168.087 239.823 168.167C239.603 168.327 239.294 168.267 239.144 168.047C238.994 167.827 239.044 167.517 239.264 167.367C239.294 167.347 242.602 165.088 245.451 167.387C245.661 167.557 245.691 167.867 245.521 168.077C245.431 168.197 245.291 168.257 245.141 168.257Z" fill="#11171C"/>
<path d="M250.618 168.257C250.468 168.257 250.308 168.187 250.218 168.047C250.058 167.827 250.118 167.517 250.338 167.367C250.368 167.347 253.677 165.088 256.525 167.387C256.735 167.557 256.765 167.867 256.595 168.077C256.425 168.287 256.116 168.317 255.906 168.147C253.617 166.298 250.928 168.147 250.898 168.167C250.808 168.227 250.718 168.257 250.618 168.257Z" fill="#11171C"/>
<path d="M242.343 171.986C242.895 171.986 243.343 171.538 243.343 170.986C243.343 170.434 242.895 169.986 242.343 169.986C241.79 169.986 241.343 170.434 241.343 170.986C241.343 171.538 241.79 171.986 242.343 171.986Z" fill="#11171C"/>
<path d="M253.417 171.986C253.969 171.986 254.417 171.538 254.417 170.986C254.417 170.434 253.969 169.986 253.417 169.986C252.865 169.986 252.417 170.434 252.417 170.986C252.417 171.538 252.865 171.986 253.417 171.986Z" fill="#11171C"/>
<path d="M247.37 179.671C246.15 179.671 244.021 179.252 243.521 178.122C243.331 177.682 243.301 176.993 244.281 176.183C246.34 174.484 246.69 170.246 246.46 169.646C246.37 169.396 246.5 169.106 246.75 169.016C247 168.916 247.28 169.046 247.38 169.296C247.709 170.146 247.42 174.864 244.901 176.943C244.671 177.133 244.301 177.482 244.411 177.732C244.691 178.362 246.77 178.812 247.709 178.672C247.979 178.632 248.229 178.822 248.269 179.092C248.309 179.361 248.119 179.611 247.849 179.651C247.729 179.661 247.559 179.671 247.37 179.671Z" fill="#11171C"/>
<path d="M249.089 186.898C244.401 186.898 243.531 185.099 243.451 184.889C243.351 184.639 243.471 184.349 243.721 184.249C243.971 184.149 244.251 184.269 244.351 184.509C244.381 184.559 245.13 185.918 249.089 185.918C249.358 185.918 249.578 186.138 249.578 186.408C249.578 186.678 249.358 186.898 249.089 186.898Z" fill="#11171C"/>
<path d="M255.915 150.135C251.697 149.545 247.399 149.506 243.151 149.685C239.593 149.835 235.765 150.045 232.606 151.874C230.637 153.014 229.008 154.953 228.768 157.212C228.548 159.241 229.488 161.29 230.977 162.679C232.476 164.069 234.475 164.828 236.495 165.078C240.523 165.588 244.961 163.919 246.98 160.39C249.019 163.789 253.257 165.508 257.205 165.118C259.264 164.918 261.313 164.189 262.852 162.809C264.391 161.43 265.381 159.361 265.201 157.302C265.031 155.363 263.872 153.594 262.322 152.414C260.503 151.025 258.194 150.445 255.915 150.135Z" fill="#11171C"/>
<path d="M189.623 168.5L197.43 175.917C198.085 176.539 197.644 177.642 196.741 177.642H160.755" stroke="#2D3843" stroke-width="2"/>
<path d="M170.377 194L162.57 186.583C161.915 185.961 162.356 184.858 163.259 184.858L199.245 184.858" stroke="#2D3843" stroke-width="2"/>
<defs>
<linearGradient id="paint0_linear" x1="113.5" y1="184.933" x2="113.5" y2="208.476" gradientUnits="userSpaceOnUse">
<stop stop-color="white"/>
<stop offset="1" stop-color="white" stop-opacity="0"/>
</linearGradient>
<linearGradient id="paint1_linear" x1="113.395" y1="151.797" x2="113.395" y2="193.834" gradientUnits="userSpaceOnUse">
<stop stop-color="white"/>
<stop offset="1" stop-color="white" stop-opacity="0"/>
</linearGradient>
<linearGradient id="paint2_linear" x1="113.39" y1="156.875" x2="113.39" y2="162.517" gradientUnits="userSpaceOnUse">
<stop stop-color="white"/>
<stop offset="1" stop-color="white" stop-opacity="0"/>
</linearGradient>
<linearGradient id="paint3_linear" x1="247.03" y1="184.659" x2="247.03" y2="208.058" gradientUnits="userSpaceOnUse">
<stop stop-color="white"/>
<stop offset="1" stop-color="white" stop-opacity="0"/>
</linearGradient>
<linearGradient id="paint4_linear" x1="246.925" y1="151.725" x2="246.925" y2="193.505" gradientUnits="userSpaceOnUse">
<stop stop-color="white"/>
<stop offset="1" stop-color="white" stop-opacity="0"/>
</linearGradient>
</defs>
</svg>
