<svg width="360" height="372" viewBox="0 0 360 372" fill="none" xmlns="http://www.w3.org/2000/svg">
<g clip-path="url(#clip0)">
<rect width="360" height="372" fill="white"/>
<g clip-path="url(#clip1)">
<g filter="url(#filter0_i)">
<rect x="16" y="98" width="328" height="29" fill="white"/>
</g>
<g filter="url(#filter1_i)">
<rect x="16" y="139" width="328" height="29" fill="white"/>
</g>
<g filter="url(#filter2_i)">
<rect x="16" y="180" width="328" height="29" fill="white"/>
</g>
<g filter="url(#filter3_i)">
<rect x="16" y="221" width="328" height="29" fill="white"/>
</g>
<path d="M-0.5 198.5H37.5H114L244 223H360" stroke="#4D5C6A" stroke-width="3" stroke-linejoin="round"/>
<circle cx="243.5" cy="222" r="12" fill="#2355F5"/>
<circle cx="243.5" cy="222" r="7.63636" fill="white"/>
<g filter="url(#filter4_di)">
<circle cx="114" cy="198" r="6" fill="white"/>
</g>
<circle cx="114" cy="198" r="3.81818" fill="#4D5C6A"/>
<rect x="224" y="268" width="37" height="21" rx="10.5" fill="#2355F5"/>
<path d="M238.921 274.87H236.861V273.77H236.041V274.87H233.901V275.53H238.921V274.87ZM238.921 276.16V276.83H240.441V278.04H238.921V278.71H240.441V280.61H241.271V273.78H240.441V276.16H238.921ZM238.471 277.73C238.471 276.71 237.631 276.03 236.441 276.03C235.251 276.03 234.411 276.71 234.411 277.73C234.411 278.76 235.251 279.45 236.441 279.45C237.631 279.45 238.471 278.76 238.471 277.73ZM235.191 277.73C235.191 277.09 235.681 276.67 236.441 276.67C237.201 276.67 237.691 277.09 237.691 277.73C237.691 278.37 237.201 278.81 236.441 278.81C235.681 278.81 235.191 278.37 235.191 277.73ZM236.321 281.87V280.03H235.501V282.54H241.481V281.87H236.321ZM249.84 273.76V277.39H248.66V273.97H247.89V282.3H248.66V278.07H249.84V282.74H250.63V273.76H249.84ZM245.63 275.5H247.26V274.83H243.1V275.5H244.84V276.2C244.84 278.01 244.17 279.55 242.89 280.27L243.39 280.89C244.32 280.33 244.94 279.41 245.25 278.16C245.57 279.24 246.19 280.09 247.07 280.58L247.55 279.95C246.27 279.28 245.63 277.85 245.63 276.2V275.5Z" fill="white"/>
<rect x="96" y="268" width="37" height="21" rx="10.5" fill="#4D5C6A"/>
<path d="M114.191 277.52H112.761V273.77H111.941V282.74H112.761V278.21H114.191V277.52ZM110.561 278.8C110.811 277.11 110.811 275.96 110.811 275.24V274.75H106.281V275.42H110.011C110.011 276.14 109.991 277.23 109.741 278.72L110.561 278.8ZM108.501 277.31H107.691V280.07C107.011 280.1 106.361 280.1 105.791 280.1L105.881 280.78C107.481 280.78 109.581 280.73 111.441 280.44L111.391 279.84C110.471 279.96 109.501 280.01 108.501 280.05V277.31ZM121.54 273.78V277.37H119.44V278.04H121.54V282.74H122.36V273.78H121.54ZM115.37 274.74V275.4H118.64C118.48 277.5 117.38 279.21 114.97 280.39L115.42 281.03C118.41 279.56 119.46 277.29 119.46 274.74H115.37Z" fill="white"/>
<path d="M243 205L234.34 190L251.66 190L243 205Z" fill="#11171C"/>
<path d="M114 187L105.34 172L122.66 172L114 187Z" fill="#11171C"/>
<path d="M232.832 175.104L242.969 175.091L253.121 175.104C253.692 175.085 267.504 174.665 271.43 179.79C271.435 179.798 271.44 179.806 271.446 179.814C271.456 179.83 271.652 180.124 271.986 180.67C277.004 174.293 279.997 166.247 279.997 157.503C280 136.79 263.213 120 242.5 120C221.787 120 205 136.79 205 157.5C205 166.552 208.208 174.855 213.546 181.334C214.127 180.363 214.478 179.832 214.491 179.814C218.435 174.662 232.245 175.08 232.832 175.104Z" fill="#2355F5"/>
<path d="M242.501 195C254.466 195 265.125 189.396 271.99 180.668C271.655 180.122 271.46 179.827 271.449 179.811C271.443 179.803 271.438 179.795 271.433 179.787C267.508 174.662 253.692 175.083 253.125 175.101L242.972 175.088L232.835 175.101C232.249 175.08 218.436 174.66 214.492 179.811C214.479 179.832 214.131 180.36 213.547 181.332C220.425 189.68 230.84 195 242.501 195Z" fill="black"/>
<path d="M250.758 159.406H235.183L232.816 175.538C232.816 175.538 242.961 185.699 253.122 175.538L250.758 159.406Z" fill="white"/>
<path fill-rule="evenodd" clip-rule="evenodd" d="M235.097 159.306H250.845L253.229 175.573L253.193 175.609C250.641 178.161 248.084 179.442 245.683 179.923C243.282 180.403 241.043 180.083 239.127 179.443C237.212 178.804 235.617 177.846 234.502 177.048C233.944 176.649 233.506 176.29 233.207 176.03C233.057 175.9 232.942 175.795 232.864 175.723C232.826 175.686 232.796 175.658 232.776 175.639C232.766 175.629 232.759 175.622 232.754 175.617L232.748 175.611L232.746 175.609L232.746 175.609C232.746 175.609 232.746 175.609 232.817 175.538L232.746 175.609L232.71 175.573L235.097 159.306ZM232.923 175.502C232.942 175.52 232.968 175.545 233.002 175.576C233.078 175.647 233.191 175.751 233.338 175.879C233.633 176.135 234.067 176.49 234.619 176.885C235.723 177.675 237.3 178.622 239.191 179.253C241.081 179.884 243.284 180.198 245.643 179.726C247.99 179.256 250.5 178.006 253.016 175.502L250.671 159.507H235.27L232.923 175.502Z" fill="black"/>
<path d="M243.323 180.475C241.722 180.475 240.265 180.17 239.026 179.755C235.167 178.467 232.621 175.947 232.514 175.84C232.418 175.744 232.372 175.607 232.391 175.471L234.758 159.339C234.79 159.128 234.972 158.97 235.186 158.97H250.761C250.975 158.97 251.157 159.128 251.189 159.339L253.556 175.471C253.575 175.607 253.532 175.744 253.433 175.84C249.893 179.38 246.354 180.475 243.323 180.475ZM233.28 175.38C234.602 176.619 243.54 184.325 252.664 175.383L250.386 159.84H235.561L233.28 175.38Z" fill="black"/>
<path fill-rule="evenodd" clip-rule="evenodd" d="M234.857 159.354C234.857 159.355 234.857 159.354 234.857 159.354L232.49 175.485C232.49 175.485 232.49 175.485 232.49 175.485C232.476 175.591 232.511 175.696 232.585 175.769C232.688 175.872 235.221 178.379 239.057 179.66C240.288 180.072 241.734 180.375 243.323 180.375C246.326 180.375 249.84 179.291 253.362 175.769L253.363 175.768C253.437 175.696 253.471 175.592 253.456 175.485C253.456 175.485 253.456 175.485 253.456 175.485L251.09 159.354C251.065 159.192 250.925 159.07 250.76 159.07H235.186C235.022 159.07 234.882 159.192 234.857 159.354ZM234.658 159.324C234.698 159.064 234.922 158.87 235.186 158.87H250.76C251.025 158.87 251.249 159.064 251.288 159.324L251.288 159.325L253.655 175.456L253.655 175.457C253.678 175.623 253.626 175.792 253.503 175.912C249.945 179.469 246.381 180.575 243.323 180.575C241.709 180.575 240.241 180.268 238.993 179.85C235.113 178.555 232.554 176.022 232.443 175.911C232.324 175.792 232.268 175.624 232.291 175.457L232.291 175.456L234.658 159.325L234.658 159.324ZM235.474 159.74H250.472L252.771 175.418L252.734 175.454C248.145 179.952 243.592 180.269 240.02 179.296C236.456 178.326 233.877 176.077 233.211 175.453L233.173 175.417L235.474 159.74ZM235.647 159.94L233.387 175.342C234.1 176.004 236.621 178.163 240.072 179.103C243.572 180.055 248.035 179.757 252.557 175.346L250.299 159.94H235.647Z" fill="black"/>
<path d="M260.184 147.275C260.184 144.889 258.269 142.954 255.894 142.913C255.876 135.966 250.24 130.338 243.286 130.338C236.322 130.338 230.678 135.982 230.678 142.946V142.978C230.435 142.935 230.186 142.908 229.929 142.908C227.519 142.908 225.564 144.863 225.564 147.272C225.564 149.682 227.519 151.637 229.929 151.637C230.186 151.637 230.435 151.61 230.678 151.567V154.582C230.678 161.546 236.322 167.19 243.286 167.19C250.25 167.19 255.894 161.546 255.894 154.582V151.631C258.272 151.594 260.184 149.661 260.184 147.275Z" fill="white"/>
<path fill-rule="evenodd" clip-rule="evenodd" d="M230.578 142.859C230.624 135.88 236.295 130.237 243.286 130.237C250.262 130.237 255.923 135.857 255.994 142.816C258.378 142.908 260.284 144.867 260.284 147.275C260.284 149.682 258.381 151.639 255.995 151.729V154.582C255.995 161.601 250.306 167.29 243.286 167.29C236.267 167.29 230.578 161.601 230.578 154.582V151.685C230.367 151.717 230.151 151.737 229.928 151.737C227.463 151.737 225.464 149.737 225.464 147.272C225.464 144.807 227.463 142.808 229.928 142.808C230.151 142.808 230.367 142.827 230.578 142.859ZM243.286 130.438C236.378 130.438 230.779 136.037 230.779 142.946V143.097L230.661 143.077C230.422 143.035 230.179 143.008 229.928 143.008C227.574 143.008 225.665 144.918 225.665 147.272C225.665 149.627 227.574 151.536 229.928 151.536C230.179 151.536 230.422 151.51 230.661 151.468L230.779 151.447V154.582C230.779 161.49 236.378 167.089 243.286 167.089C250.195 167.089 255.794 161.49 255.794 154.582V151.532L255.893 151.531C258.215 151.494 260.083 149.606 260.083 147.275C260.083 144.944 258.213 143.053 255.892 143.014L255.794 143.012L255.794 142.914C255.775 136.021 250.184 130.438 243.286 130.438Z" fill="black"/>
<path d="M243.286 167.629C236.095 167.629 230.245 161.779 230.245 154.587V152.062C230.138 152.07 230.033 152.073 229.929 152.073C227.284 152.073 225.131 149.92 225.131 147.275C225.131 144.63 227.284 142.477 229.929 142.477C230.036 142.477 230.143 142.482 230.255 142.49C230.512 135.494 236.261 129.906 243.289 129.906C250.325 129.906 256.09 135.521 256.323 142.509C258.727 142.763 260.62 144.82 260.62 147.278C260.62 149.733 258.733 151.786 256.334 152.046V154.59C256.331 161.779 250.478 167.629 243.286 167.629ZM231.112 151.058V154.587C231.112 161.302 236.574 166.764 243.289 166.764C250.004 166.764 255.466 161.302 255.466 154.587V151.211L255.892 151.203C258.02 151.165 259.753 149.403 259.753 147.275C259.753 145.146 258.02 143.385 255.889 143.347L255.463 143.339V142.913C255.447 136.217 249.985 130.769 243.289 130.769C236.574 130.769 231.112 136.231 231.112 142.946V143.46L230.606 143.403C230.363 143.361 230.143 143.342 229.931 143.342C227.763 143.342 226.001 145.106 226.001 147.272C226.001 149.438 227.765 151.203 229.931 151.203C230.146 151.203 230.365 151.181 230.606 151.141L231.112 151.058Z" fill="black"/>
<path d="M230.856 149.2C230.848 149.2 230.837 149.2 230.829 149.2C230.591 149.184 230.409 148.98 230.425 148.739C230.583 146.231 230.452 145.711 230.446 145.69C230.35 145.47 230.46 145.235 230.679 145.138C230.899 145.045 231.161 145.162 231.255 145.382C231.394 145.701 231.405 146.943 231.29 148.793C231.274 149.023 231.084 149.2 230.856 149.2Z" fill="black"/>
<path fill-rule="evenodd" clip-rule="evenodd" d="M230.719 145.23C230.544 145.308 230.467 145.488 230.538 145.65L230.542 145.657L230.544 145.666C230.553 145.703 230.683 146.236 230.525 148.746L230.525 148.746C230.513 148.93 230.65 149.086 230.833 149.1H230.856C231.03 149.1 231.177 148.964 231.19 148.786C231.247 147.863 231.273 147.092 231.267 146.514C231.265 146.225 231.254 145.985 231.235 145.799C231.217 145.61 231.191 145.486 231.163 145.422L231.163 145.421C231.089 145.249 230.883 145.161 230.719 145.23ZM231.347 145.342C231.233 145.076 230.915 144.929 230.64 145.046L230.639 145.046C230.378 145.161 230.236 145.447 230.351 145.721C230.366 145.79 230.473 146.381 230.325 148.733C230.305 149.03 230.53 149.28 230.822 149.3L230.826 149.3H230.856C231.137 149.3 231.37 149.083 231.39 148.8L231.39 148.799C231.448 147.873 231.474 147.097 231.468 146.512C231.465 146.22 231.454 145.974 231.435 145.779C231.416 145.589 231.389 145.438 231.347 145.342Z" fill="black"/>
<path d="M255.721 149.2C255.53 149.2 255.356 149.074 255.303 148.884C254.741 146.863 255.295 145.454 255.319 145.395C255.407 145.173 255.659 145.066 255.884 145.157C256.106 145.245 256.213 145.497 256.125 145.719C256.117 145.738 255.662 146.938 256.141 148.654C256.205 148.884 256.071 149.122 255.838 149.187C255.798 149.195 255.758 149.2 255.721 149.2Z" fill="black"/>
<path fill-rule="evenodd" clip-rule="evenodd" d="M255.847 145.25C255.673 145.18 255.481 145.263 255.413 145.432L255.413 145.433L255.413 145.433C255.394 145.48 254.846 146.864 255.4 148.857C255.441 149.003 255.575 149.1 255.721 149.1C255.749 149.1 255.781 149.096 255.816 149.089C255.993 149.038 256.094 148.856 256.045 148.681C255.566 146.965 256.005 145.752 256.032 145.682L256.032 145.682C256.1 145.511 256.018 145.318 255.848 145.25L255.847 145.25ZM255.922 145.064C255.646 144.953 255.336 145.084 255.227 145.358C255.195 145.435 254.638 146.865 255.207 148.911L255.207 148.911C255.273 149.146 255.487 149.3 255.721 149.3C255.768 149.3 255.815 149.294 255.859 149.285L255.862 149.284L255.866 149.283C256.152 149.204 256.318 148.911 256.238 148.627L256.238 148.627C256.003 147.783 255.997 147.067 256.051 146.561C256.104 146.059 256.215 145.766 256.218 145.759C256.218 145.759 256.218 145.759 256.218 145.759L256.218 145.759L256.219 145.756C256.328 145.483 256.196 145.173 255.922 145.064Z" fill="black"/>
<path d="M241.304 144.932C241.207 144.932 241.111 144.9 241.03 144.836C239.025 143.216 236.709 144.785 236.613 144.855C236.417 144.991 236.147 144.943 236.01 144.747C235.874 144.552 235.922 144.282 236.117 144.145C236.147 144.124 239.06 142.132 241.577 144.164C241.761 144.314 241.791 144.587 241.641 144.772C241.555 144.876 241.429 144.932 241.304 144.932Z" fill="black"/>
<path d="M246.133 144.932C245.996 144.932 245.863 144.868 245.777 144.747C245.64 144.552 245.689 144.282 245.884 144.145C245.913 144.124 248.827 142.129 251.343 144.164C251.528 144.314 251.557 144.587 251.408 144.772C251.258 144.959 250.985 144.986 250.8 144.836C248.784 143.208 246.406 144.836 246.382 144.855C246.304 144.905 246.219 144.932 246.133 144.932Z" fill="black"/>
<path d="M238.835 148.22C239.321 148.22 239.716 147.826 239.716 147.339C239.716 146.853 239.321 146.458 238.835 146.458C238.348 146.458 237.954 146.853 237.954 147.339C237.954 147.826 238.348 148.22 238.835 148.22Z" fill="black"/>
<path d="M248.603 148.22C249.089 148.22 249.483 147.826 249.483 147.339C249.483 146.853 249.089 146.458 248.603 146.458C248.116 146.458 247.722 146.853 247.722 147.339C247.722 147.826 248.116 148.22 248.603 148.22Z" fill="black"/>
<path d="M243.269 155.005C242.198 155.005 240.315 154.635 239.876 153.639C239.705 153.251 239.681 152.638 240.546 151.926C242.358 150.426 242.666 146.689 242.473 146.153C242.393 145.931 242.505 145.679 242.728 145.596C242.95 145.513 243.196 145.62 243.282 145.843C243.571 146.592 243.319 150.756 241.097 152.592C240.896 152.758 240.572 153.072 240.669 153.288C240.912 153.84 242.749 154.242 243.582 154.121C243.82 154.089 244.037 154.252 244.072 154.488C244.107 154.724 243.941 154.943 243.705 154.978C243.582 154.997 243.435 155.005 243.269 155.005Z" fill="black"/>
<path d="M244.787 161.382C240.648 161.382 239.885 159.795 239.812 159.612C239.724 159.39 239.831 159.139 240.051 159.048C240.267 158.959 240.516 159.061 240.61 159.275C240.634 159.321 241.298 160.515 244.787 160.515C245.025 160.515 245.221 160.708 245.221 160.949C245.221 161.189 245.028 161.382 244.787 161.382Z" fill="black"/>
<path d="M250.807 128.94C247.089 128.423 243.289 128.388 239.544 128.544C236.406 128.675 233.027 128.865 230.242 130.471C228.502 131.473 227.072 133.186 226.858 135.181C226.665 136.97 227.49 138.782 228.81 140.006C230.13 141.229 231.894 141.901 233.677 142.126C237.23 142.576 241.15 141.098 242.933 137.992C244.73 140.991 248.475 142.504 251.956 142.166C253.774 141.99 255.579 141.342 256.941 140.126C258.302 138.908 259.169 137.085 259.014 135.267C258.867 133.556 257.844 131.998 256.478 130.959C254.861 129.73 252.821 129.218 250.807 128.94Z" fill="black"/>
<path d="M103.832 157.104L113.969 157.091L124.121 157.104C124.692 157.085 138.504 156.665 142.43 161.79C142.435 161.798 142.44 161.806 142.446 161.814C142.456 161.83 142.652 162.124 142.986 162.67C148.004 156.293 150.997 148.247 150.997 139.503C151 118.79 134.213 102 113.5 102C92.7874 102 76 118.79 76 139.5C76 148.552 79.2076 156.855 84.5463 163.334C85.1273 162.363 85.4781 161.832 85.4915 161.814C89.4353 156.662 103.245 157.08 103.832 157.104Z" fill="#77818B"/>
<path d="M113.501 177C125.466 177 136.125 171.396 142.99 162.668C142.655 162.122 142.46 161.827 142.449 161.811C142.443 161.803 142.438 161.795 142.433 161.787C138.508 156.662 124.692 157.083 124.125 157.101L113.972 157.088L103.835 157.101C103.249 157.08 89.4359 156.66 85.492 161.811C85.4786 161.832 85.1306 162.36 84.5469 163.332C91.4252 171.68 101.84 177 113.501 177Z" fill="black"/>
<path d="M121.758 141.406H106.183L103.816 157.538C103.816 157.538 113.961 167.699 124.122 157.538L121.758 141.406Z" fill="white"/>
<path fill-rule="evenodd" clip-rule="evenodd" d="M106.097 141.306H121.845L124.229 157.573L124.193 157.609C121.641 160.161 119.084 161.442 116.683 161.923C114.282 162.403 112.043 162.083 110.127 161.443C108.212 160.804 106.617 159.846 105.502 159.048C104.944 158.649 104.506 158.29 104.207 158.03C104.057 157.9 103.942 157.795 103.864 157.723C103.826 157.686 103.796 157.658 103.776 157.639C103.766 157.629 103.759 157.622 103.754 157.617L103.748 157.611L103.746 157.609L103.746 157.609C103.746 157.609 103.746 157.609 103.817 157.538L103.746 157.609L103.71 157.573L106.097 141.306ZM103.923 157.502C103.942 157.52 103.968 157.545 104.002 157.576C104.078 157.647 104.191 157.751 104.338 157.879C104.633 158.135 105.067 158.49 105.619 158.885C106.723 159.675 108.3 160.622 110.191 161.253C112.081 161.884 114.284 162.198 116.643 161.726C118.99 161.256 121.5 160.006 124.016 157.502L121.671 141.507H106.27L103.923 157.502Z" fill="black"/>
<path d="M114.323 162.475C112.722 162.475 111.265 162.17 110.026 161.755C106.167 160.467 103.621 157.947 103.514 157.84C103.418 157.744 103.372 157.607 103.391 157.471L105.758 141.339C105.79 141.128 105.972 140.97 106.186 140.97H121.761C121.975 140.97 122.157 141.128 122.189 141.339L124.556 157.471C124.575 157.607 124.532 157.744 124.433 157.84C120.893 161.38 117.354 162.475 114.323 162.475ZM104.28 157.38C105.602 158.619 114.54 166.325 123.664 157.383L121.386 141.84H106.561L104.28 157.38Z" fill="black"/>
<path fill-rule="evenodd" clip-rule="evenodd" d="M105.857 141.354C105.857 141.355 105.857 141.354 105.857 141.354L103.49 157.485C103.49 157.485 103.49 157.485 103.49 157.485C103.476 157.591 103.511 157.696 103.585 157.769C103.688 157.872 106.221 160.379 110.057 161.66C111.288 162.072 112.734 162.375 114.323 162.375C117.326 162.375 120.84 161.291 124.362 157.769L124.363 157.768C124.437 157.696 124.471 157.592 124.456 157.485C124.456 157.485 124.456 157.485 124.456 157.485L122.09 141.354C122.065 141.192 121.925 141.07 121.76 141.07H106.186C106.022 141.07 105.882 141.192 105.857 141.354ZM105.658 141.324C105.698 141.064 105.922 140.87 106.186 140.87H121.76C122.025 140.87 122.249 141.064 122.288 141.324L122.288 141.325L124.655 157.456L124.655 157.457C124.678 157.623 124.626 157.792 124.503 157.912C120.945 161.469 117.381 162.575 114.323 162.575C112.709 162.575 111.241 162.268 109.993 161.85C106.113 160.555 103.554 158.022 103.443 157.911C103.324 157.792 103.268 157.624 103.291 157.457L103.291 157.456L105.658 141.325L105.658 141.324ZM106.474 141.74H121.472L123.771 157.418L123.734 157.454C119.145 161.952 114.592 162.269 111.02 161.296C107.456 160.326 104.877 158.077 104.211 157.453L104.173 157.417L106.474 141.74ZM106.647 141.94L104.387 157.342C105.1 158.004 107.621 160.163 111.072 161.103C114.572 162.055 119.035 161.757 123.557 157.346L121.299 141.94H106.647Z" fill="black"/>
<path d="M131.185 129.275C131.185 126.889 129.27 124.954 126.895 124.913C126.877 117.966 121.241 112.338 114.287 112.338C107.323 112.338 101.679 117.982 101.679 124.946V124.978C101.436 124.935 101.187 124.908 100.93 124.908C98.52 124.908 96.5654 126.863 96.5654 129.272C96.5654 131.682 98.52 133.637 100.93 133.637C101.187 133.637 101.436 133.61 101.679 133.567V136.582C101.679 143.546 107.323 149.19 114.287 149.19C121.251 149.19 126.895 143.546 126.895 136.582V133.631C129.273 133.594 131.185 131.661 131.185 129.275Z" fill="white"/>
<path fill-rule="evenodd" clip-rule="evenodd" d="M101.579 124.859C101.625 117.88 107.296 112.237 114.287 112.237C121.263 112.237 126.924 117.857 126.995 124.816C129.379 124.908 131.285 126.867 131.285 129.275C131.285 131.682 129.382 133.639 126.996 133.729V136.582C126.996 143.601 121.307 149.29 114.287 149.29C107.268 149.29 101.579 143.601 101.579 136.582V133.685C101.368 133.717 101.152 133.737 100.929 133.737C98.4643 133.737 96.4648 131.737 96.4648 129.272C96.4648 126.807 98.4643 124.808 100.929 124.808C101.152 124.808 101.368 124.827 101.579 124.859ZM114.287 112.438C107.379 112.438 101.78 118.037 101.78 124.946V125.097L101.662 125.077C101.423 125.035 101.179 125.008 100.929 125.008C98.5752 125.008 96.6657 126.918 96.6657 129.272C96.6657 131.627 98.5752 133.536 100.929 133.536C101.179 133.536 101.423 133.51 101.662 133.468L101.78 133.447V136.582C101.78 143.49 107.379 149.089 114.287 149.089C121.196 149.089 126.795 143.49 126.795 136.582V133.532L126.894 133.531C129.216 133.494 131.084 131.606 131.084 129.275C131.084 126.944 129.214 125.053 126.893 125.014L126.795 125.012L126.795 124.914C126.776 118.021 121.185 112.438 114.287 112.438Z" fill="black"/>
<path d="M114.287 149.629C107.096 149.629 101.246 143.779 101.246 136.587V134.062C101.139 134.07 101.034 134.073 100.93 134.073C98.2845 134.073 96.1318 131.92 96.1318 129.275C96.1318 126.63 98.2845 124.477 100.93 124.477C101.037 124.477 101.144 124.482 101.256 124.49C101.513 117.494 107.262 111.906 114.29 111.906C121.326 111.906 127.091 117.521 127.324 124.509C129.728 124.763 131.621 126.82 131.621 129.278C131.621 131.733 129.734 133.786 127.335 134.046V136.59C127.332 143.779 121.479 149.629 114.287 149.629ZM102.113 133.058V136.587C102.113 143.302 107.575 148.764 114.29 148.764C121.005 148.764 126.467 143.302 126.467 136.587V133.211L126.893 133.203C129.021 133.165 130.754 131.403 130.754 129.275C130.754 127.146 129.021 125.385 126.89 125.347L126.464 125.339V124.913C126.448 118.217 120.986 112.769 114.29 112.769C107.575 112.769 102.113 118.231 102.113 124.946V125.46L101.607 125.403C101.364 125.361 101.144 125.342 100.932 125.342C98.7637 125.342 97.002 127.106 97.002 129.272C97.002 131.438 98.7664 133.203 100.932 133.203C101.147 133.203 101.366 133.181 101.607 133.141L102.113 133.058Z" fill="black"/>
<path d="M101.856 131.2C101.848 131.2 101.837 131.2 101.829 131.2C101.591 131.184 101.409 130.98 101.425 130.739C101.583 128.231 101.452 127.711 101.446 127.69C101.35 127.47 101.46 127.235 101.679 127.138C101.899 127.045 102.161 127.162 102.255 127.382C102.394 127.701 102.405 128.943 102.29 130.793C102.274 131.023 102.084 131.2 101.856 131.2Z" fill="black"/>
<path fill-rule="evenodd" clip-rule="evenodd" d="M101.719 127.23C101.544 127.308 101.467 127.488 101.538 127.65L101.542 127.657L101.544 127.666C101.553 127.703 101.683 128.236 101.525 130.746L101.525 130.746C101.513 130.93 101.65 131.086 101.833 131.1H101.856C102.03 131.1 102.177 130.964 102.19 130.786C102.247 129.863 102.273 129.092 102.267 128.514C102.265 128.225 102.254 127.985 102.235 127.799C102.217 127.61 102.191 127.486 102.163 127.422L102.163 127.421C102.089 127.249 101.883 127.161 101.719 127.23ZM102.347 127.342C102.233 127.076 101.915 126.929 101.64 127.046L101.639 127.046C101.378 127.161 101.236 127.447 101.351 127.721C101.366 127.79 101.473 128.381 101.325 130.733C101.305 131.03 101.53 131.28 101.822 131.3L101.826 131.3H101.856C102.137 131.3 102.37 131.083 102.39 130.8L102.39 130.799C102.448 129.873 102.474 129.097 102.468 128.512C102.465 128.22 102.454 127.974 102.435 127.779C102.416 127.589 102.389 127.438 102.347 127.342Z" fill="black"/>
<path d="M126.721 131.2C126.53 131.2 126.356 131.074 126.303 130.884C125.741 128.863 126.295 127.454 126.319 127.395C126.407 127.173 126.659 127.066 126.884 127.157C127.106 127.245 127.213 127.497 127.125 127.719C127.117 127.738 126.662 128.938 127.141 130.654C127.205 130.884 127.071 131.122 126.838 131.187C126.798 131.195 126.758 131.2 126.721 131.2Z" fill="black"/>
<path fill-rule="evenodd" clip-rule="evenodd" d="M126.847 127.25C126.673 127.18 126.481 127.263 126.413 127.432L126.413 127.433C126.394 127.48 125.846 128.864 126.4 130.857C126.441 131.003 126.575 131.1 126.721 131.1C126.749 131.1 126.781 131.096 126.816 131.089C126.993 131.038 127.094 130.856 127.045 130.681C126.566 128.965 127.005 127.752 127.032 127.682C127.1 127.511 127.018 127.318 126.848 127.25L126.847 127.25ZM126.922 127.064C126.646 126.953 126.336 127.084 126.227 127.358C126.195 127.435 125.638 128.865 126.207 130.911L126.207 130.911C126.273 131.146 126.487 131.3 126.721 131.3C126.768 131.3 126.815 131.294 126.859 131.285L126.862 131.284L126.866 131.283C127.152 131.204 127.318 130.911 127.238 130.627C127.003 129.783 126.997 129.067 127.051 128.561C127.104 128.059 127.215 127.766 127.218 127.759C127.218 127.759 127.218 127.759 127.218 127.759L127.219 127.756C127.328 127.483 127.196 127.173 126.922 127.064Z" fill="black"/>
<path d="M112.304 126.932C112.207 126.932 112.111 126.9 112.03 126.836C110.025 125.216 107.709 126.785 107.613 126.855C107.417 126.991 107.147 126.943 107.01 126.747C106.874 126.552 106.922 126.282 107.117 126.145C107.147 126.124 110.06 124.132 112.577 126.164C112.761 126.314 112.791 126.587 112.641 126.772C112.555 126.876 112.429 126.932 112.304 126.932Z" fill="black"/>
<path d="M117.133 126.932C116.996 126.932 116.863 126.868 116.777 126.747C116.64 126.552 116.689 126.282 116.884 126.145C116.913 126.124 119.827 124.129 122.343 126.164C122.528 126.314 122.557 126.587 122.408 126.772C122.258 126.959 121.985 126.986 121.8 126.836C119.784 125.208 117.406 126.836 117.382 126.855C117.304 126.905 117.219 126.932 117.133 126.932Z" fill="black"/>
<path d="M109.835 130.22C110.321 130.22 110.716 129.826 110.716 129.339C110.716 128.853 110.321 128.458 109.835 128.458C109.348 128.458 108.954 128.853 108.954 129.339C108.954 129.826 109.348 130.22 109.835 130.22Z" fill="black"/>
<path d="M119.603 130.22C120.089 130.22 120.483 129.826 120.483 129.339C120.483 128.853 120.089 128.458 119.603 128.458C119.116 128.458 118.722 128.853 118.722 129.339C118.722 129.826 119.116 130.22 119.603 130.22Z" fill="black"/>
<path d="M114.269 137.005C113.198 137.005 111.315 136.635 110.876 135.639C110.705 135.251 110.681 134.638 111.546 133.926C113.358 132.426 113.666 128.689 113.473 128.153C113.393 127.931 113.505 127.679 113.728 127.596C113.95 127.513 114.196 127.62 114.282 127.843C114.571 128.592 114.319 132.756 112.097 134.592C111.896 134.758 111.572 135.072 111.669 135.288C111.912 135.84 113.749 136.242 114.582 136.121C114.82 136.089 115.037 136.252 115.072 136.488C115.107 136.724 114.941 136.943 114.705 136.978C114.582 136.997 114.435 137.005 114.269 137.005Z" fill="black"/>
<path d="M121.807 110.94C118.089 110.423 114.289 110.388 110.544 110.544C107.406 110.675 104.027 110.865 101.242 112.471C99.5019 113.473 98.0721 115.186 97.8579 117.181C97.6652 118.97 98.4898 120.782 99.8098 122.006C101.13 123.229 102.894 123.901 104.677 124.126C108.23 124.576 112.15 123.098 113.933 119.992C115.73 122.991 119.475 124.504 122.956 124.166C124.774 123.99 126.579 123.342 127.941 122.126C129.302 120.908 130.169 119.085 130.014 117.267C129.867 115.556 128.844 113.998 127.478 112.959C125.861 111.73 123.821 111.218 121.807 110.94Z" fill="black"/>
<path d="M121.588 141.955C120.011 141.955 118.731 140.673 118.731 139.098C118.731 137.521 120.014 136.239 121.588 136.239C121.882 136.239 122.123 135.998 122.123 135.703C122.123 135.409 121.882 135.168 121.588 135.168C119.422 135.168 117.66 136.93 117.66 139.098C117.66 139.168 117.668 139.232 117.671 139.302C114.241 141.572 111.454 139.888 110.691 139.329C110.696 139.251 110.702 139.176 110.702 139.098C110.702 136.932 108.94 135.168 106.774 135.168C106.479 135.168 106.238 135.409 106.238 135.703C106.238 135.998 106.479 136.239 106.774 136.239C108.351 136.239 109.631 137.521 109.631 139.098C109.631 140.675 108.348 141.955 106.774 141.955C106.479 141.955 106.238 142.196 106.238 142.491C106.238 142.785 106.479 143.026 106.774 143.026C108.466 143.026 109.906 141.95 110.458 140.448C111.202 140.903 112.514 141.516 114.161 141.516C115.277 141.516 116.546 141.232 117.896 140.426C118.442 141.939 119.888 143.029 121.588 143.029C121.882 143.029 122.123 142.788 122.123 142.493C122.123 142.199 121.882 141.955 121.588 141.955Z" fill="black"/>
</g>
</g>
<defs>
<filter id="filter0_i" x="16" y="98" width="328" height="29" filterUnits="userSpaceOnUse" color-interpolation-filters="sRGB">
<feFlood flood-opacity="0" result="BackgroundImageFix"/>
<feBlend mode="normal" in="SourceGraphic" in2="BackgroundImageFix" result="shape"/>
<feColorMatrix in="SourceAlpha" type="matrix" values="0 0 0 0 0 0 0 0 0 0 0 0 0 0 0 0 0 0 127 0" result="hardAlpha"/>
<feOffset dy="-1"/>
<feComposite in2="hardAlpha" operator="arithmetic" k2="-1" k3="1"/>
<feColorMatrix type="matrix" values="0 0 0 0 0.913725 0 0 0 0 0.929412 0 0 0 0 0.937255 0 0 0 1 0"/>
<feBlend mode="normal" in2="shape" result="effect1_innerShadow"/>
</filter>
<filter id="filter1_i" x="16" y="139" width="328" height="29" filterUnits="userSpaceOnUse" color-interpolation-filters="sRGB">
<feFlood flood-opacity="0" result="BackgroundImageFix"/>
<feBlend mode="normal" in="SourceGraphic" in2="BackgroundImageFix" result="shape"/>
<feColorMatrix in="SourceAlpha" type="matrix" values="0 0 0 0 0 0 0 0 0 0 0 0 0 0 0 0 0 0 127 0" result="hardAlpha"/>
<feOffset dy="-1"/>
<feComposite in2="hardAlpha" operator="arithmetic" k2="-1" k3="1"/>
<feColorMatrix type="matrix" values="0 0 0 0 0.913725 0 0 0 0 0.929412 0 0 0 0 0.937255 0 0 0 1 0"/>
<feBlend mode="normal" in2="shape" result="effect1_innerShadow"/>
</filter>
<filter id="filter2_i" x="16" y="180" width="328" height="29" filterUnits="userSpaceOnUse" color-interpolation-filters="sRGB">
<feFlood flood-opacity="0" result="BackgroundImageFix"/>
<feBlend mode="normal" in="SourceGraphic" in2="BackgroundImageFix" result="shape"/>
<feColorMatrix in="SourceAlpha" type="matrix" values="0 0 0 0 0 0 0 0 0 0 0 0 0 0 0 0 0 0 127 0" result="hardAlpha"/>
<feOffset dy="-1"/>
<feComposite in2="hardAlpha" operator="arithmetic" k2="-1" k3="1"/>
<feColorMatrix type="matrix" values="0 0 0 0 0.913725 0 0 0 0 0.929412 0 0 0 0 0.937255 0 0 0 1 0"/>
<feBlend mode="normal" in2="shape" result="effect1_innerShadow"/>
</filter>
<filter id="filter3_i" x="16" y="221" width="328" height="29" filterUnits="userSpaceOnUse" color-interpolation-filters="sRGB">
<feFlood flood-opacity="0" result="BackgroundImageFix"/>
<feBlend mode="normal" in="SourceGraphic" in2="BackgroundImageFix" result="shape"/>
<feColorMatrix in="SourceAlpha" type="matrix" values="0 0 0 0 0 0 0 0 0 0 0 0 0 0 0 0 0 0 127 0" result="hardAlpha"/>
<feOffset dy="-1"/>
<feComposite in2="hardAlpha" operator="arithmetic" k2="-1" k3="1"/>
<feColorMatrix type="matrix" values="0 0 0 0 0.913725 0 0 0 0 0.929412 0 0 0 0 0.937255 0 0 0 1 0"/>
<feBlend mode="normal" in2="shape" result="effect1_innerShadow"/>
</filter>
<filter id="filter4_di" x="103" y="191" width="22" height="22" filterUnits="userSpaceOnUse" color-interpolation-filters="sRGB">
<feFlood flood-opacity="0" result="BackgroundImageFix"/>
<feColorMatrix in="SourceAlpha" type="matrix" values="0 0 0 0 0 0 0 0 0 0 0 0 0 0 0 0 0 0 127 0"/>
<feOffset dy="4"/>
<feGaussianBlur stdDeviation="2.5"/>
<feColorMatrix type="matrix" values="0 0 0 0 0 0 0 0 0 0 0 0 0 0 0 0 0 0 0.1 0"/>
<feBlend mode="normal" in2="BackgroundImageFix" result="effect1_dropShadow"/>
<feBlend mode="normal" in="SourceGraphic" in2="effect1_dropShadow" result="shape"/>
<feColorMatrix in="SourceAlpha" type="matrix" values="0 0 0 0 0 0 0 0 0 0 0 0 0 0 0 0 0 0 127 0" result="hardAlpha"/>
<feOffset dy="1"/>
<feComposite in2="hardAlpha" operator="arithmetic" k2="-1" k3="1"/>
<feColorMatrix type="matrix" values="0 0 0 0 1 0 0 0 0 1 0 0 0 0 1 0 0 0 0.16 0"/>
<feBlend mode="normal" in2="shape" result="effect2_innerShadow"/>
</filter>
<linearGradient id="paint0_linear" x1="180" y1="169" x2="180" y2="257.5" gradientUnits="userSpaceOnUse">
<stop stop-color="#2355F5" stop-opacity="0.2"/>
<stop offset="1" stop-color="#2355F5" stop-opacity="0"/>
</linearGradient>
<linearGradient id="paint1_linear" x1="243.5" y1="214.364" x2="243.5" y2="229.636" gradientUnits="userSpaceOnUse">
<stop stop-color="white"/>
<stop offset="1" stop-color="white" stop-opacity="0"/>
</linearGradient>
<linearGradient id="paint2_linear" x1="114" y1="192" x2="114" y2="204" gradientUnits="userSpaceOnUse">
<stop stop-color="white"/>
<stop offset="1" stop-color="white" stop-opacity="0"/>
</linearGradient>
<linearGradient id="paint3_linear" x1="242.5" y1="271" x2="242.5" y2="286" gradientUnits="userSpaceOnUse">
<stop stop-color="white"/>
<stop offset="1" stop-color="white" stop-opacity="0"/>
</linearGradient>
<linearGradient id="paint4_linear" x1="114.5" y1="271" x2="114.5" y2="286" gradientUnits="userSpaceOnUse">
<stop stop-color="white"/>
<stop offset="1" stop-color="white" stop-opacity="0"/>
</linearGradient>
<linearGradient id="paint5_linear" x1="17.5" y1="82" x2="80" y2="82" gradientUnits="userSpaceOnUse">
<stop stop-color="white"/>
<stop offset="1" stop-color="white" stop-opacity="0"/>
</linearGradient>
<linearGradient id="paint6_linear" x1="377.5" y1="269" x2="440" y2="269" gradientUnits="userSpaceOnUse">
<stop stop-color="white"/>
<stop offset="1" stop-color="white" stop-opacity="0"/>
</linearGradient>
<clipPath id="clip0">
<rect width="360" height="372" fill="white"/>
</clipPath>
<clipPath id="clip1">
<rect width="360.5" height="207" fill="white" transform="translate(-0.5 82)"/>
</clipPath>
</defs>
</svg>
