<svg width="360" height="372" viewBox="0 0 360 372" fill="none" xmlns="http://www.w3.org/2000/svg">
<g clip-path="url(#clip0)">
<rect width="360" height="372" fill="white"/>
<rect x="-1" y="93" width="81" height="187" rx="8" fill="#F6F8F9"/>
<rect x="-6" y="208.5" width="31" height="17" rx="8.5" fill="#11171C"/>
<path d="M8.09263 216.22C8.27663 215.228 8.27663 214.516 8.27663 213.9V213.34H3.42862V213.876H7.62863V213.9C7.62863 214.532 7.62863 215.228 7.42863 216.22H2.59662V216.748H9.11663V216.22H8.09263ZM4.10863 217.556H3.46063V219.924H8.48463V219.388H4.10863V217.556ZM15.132 212.924V213.98H13.732V214.516H15.132V215.476H13.732V216.004H15.132V217.332H15.788V212.924H15.132ZM13.676 216.3C12.852 216.428 12.156 216.468 10.828 216.468V215.38H13.26V213.348H10.164V213.884H12.62V214.876H10.188V217.004H10.7C12.132 217.004 12.86 216.98 13.74 216.828L13.676 216.3ZM10.988 218.252H15.132V220.1H15.788V217.716H10.988V218.252Z" fill="white"/>
<g clip-path="url(#clip1)">
<path d="M-34.5674 168.43C-30.9038 163.637 -18.0117 164.03 -17.4622 164.049L-8 164.036L1.47483 164.049C2.00542 164.03 14.8975 163.637 18.5611 168.43C18.5674 168.436 18.5737 168.442 18.5737 168.449C18.5864 168.468 18.839 168.848 19.2685 169.563C24.1007 163.548 26.9937 155.9 26.9937 147.581C27 128.208 11.3286 112.5 -8 112.5C-27.3286 112.5 -43 128.208 -43 147.581C-43 155.907 -40.107 163.548 -35.2749 169.563C-34.8453 168.854 -34.5927 168.468 -34.58 168.449C-34.5737 168.449 -34.5674 168.436 -34.5674 168.43Z" fill="#2355F5"/>
<path d="M-8.00001 182.662C3.02868 182.662 12.8572 177.553 19.2748 169.563C18.8453 168.854 18.5927 168.468 18.58 168.449C18.5737 168.442 18.5674 168.436 18.5674 168.43C14.9038 163.637 2.01172 164.03 1.48113 164.049L-7.99369 164.036L-17.4559 164.049C-18.0054 164.03 -30.8975 163.637 -34.5611 168.43C-34.5674 168.436 -34.5737 168.442 -34.5737 168.449C-34.5864 168.468 -34.839 168.848 -35.2686 169.563C-28.8573 177.553 -19.0224 182.662 -8.00001 182.662Z" fill="#11171C"/>
<path d="M-0.729435 149.367H-15.2638L-17.4746 164.454C-17.4746 164.454 -8.0061 173.957 1.47504 164.454L-0.729435 149.367Z" fill="white"/>
<path d="M-0.729435 149.367H-15.2638L-17.4746 164.454C-17.4746 164.454 -8.0061 173.957 1.47504 164.454L-0.729435 149.367Z" stroke="#11171C" stroke-width="1.2796" stroke-miterlimit="10" stroke-linecap="round" stroke-linejoin="round"/>
<path d="M8.06937 138.015C8.06937 135.786 6.28179 133.975 4.06468 133.937C4.04573 127.435 -1.21595 122.174 -7.70305 122.174C-14.2028 122.174 -19.4708 127.454 -19.4708 133.969V134.001C-19.6982 133.963 -19.9319 133.937 -20.1719 133.937C-22.4206 133.937 -24.2461 135.767 -24.2461 138.021C-24.2461 140.275 -22.4206 142.105 -20.1719 142.105C-19.9319 142.105 -19.6982 142.079 -19.4708 142.041V144.865C-19.4708 151.38 -14.2028 156.66 -7.70305 156.66C-1.20332 156.66 4.06468 151.38 4.06468 144.865V142.105C6.28179 142.054 8.06937 140.25 8.06937 138.015Z" fill="white"/>
<path d="M8.06937 138.015C8.06937 135.786 6.28179 133.975 4.06468 133.937C4.04573 127.435 -1.21595 122.174 -7.70305 122.174C-14.2028 122.174 -19.4708 127.454 -19.4708 133.969V134.001C-19.6982 133.963 -19.9319 133.937 -20.1719 133.937C-22.4206 133.937 -24.2461 135.767 -24.2461 138.021C-24.2461 140.275 -22.4206 142.105 -20.1719 142.105C-19.9319 142.105 -19.6982 142.079 -19.4708 142.041V144.865C-19.4708 151.38 -14.2028 156.66 -7.70305 156.66C-1.20332 156.66 4.06468 151.38 4.06468 144.865V142.105C6.28179 142.054 8.06937 140.25 8.06937 138.015Z" stroke="#11171C" stroke-width="1.2796" stroke-miterlimit="10"/>
<path d="M3.90061 136.407C3.90061 136.407 3.40793 137.629 3.90061 139.408" stroke="#11171C" stroke-width="1.2796" stroke-miterlimit="10" stroke-linecap="round" stroke-linejoin="round"/>
<path d="M3.9701 130.974H-20.1465V129.037C-20.1465 127.549 -18.9463 126.346 -17.462 126.346H1.27925C2.76364 126.346 3.96378 127.549 3.96378 129.037V130.974H3.9701Z" fill="white"/>
<path d="M3.9701 130.974H-20.1465V129.037C-20.1465 127.549 -18.9463 126.346 -17.462 126.346H1.27925C2.76364 126.346 3.96378 127.549 3.96378 129.037V130.974H3.9701Z" stroke="#11171C" stroke-width="1.2796" stroke-miterlimit="10" stroke-linecap="round" stroke-linejoin="round"/>
<path d="M-5.31543 135.387C-5.31543 135.387 -2.84566 133.653 -0.704346 135.387" stroke="#11171C" stroke-width="1.2796" stroke-miterlimit="10" stroke-linecap="round" stroke-linejoin="round"/>
</g>
<path d="M-12.424 191.092V190.46H-14.912V189.804H-15.744V190.46H-18.272V191.092H-12.424ZM-12.064 193.868H-14.912V193.396C-13.656 193.332 -12.96 192.988 -12.96 192.372C-12.96 191.668 -13.768 191.332 -15.328 191.332C-16.896 191.332 -17.704 191.668 -17.704 192.372C-17.704 192.988 -17.032 193.332 -15.744 193.396V193.868H-18.6V194.516H-12.064V193.868ZM-16.824 192.372C-16.824 192.06 -16.328 191.908 -15.328 191.908C-14.328 191.908 -13.832 192.06 -13.832 192.372C-13.832 192.684 -14.328 192.844 -15.328 192.844C-16.328 192.844 -16.824 192.684 -16.824 192.372ZM-15.344 194.892C-16.968 194.892 -17.832 195.268 -17.832 196.004C-17.832 196.74 -16.968 197.116 -15.344 197.116C-13.72 197.116 -12.856 196.74 -12.856 196.004C-12.856 195.268 -13.72 194.892 -15.344 194.892ZM-15.344 196.516C-16.44 196.516 -16.984 196.348 -16.984 196.004C-16.984 195.66 -16.44 195.492 -15.344 195.492C-14.248 195.492 -13.696 195.66 -13.696 196.004C-13.696 196.348 -14.248 196.516 -15.344 196.516ZM-6.33662 192.292L-10.7606 192.46L-10.6486 193.156L-6.38462 192.924C-6.42462 193.404 -6.50462 193.916 -6.63262 194.524L-5.81662 194.62C-5.49662 193.084 -5.50462 192.092 -5.50462 191.212V190.548H-10.5526V191.212H-6.32062C-6.32062 191.54 -6.31262 191.9 -6.33662 192.292ZM-4.78462 195.532H-8.04862V193.716H-8.88062V195.532H-11.3206V196.212H-4.78462V195.532ZM1.91875 189.884H1.08675V197.108H1.91875V189.884ZM-1.30525 192.188V191.772H0.26275V191.108H-1.30525V190.036H-2.12925V191.108H-3.72925V191.772H-2.12925V192.188C-2.12925 193.38 -2.81725 194.604 -3.95325 195.116L-3.49725 195.748C-2.65725 195.364 -2.02525 194.588 -1.70525 193.62C-1.37725 194.524 -0.75325 195.268 0.0787501 195.628L0.51875 194.988C-0.60125 194.492 -1.30525 193.332 -1.30525 192.188Z" fill="#11171C"/>
<rect x="-26" y="245" width="88" height="10" fill="#E9EDEF"/>
<rect x="92.5" y="81.5" width="174" height="209" rx="7.5" fill="#F6F8F9" stroke="#2355F5"/>
<rect x="155" y="209.5" width="49" height="16" rx="8" fill="#2D3843"/>
<path d="M169.918 216.81H168.766C168.973 215.694 168.973 214.893 168.973 214.2V213.57H163.519V214.173H168.244V214.2C168.244 214.911 168.244 215.694 168.019 216.81H162.583V217.404H169.918V216.81ZM164.284 220.374V218.313H163.555V220.977H169.207V220.374H164.284ZM177.423 213.102H176.685V214.29H175.11V214.893H176.685V215.973H175.11V216.567H176.685V218.061H177.423V213.102ZM175.119 217.494L175.047 216.9C174.12 217.044 173.337 217.089 171.843 217.089V215.865H174.579V213.579H171.096V214.182H173.859V215.298H171.123V217.692H171.699C173.31 217.692 174.129 217.665 175.119 217.494ZM172.023 218.493V219.096H176.685V221.175H177.423V218.493H172.023ZM184.538 216.54C186.239 216.54 187.364 215.919 187.364 214.92C187.364 213.921 186.239 213.3 184.538 213.3C182.837 213.3 181.712 213.921 181.712 214.92C181.712 215.919 182.837 216.54 184.538 216.54ZM184.538 213.894C185.798 213.894 186.59 214.272 186.59 214.92C186.59 215.541 185.789 215.937 184.538 215.937C183.314 215.937 182.486 215.541 182.486 214.92C182.486 214.281 183.314 213.894 184.538 213.894ZM188.201 217.188H180.884V217.791H184.232V219.42H184.979V217.791H188.201V217.188ZM182.558 220.374V218.628H181.82V220.986H187.4V220.374H182.558ZM196.391 217.08H193.106V216.144H195.536V215.55H190.739V214.056H195.482V213.462H190.001V216.144H192.368V217.08H189.083V217.674H196.391V217.08ZM192.737 218.25C191.009 218.25 189.965 218.772 189.965 219.708C189.965 220.644 191.009 221.166 192.737 221.166C194.447 221.166 195.491 220.644 195.491 219.708C195.491 218.772 194.447 218.25 192.737 218.25ZM192.737 220.59C191.432 220.59 190.712 220.284 190.712 219.708C190.712 219.132 191.432 218.826 192.737 218.826C194.006 218.826 194.744 219.132 194.744 219.708C194.744 220.284 194.006 220.59 192.737 220.59Z" fill="white"/>
<g clip-path="url(#clip2)">
<path d="M154.433 166.43C158.096 161.637 170.988 162.03 171.538 162.049L181 162.036L190.475 162.049C191.005 162.03 203.897 161.637 207.561 166.43C207.567 166.436 207.574 166.442 207.574 166.449C207.586 166.468 207.839 166.848 208.269 167.563C213.101 161.548 215.994 153.9 215.994 145.581C216 126.208 200.329 110.5 181 110.5C161.671 110.5 146 126.208 146 145.581C146 153.907 148.893 161.548 153.725 167.563C154.155 166.854 154.407 166.468 154.42 166.449C154.426 166.449 154.433 166.436 154.433 166.43Z" fill="#2355F5"/>
<path d="M181 180.662C192.029 180.662 201.857 175.553 208.275 167.563C207.845 166.854 207.593 166.468 207.58 166.449C207.574 166.442 207.567 166.436 207.567 166.43C203.904 161.637 191.012 162.03 190.481 162.049L181.006 162.036L171.544 162.049C170.995 162.03 158.102 161.637 154.439 166.43C154.433 166.436 154.426 166.442 154.426 166.449C154.414 166.468 154.161 166.848 153.731 167.563C160.143 175.553 169.978 180.662 181 180.662Z" fill="#11171C"/>
<path d="M188.271 147.367H173.736L171.525 162.454C171.525 162.454 180.994 171.957 190.475 162.454L188.271 147.367Z" fill="white"/>
<path d="M188.271 147.367H173.736L171.525 162.454C171.525 162.454 180.994 171.957 190.475 162.454L188.271 147.367Z" stroke="#11171C" stroke-width="1.2796" stroke-miterlimit="10" stroke-linecap="round" stroke-linejoin="round"/>
<path d="M197.069 136.015C197.069 133.786 195.282 131.975 193.065 131.937C193.046 125.435 187.784 120.174 181.297 120.174C174.797 120.174 169.529 125.454 169.529 131.969V132.001C169.302 131.963 169.068 131.937 168.828 131.937C166.579 131.937 164.754 133.767 164.754 136.021C164.754 138.275 166.579 140.105 168.828 140.105C169.068 140.105 169.302 140.079 169.529 140.041V142.865C169.529 149.38 174.797 154.66 181.297 154.66C187.797 154.66 193.065 149.38 193.065 142.865V140.105C195.282 140.054 197.069 138.25 197.069 136.015Z" fill="white"/>
<path d="M197.069 136.015C197.069 133.786 195.282 131.975 193.065 131.937C193.046 125.435 187.784 120.174 181.297 120.174C174.797 120.174 169.529 125.454 169.529 131.969V132.001C169.302 131.963 169.068 131.937 168.828 131.937C166.579 131.937 164.754 133.767 164.754 136.021C164.754 138.275 166.579 140.105 168.828 140.105C169.068 140.105 169.302 140.079 169.529 140.041V142.865C169.529 149.38 174.797 154.66 181.297 154.66C187.797 154.66 193.065 149.38 193.065 142.865V140.105C195.282 140.054 197.069 138.25 197.069 136.015Z" stroke="#11171C" stroke-width="1.2796" stroke-miterlimit="10"/>
<path d="M169.693 134.407C169.693 134.407 169.858 134.786 169.693 137.408" stroke="#11171C" stroke-width="1.2796" stroke-miterlimit="10" stroke-linecap="round" stroke-linejoin="round"/>
<path d="M192.901 134.407C192.901 134.407 192.408 135.629 192.901 137.408" stroke="#11171C" stroke-width="1.2796" stroke-miterlimit="10" stroke-linecap="round" stroke-linejoin="round"/>
<path d="M177.14 136.895C177.594 136.895 177.962 136.526 177.962 136.072C177.962 135.617 177.594 135.249 177.14 135.249C176.687 135.249 176.319 135.617 176.319 136.072C176.319 136.526 176.687 136.895 177.14 136.895Z" fill="#11171C"/>
<path d="M186.256 136.895C186.709 136.895 187.077 136.526 187.077 136.072C187.077 135.617 186.709 135.249 186.256 135.249C185.802 135.249 185.435 135.617 185.435 136.072C185.435 136.526 185.802 136.895 186.256 136.895Z" fill="#11171C"/>
<path d="M180.912 134.818C181.133 135.394 180.886 139.104 178.991 140.674C177.096 142.245 180.476 142.985 181.625 142.821" stroke="#11171C" stroke-width="1.2796" stroke-miterlimit="10" stroke-linecap="round" stroke-linejoin="round"/>
<path d="M178.43 147.405C178.43 147.405 178.992 148.804 182.7 148.804" stroke="#11171C" stroke-width="1.2796" stroke-miterlimit="10" stroke-linecap="round" stroke-linejoin="round"/>
<path d="M192.97 128.974H168.854V127.037C168.854 125.549 170.054 124.346 171.538 124.346H190.279C191.764 124.346 192.964 125.549 192.964 127.037V128.974H192.97Z" fill="white"/>
<path d="M192.97 128.974H168.854V127.037C168.854 125.549 170.054 124.346 171.538 124.346H190.279C191.764 124.346 192.964 125.549 192.964 127.037V128.974H192.97Z" stroke="#11171C" stroke-width="1.2796" stroke-miterlimit="10" stroke-linecap="round" stroke-linejoin="round"/>
<path d="M174.507 132.419L178.897 133.584" stroke="#11171C" stroke-width="1.2796" stroke-miterlimit="10" stroke-linecap="round" stroke-linejoin="round"/>
<path d="M183.685 133.387C183.685 133.387 186.154 131.653 188.296 133.387" stroke="#11171C" stroke-width="1.2796" stroke-miterlimit="10" stroke-linecap="round" stroke-linejoin="round"/>
</g>
<path d="M176.398 191.416H169.819V190.705H172.663V189.967H173.599V190.705H176.398V191.416ZM176.803 194.539V195.268H169.45V194.539H172.663V194.008C171.937 193.972 171.388 193.858 171.016 193.666C170.644 193.474 170.458 193.204 170.458 192.856C170.458 192.46 170.68 192.166 171.124 191.974C171.574 191.782 172.243 191.686 173.131 191.686C174.013 191.686 174.676 191.782 175.12 191.974C175.57 192.166 175.795 192.46 175.795 192.856C175.795 193.204 175.606 193.474 175.228 193.666C174.85 193.858 174.307 193.972 173.599 194.008V194.539H176.803ZM171.448 192.856C171.448 193.21 172.009 193.387 173.131 193.387C174.253 193.387 174.814 193.21 174.814 192.856C174.814 192.508 174.253 192.334 173.131 192.334C172.009 192.334 171.448 192.508 171.448 192.856ZM173.113 195.691C174.031 195.691 174.727 195.796 175.201 196.006C175.675 196.216 175.912 196.528 175.912 196.942C175.912 197.356 175.675 197.668 175.201 197.878C174.727 198.088 174.031 198.193 173.113 198.193C172.195 198.193 171.499 198.088 171.025 197.878C170.551 197.668 170.314 197.356 170.314 196.942C170.314 196.528 170.551 196.216 171.025 196.006C171.499 195.796 172.195 195.691 173.113 195.691ZM173.113 197.518C174.349 197.518 174.967 197.326 174.967 196.942C174.967 196.558 174.349 196.366 173.113 196.366C171.883 196.366 171.268 196.558 171.268 196.942C171.268 197.326 171.883 197.518 173.113 197.518ZM183.246 192.766C183.258 192.544 183.264 192.334 183.264 192.136C183.264 191.932 183.264 191.737 183.264 191.551H178.503V190.804H184.182V191.551C184.182 191.797 184.179 192.055 184.173 192.325C184.173 192.595 184.161 192.886 184.137 193.198C184.119 193.504 184.086 193.837 184.038 194.197C183.99 194.557 183.921 194.953 183.831 195.385L182.913 195.277C183.057 194.599 183.15 193.999 183.192 193.477L178.395 193.738L178.269 192.955L183.246 192.766ZM184.992 196.411V197.176H177.639V196.411H180.384V194.368H181.32V196.411H184.992ZM192.534 190.057V198.184H191.598V190.057H192.534ZM188.907 192.649C188.907 192.973 188.955 193.294 189.051 193.612C189.147 193.924 189.282 194.221 189.456 194.503C189.636 194.779 189.852 195.031 190.104 195.259C190.362 195.481 190.647 195.661 190.959 195.799L190.464 196.519C189.996 196.315 189.591 196.015 189.249 195.619C188.907 195.223 188.643 194.77 188.457 194.26C188.277 194.806 188.013 195.289 187.665 195.709C187.323 196.123 186.915 196.438 186.441 196.654L185.928 195.943C186.246 195.799 186.531 195.61 186.783 195.376C187.041 195.142 187.257 194.878 187.431 194.584C187.611 194.29 187.746 193.978 187.836 193.648C187.932 193.318 187.98 192.985 187.98 192.649V192.181H186.18V191.434H187.98V190.228H188.907V191.434H190.671V192.181H188.907V192.649Z" fill="#2D3843"/>
<path d="M147.632 240.36V239.38H146.102V238.64H144.812V239.38H143.282V240.36H147.632ZM151.182 243.74V238.65H149.932V243.74H151.182ZM148.192 240.89H147.442V241.92H148.192V243.69H149.412V238.8H148.192V240.89ZM147.382 242.09C147.382 241.18 146.592 240.57 145.472 240.57C144.342 240.57 143.552 241.18 143.552 242.09C143.552 243 144.342 243.62 145.472 243.62C146.592 243.62 147.382 243 147.382 242.09ZM144.702 242.09C144.702 241.69 145.002 241.48 145.472 241.48C145.922 241.48 146.242 241.69 146.242 242.09C146.242 242.5 145.922 242.71 145.472 242.71C145.002 242.71 144.702 242.5 144.702 242.09ZM151.432 246.84H146.242V246.34H151.182V244.06H144.922V245.01H149.882V245.46H144.942V247.79H151.432V246.84ZM160.071 245.44V238.65H158.751V245.44H160.071ZM158.141 243.98L158.011 242.93C156.861 243.14 155.831 243.22 154.201 243.22V242.2H157.131V239.25H152.891V240.31H155.831V241.22H152.901V244.28H153.711C155.661 244.28 156.851 244.22 158.141 243.98ZM160.301 246.65H155.231V244.87H153.911V247.7H160.301V246.65ZM169.161 238.64H167.841V247.88H169.161V238.64ZM164.211 239.29C162.821 239.29 161.791 240.55 161.791 242.57C161.791 244.6 162.821 245.87 164.211 245.87C165.601 245.87 166.631 244.6 166.631 242.57C166.631 240.55 165.601 239.29 164.211 239.29ZM164.211 240.48C164.891 240.48 165.361 241.2 165.361 242.57C165.361 243.94 164.891 244.67 164.211 244.67C163.531 244.67 163.061 243.94 163.061 242.57C163.061 241.2 163.531 240.48 164.211 240.48ZM176.65 239.7V240.15H171.67V242.35H178.11V241.46H172.97V240.98H177.95V238.81H171.65V239.7H176.65ZM178.97 242.79H170.63V243.74H178.97V242.79ZM172.89 246.89V246.39H177.98V244.2H171.57V245.09H176.67V245.56H171.58V247.78H178.23V246.89H172.89ZM189.605 238.65H188.285V247.85H189.605V238.65ZM184.885 242.95C186.275 242.95 187.295 242.14 187.295 240.99C187.295 239.83 186.275 239.02 184.885 239.02C183.495 239.02 182.465 239.83 182.465 240.99C182.465 242.14 183.495 242.95 184.885 242.95ZM184.885 240.09C185.565 240.09 186.035 240.39 186.035 240.99C186.035 241.55 185.565 241.87 184.885 241.87C184.205 241.87 183.735 241.55 183.735 240.99C183.735 240.39 184.205 240.09 184.885 240.09ZM187.845 244.14L187.765 243.18C185.815 243.47 183.525 243.49 181.925 243.49L182.075 244.57C182.725 244.57 183.465 244.56 184.265 244.53V247.58H185.585V244.45C186.345 244.38 187.085 244.29 187.845 244.14ZM198.894 238.64H197.644V242.4H196.944V238.82H195.714V247.47H196.944V243.46H197.644V247.85H198.894V238.64ZM193.854 240.04V238.9H192.554V240.04H190.984V241.09H195.384V240.04H193.854ZM193.204 241.49C192.034 241.49 191.184 242.4 191.184 243.69C191.184 244.97 192.034 245.88 193.204 245.88C194.374 245.88 195.224 244.97 195.224 243.69C195.224 242.4 194.374 241.49 193.204 241.49ZM193.204 244.78C192.694 244.78 192.344 244.38 192.344 243.69C192.344 243 192.694 242.59 193.204 242.59C193.714 242.59 194.064 243 194.064 243.69C194.064 244.38 193.714 244.78 193.204 244.78ZM210.619 241.5H209.289V238.76H208.469V245.33H209.289V242.19H210.619V241.5ZM206.819 243.72V239.57H202.699V243.72H206.819ZM206.019 240.23V243.07H203.499V240.23H206.019ZM204.529 246.87V244.72H203.709V247.54H209.689V246.87H204.529ZM218.609 242.31V241.65H213.269V239.82H218.529V239.15H212.449V242.31H218.609ZM219.539 243.3H211.429V243.96H219.539V243.3ZM213.289 246.86V244.91H212.469V247.53H218.689V246.86H213.289ZM145.935 257.9H144.655C144.885 256.66 144.885 255.77 144.885 255V254.3H138.825V254.97H144.075V255C144.075 255.79 144.075 256.66 143.825 257.9H137.785V258.56H145.935V257.9ZM139.675 261.86V259.57H138.865V262.53H145.145V261.86H139.675ZM154.274 253.78H153.454V255.1H151.704V255.77H153.454V256.97H151.704V257.63H153.454V259.29H154.274V253.78ZM151.714 258.66L151.634 258C150.604 258.16 149.734 258.21 148.074 258.21V256.85H151.114V254.31H147.244V254.98H150.314V256.22H147.274V258.88H147.914C149.704 258.88 150.614 258.85 151.714 258.66ZM148.274 259.77V260.44H153.454V262.75H154.274V259.77H148.274ZM162.18 257.6C164.07 257.6 165.32 256.91 165.32 255.8C165.32 254.69 164.07 254 162.18 254C160.29 254 159.04 254.69 159.04 255.8C159.04 256.91 160.29 257.6 162.18 257.6ZM162.18 254.66C163.58 254.66 164.46 255.08 164.46 255.8C164.46 256.49 163.57 256.93 162.18 256.93C160.82 256.93 159.9 256.49 159.9 255.8C159.9 255.09 160.82 254.66 162.18 254.66ZM166.25 258.32H158.12V258.99H161.84V260.8H162.67V258.99H166.25V258.32ZM159.98 261.86V259.92H159.16V262.54H165.36V261.86H159.98ZM175.349 258.2H171.699V257.16H174.399V256.5H169.069V254.84H174.339V254.18H168.249V257.16H170.879V258.2H167.229V258.86H175.349V258.2ZM171.289 259.5C169.369 259.5 168.209 260.08 168.209 261.12C168.209 262.16 169.369 262.74 171.289 262.74C173.189 262.74 174.349 262.16 174.349 261.12C174.349 260.08 173.189 259.5 171.289 259.5ZM171.289 262.1C169.839 262.1 169.039 261.76 169.039 261.12C169.039 260.48 169.839 260.14 171.289 260.14C172.699 260.14 173.519 260.48 173.519 261.12C173.519 261.76 172.699 262.1 171.289 262.1ZM184.784 254.78V255.84H179.454V258.29H185.814V257.62H180.274V256.47H185.614V254.13H179.424V254.78H184.784ZM186.594 259.88V259.21H178.454V259.88H182.104V262.75H182.924V259.88H186.594ZM194.924 260.44V253.78H194.104V260.44H194.924ZM193.164 258.71L193.074 258.05C191.814 258.26 190.764 258.31 188.894 258.31V257.02H192.104V256.37H188.894V255.14H192.354V254.48H188.074V258.97H188.804C190.754 258.97 191.854 258.92 193.164 258.71ZM195.194 261.87H189.974V259.86H189.154V262.54H195.194V261.87ZM204.003 253.77H203.183V262.76H204.003V253.77ZM199.273 254.46C197.943 254.46 196.993 255.68 196.993 257.59C196.993 259.5 197.943 260.72 199.273 260.72C200.603 260.72 201.553 259.5 201.553 257.59C201.553 255.68 200.603 254.46 199.273 254.46ZM199.273 255.2C200.143 255.2 200.763 256.14 200.763 257.59C200.763 259.05 200.143 259.99 199.273 259.99C198.393 259.99 197.773 259.05 197.773 257.59C197.773 256.14 198.393 255.2 199.273 255.2ZM213.382 253.77H212.602V262.74H213.382V253.77ZM210.822 253.97V257.26H209.692C209.582 255.57 208.872 254.52 207.792 254.52C206.622 254.52 205.872 255.71 205.872 257.63C205.872 259.57 206.622 260.77 207.792 260.77C208.892 260.77 209.612 259.69 209.692 257.93H210.822V262.3H211.602V253.97H210.822ZM207.792 260.01C207.072 260.01 206.622 259.12 206.622 257.63C206.622 256.19 207.072 255.28 207.792 255.28C208.482 255.28 208.952 256.19 208.952 257.63C208.952 259.12 208.512 260.01 207.792 260.01ZM223.001 260.91H220.991V258.48C221.751 258.09 222.171 257.45 222.171 256.64C222.171 255.25 220.821 254.34 218.911 254.34C217.011 254.34 215.651 255.25 215.651 256.64C215.651 257.45 216.091 258.1 216.851 258.49V260.91H214.851V261.59H223.001V260.91ZM218.911 254.98C220.351 254.98 221.391 255.64 221.391 256.64C221.391 257.64 220.351 258.3 218.911 258.3C217.471 258.3 216.441 257.64 216.441 256.64C216.441 255.64 217.471 254.98 218.911 254.98ZM217.671 260.91V258.8C218.061 258.89 218.471 258.94 218.911 258.94C219.321 258.94 219.741 258.89 220.171 258.8V260.91H217.671ZM223.85 261.2V262.14H224.76V261.2H223.85Z" fill="#2D3843"/>
<path d="M125.26 236.382V238.992H127.78V236.364H126.628C126.628 235.428 126.916 234.87 127.816 234.546V233.358C126.322 233.574 125.188 234.834 125.26 236.382ZM128.824 236.382V238.992H131.344V236.364H130.192C130.192 235.428 130.48 234.87 131.38 234.546V233.358C129.868 233.574 128.752 234.87 128.824 236.382Z" fill="#BFC6CD"/>
<path d="M237.524 235.95V233.34H235.004V235.968H236.156C236.156 236.886 235.85 237.462 234.968 237.786V238.974C236.48 238.74 237.596 237.516 237.524 235.95ZM233.96 235.95V233.34H231.44V235.968H232.592C232.592 236.886 232.286 237.462 231.404 237.786V238.974C232.934 238.758 234.032 237.48 233.96 235.95Z" fill="#BFC6CD"/>
<rect x="279" y="93" width="81" height="187" rx="8" fill="#F6F8F9"/>
<path d="M345.117 213.62H343.669V212.9H343.021V213.62H341.565V214.124H345.117V213.62ZM347.661 212.924H347.029V216.932H347.661V212.924ZM344.941 214.804V215.332H345.733V216.884H346.357V213.036H345.733V214.804H344.941ZM344.829 215.604C344.829 214.876 344.221 214.412 343.349 214.412C342.469 214.412 341.861 214.876 341.861 215.604C341.861 216.316 342.469 216.788 343.349 216.788C344.221 216.788 344.829 216.316 344.829 215.604ZM342.437 215.604C342.437 215.156 342.805 214.892 343.349 214.892C343.893 214.892 344.253 215.156 344.253 215.604C344.253 216.052 343.893 216.316 343.349 216.316C342.805 216.316 342.437 216.052 342.437 215.604ZM343.589 219.516V218.836H347.661V217.252H342.925V217.74H347.013V218.364H342.941V220.012H347.917V219.516H343.589ZM355.068 216.524C353.812 216.292 352.452 215.188 352.452 213.972V213.42H351.764V213.972C351.764 215.204 350.404 216.268 349.156 216.524L349.452 217.068C350.524 216.812 351.66 216.044 352.108 214.996C352.556 216.052 353.684 216.812 354.772 217.068L355.068 216.524ZM348.884 218.588V219.132H355.388V218.588H348.884Z" fill="white"/>
<g clip-path="url(#clip3)">
<path d="M339.433 168.43C343.096 163.637 355.988 164.03 356.538 164.049L366 164.036L375.475 164.049C376.005 164.03 388.897 163.637 392.561 168.43C392.567 168.436 392.574 168.442 392.574 168.449C392.586 168.468 392.839 168.848 393.269 169.563C398.101 163.548 400.994 155.9 400.994 147.581C401 128.208 385.329 112.5 366 112.5C346.671 112.5 331 128.208 331 147.581C331 155.907 333.893 163.548 338.725 169.563C339.155 168.854 339.407 168.468 339.42 168.449C339.426 168.449 339.433 168.436 339.433 168.43Z" fill="#2355F5"/>
<path d="M366 182.662C377.029 182.662 386.857 177.553 393.275 169.563C392.845 168.854 392.593 168.468 392.58 168.449C392.574 168.442 392.567 168.436 392.567 168.43C388.904 163.637 376.012 164.03 375.481 164.049L366.006 164.036L356.544 164.049C355.995 164.03 343.102 163.637 339.439 168.43C339.433 168.436 339.426 168.442 339.426 168.449C339.414 168.468 339.161 168.848 338.731 169.563C345.143 177.553 354.978 182.662 366 182.662Z" fill="#11171C"/>
<path d="M373.271 149.367H358.736L356.525 164.454C356.525 164.454 365.994 173.957 375.475 164.454L373.271 149.367Z" fill="white"/>
<path d="M373.271 149.367H358.736L356.525 164.454C356.525 164.454 365.994 173.957 375.475 164.454L373.271 149.367Z" stroke="#11171C" stroke-width="1.2796" stroke-miterlimit="10" stroke-linecap="round" stroke-linejoin="round"/>
<path d="M382.069 138.015C382.069 135.786 380.282 133.975 378.065 133.937C378.046 127.435 372.784 122.174 366.297 122.174C359.797 122.174 354.529 127.454 354.529 133.969V134.001C354.302 133.963 354.068 133.937 353.828 133.937C351.579 133.937 349.754 135.767 349.754 138.021C349.754 140.275 351.579 142.105 353.828 142.105C354.068 142.105 354.302 142.079 354.529 142.041V144.865C354.529 151.38 359.797 156.66 366.297 156.66C372.797 156.66 378.065 151.38 378.065 144.865V142.105C380.282 142.054 382.069 140.25 382.069 138.015Z" fill="white"/>
<path d="M382.069 138.015C382.069 135.786 380.282 133.975 378.065 133.937C378.046 127.435 372.784 122.174 366.297 122.174C359.797 122.174 354.529 127.454 354.529 133.969V134.001C354.302 133.963 354.068 133.937 353.828 133.937C351.579 133.937 349.754 135.767 349.754 138.021C349.754 140.275 351.579 142.105 353.828 142.105C354.068 142.105 354.302 142.079 354.529 142.041V144.865C354.529 151.38 359.797 156.66 366.297 156.66C372.797 156.66 378.065 151.38 378.065 144.865V142.105C380.282 142.054 382.069 140.25 382.069 138.015Z" stroke="#11171C" stroke-width="1.2796" stroke-miterlimit="10"/>
<path d="M354.693 136.407C354.693 136.407 354.858 136.786 354.693 139.408" stroke="#11171C" stroke-width="1.2796" stroke-miterlimit="10" stroke-linecap="round" stroke-linejoin="round"/>
<path d="M377.97 130.974H353.854V129.037C353.854 127.549 355.054 126.346 356.538 126.346H375.279C376.764 126.346 377.964 127.549 377.964 129.037V130.974H377.97Z" fill="white"/>
<path d="M377.97 130.974H353.854V129.037C353.854 127.549 355.054 126.346 356.538 126.346H375.279C376.764 126.346 377.964 127.549 377.964 129.037V130.974H377.97Z" stroke="#11171C" stroke-width="1.2796" stroke-miterlimit="10" stroke-linecap="round" stroke-linejoin="round"/>
<path d="M359.507 134.419L363.897 135.584" stroke="#11171C" stroke-width="1.2796" stroke-miterlimit="10" stroke-linecap="round" stroke-linejoin="round"/>
</g>
<path d="M361.576 191.092V190.46H359.088V189.804H358.256V190.46H355.728V191.092H361.576ZM361.936 193.868H359.088V193.396C360.344 193.332 361.04 192.988 361.04 192.372C361.04 191.668 360.232 191.332 358.672 191.332C357.104 191.332 356.296 191.668 356.296 192.372C356.296 192.988 356.968 193.332 358.256 193.396V193.868H355.4V194.516H361.936V193.868ZM357.176 192.372C357.176 192.06 357.672 191.908 358.672 191.908C359.672 191.908 360.168 192.06 360.168 192.372C360.168 192.684 359.672 192.844 358.672 192.844C357.672 192.844 357.176 192.684 357.176 192.372ZM358.656 194.892C357.032 194.892 356.168 195.268 356.168 196.004C356.168 196.74 357.032 197.116 358.656 197.116C360.28 197.116 361.144 196.74 361.144 196.004C361.144 195.268 360.28 194.892 358.656 194.892ZM358.656 196.516C357.56 196.516 357.016 196.348 357.016 196.004C357.016 195.66 357.56 195.492 358.656 195.492C359.752 195.492 360.304 195.66 360.304 196.004C360.304 196.348 359.752 196.516 358.656 196.516ZM367.663 192.292L363.239 192.46L363.351 193.156L367.615 192.924C367.575 193.404 367.495 193.916 367.367 194.524L368.183 194.62C368.503 193.084 368.495 192.092 368.495 191.212V190.548H363.447V191.212H367.679C367.679 191.54 367.687 191.9 367.663 192.292ZM369.215 195.532H365.951V193.716H365.119V195.532H362.679V196.212H369.215V195.532ZM375.919 189.884H375.087V197.108H375.919V189.884ZM372.695 192.188V191.772H374.263V191.108H372.695V190.036H371.871V191.108H370.271V191.772H371.871V192.188C371.871 193.38 371.183 194.604 370.047 195.116L370.503 195.748C371.343 195.364 371.975 194.588 372.295 193.62C372.623 194.524 373.247 195.268 374.079 195.628L374.519 194.988C373.399 194.492 372.695 193.332 372.695 192.188Z" fill="#11171C"/>
<rect x="298" y="245" width="142" height="10" fill="#E9EDEF"/>
</g>
<defs>
<linearGradient id="paint0_linear" x1="9.5" y1="210.5" x2="9.5" y2="223.5" gradientUnits="userSpaceOnUse">
<stop stop-color="white"/>
<stop offset="1" stop-color="white" stop-opacity="0"/>
</linearGradient>
<linearGradient id="paint1_linear" x1="-7.99978" y1="149.367" x2="-7.99978" y2="168.677" gradientUnits="userSpaceOnUse">
<stop stop-color="white"/>
<stop offset="1" stop-color="white" stop-opacity="0"/>
</linearGradient>
<linearGradient id="paint2_linear" x1="-8.08836" y1="122.174" x2="-8.08836" y2="156.66" gradientUnits="userSpaceOnUse">
<stop stop-color="white"/>
<stop offset="1" stop-color="white" stop-opacity="0"/>
</linearGradient>
<linearGradient id="paint3_linear" x1="-8.08819" y1="126.346" x2="-8.08819" y2="130.974" gradientUnits="userSpaceOnUse">
<stop stop-color="white"/>
<stop offset="1" stop-color="white" stop-opacity="0"/>
</linearGradient>
<linearGradient id="paint4_linear" x1="179.5" y1="209.5" x2="179.5" y2="225.5" gradientUnits="userSpaceOnUse">
<stop stop-color="white"/>
<stop offset="1" stop-color="white" stop-opacity="0"/>
</linearGradient>
<linearGradient id="paint5_linear" x1="181" y1="147.367" x2="181" y2="166.677" gradientUnits="userSpaceOnUse">
<stop stop-color="white"/>
<stop offset="1" stop-color="white" stop-opacity="0"/>
</linearGradient>
<linearGradient id="paint6_linear" x1="180.912" y1="120.174" x2="180.912" y2="154.66" gradientUnits="userSpaceOnUse">
<stop stop-color="white"/>
<stop offset="1" stop-color="white" stop-opacity="0"/>
</linearGradient>
<linearGradient id="paint7_linear" x1="180.912" y1="124.346" x2="180.912" y2="128.974" gradientUnits="userSpaceOnUse">
<stop stop-color="white"/>
<stop offset="1" stop-color="white" stop-opacity="0"/>
</linearGradient>
<linearGradient id="paint8_linear" x1="348.5" y1="210.5" x2="348.5" y2="223.5" gradientUnits="userSpaceOnUse">
<stop stop-color="white"/>
<stop offset="1" stop-color="white" stop-opacity="0"/>
</linearGradient>
<linearGradient id="paint9_linear" x1="366" y1="149.367" x2="366" y2="168.677" gradientUnits="userSpaceOnUse">
<stop stop-color="white"/>
<stop offset="1" stop-color="white" stop-opacity="0"/>
</linearGradient>
<linearGradient id="paint10_linear" x1="365.912" y1="122.174" x2="365.912" y2="156.66" gradientUnits="userSpaceOnUse">
<stop stop-color="white"/>
<stop offset="1" stop-color="white" stop-opacity="0"/>
</linearGradient>
<linearGradient id="paint11_linear" x1="365.912" y1="126.346" x2="365.912" y2="130.974" gradientUnits="userSpaceOnUse">
<stop stop-color="white"/>
<stop offset="1" stop-color="white" stop-opacity="0"/>
</linearGradient>
<linearGradient id="paint12_linear" x1="17.5" y1="92" x2="80" y2="92" gradientUnits="userSpaceOnUse">
<stop stop-color="white"/>
<stop offset="1" stop-color="white" stop-opacity="0"/>
</linearGradient>
<linearGradient id="paint13_linear" x1="377.5" y1="279" x2="440" y2="279" gradientUnits="userSpaceOnUse">
<stop stop-color="white"/>
<stop offset="1" stop-color="white" stop-opacity="0"/>
</linearGradient>
<clipPath id="clip0">
<rect width="360" height="372" fill="white"/>
</clipPath>
<clipPath id="clip1">
<rect width="70" height="77" fill="white" transform="translate(-43 112.5)"/>
</clipPath>
<clipPath id="clip2">
<rect width="70" height="77" fill="white" transform="translate(146 110.5)"/>
</clipPath>
<clipPath id="clip3">
<rect width="70" height="77" fill="white" transform="translate(331 112.5)"/>
</clipPath>
</defs>
</svg>
