<svg width="360" height="372" viewBox="0 0 360 372" fill="none" xmlns="http://www.w3.org/2000/svg">
<rect width="360" height="372" fill="white"/>
<rect width="309" height="228" rx="8" transform="matrix(1 0 0 -1 0 300)" fill="#F6F8F9"/>
<g filter="url(#filter0_d)">
<rect width="132" height="228" rx="8" transform="matrix(1 0 0 -1 177 300)" fill="white"/>
<rect x="0.5" y="-0.5" width="131" height="227" rx="7.5" transform="matrix(1 0 0 -1 177 299)" stroke="#2355F5"/>
</g>
<path d="M218.14 140.4C216.77 140.4 215.78 141.12 215.54 142.65L216.85 142.87C216.86 142.67 216.88 142.52 216.93 142.37C217.09 141.93 217.49 141.55 218.05 141.55C218.7 141.55 219.11 141.91 219.11 142.6C219.11 143.37 218.64 143.97 217.88 144.73L215.37 147.2V148H220.58V146.74H218.18C217.95 146.74 217.71 146.75 217.44 146.82L218.99 145.26C219.73 144.49 220.47 143.62 220.5 142.57C220.5 141.29 219.53 140.4 218.14 140.4ZM229.177 139.65H227.917V143.12H227.097V139.89H225.867V148.47H227.097V144.18H227.917V148.86H229.177V139.65ZM225.267 140.79H221.637V141.84H223.967C223.807 143.63 223.007 144.99 221.167 146.06L221.937 146.98C224.507 145.48 225.267 143.37 225.267 140.79Z" fill="#11171C"/>
<path d="M240.763 143.9H239.483C239.713 142.66 239.713 141.77 239.713 141V140.3H233.653V140.97H238.903V141C238.903 141.79 238.903 142.66 238.653 143.9H232.613V144.56H240.763V143.9ZM234.503 147.86V145.57H233.693V148.53H239.973V147.86H234.503ZM245.772 143.41C247.712 143.41 248.922 142.78 248.922 141.7C248.922 140.62 247.712 139.98 245.772 139.98C243.842 139.98 242.622 140.62 242.622 141.7C242.622 142.78 243.842 143.41 245.772 143.41ZM245.772 140.63C247.222 140.63 248.082 141.02 248.082 141.7C248.082 142.38 247.222 142.77 245.772 142.77C244.322 142.77 243.462 142.38 243.462 141.7C243.462 141.02 244.322 140.63 245.772 140.63ZM247.692 144.75H249.832V144.09H241.722V144.75H243.862V145.89H242.622V146.55H248.012V148.75H248.832V145.89H247.692V144.75ZM246.872 144.75V145.89H244.682V144.75H246.872ZM261.337 144.09V143.41H259.857V139.78H259.037V148.74H259.857V144.09H261.337ZM255.967 142.16V140.55H255.157V142.16C255.157 143.79 254.137 145.5 252.847 146.17L253.337 146.83C254.347 146.27 255.177 145.19 255.567 143.86C255.967 145.1 256.777 146.14 257.737 146.65L258.247 146C256.997 145.36 255.967 143.73 255.967 142.16ZM270.167 144.21H268.167V142.94C268.857 142.66 269.257 142.2 269.257 141.6C269.257 140.56 268.057 139.93 266.107 139.93C264.167 139.93 262.957 140.56 262.957 141.6C262.957 142.21 263.327 142.66 264.057 142.95V144.21H262.047V144.87H270.167V144.21ZM263.797 141.6C263.797 140.95 264.657 140.57 266.107 140.57C267.557 140.57 268.417 140.95 268.417 141.6C268.417 142.24 267.557 142.63 266.107 142.63C264.657 142.63 263.797 142.24 263.797 141.6ZM264.867 144.21V143.16C265.237 143.23 265.657 143.26 266.107 143.26C266.587 143.26 267.007 143.23 267.357 143.16V144.21H264.867ZM266.107 145.54C264.187 145.54 263.037 146.11 263.037 147.14C263.037 148.17 264.187 148.73 266.107 148.73C268.037 148.73 269.177 148.17 269.177 147.14C269.177 146.11 268.037 145.54 266.107 145.54ZM266.107 148.1C264.697 148.1 263.867 147.75 263.867 147.14C263.867 146.53 264.697 146.18 266.107 146.18C267.517 146.18 268.347 146.53 268.347 147.14C268.347 147.75 267.517 148.1 266.107 148.1Z" fill="#2D3843"/>
<path d="M87.19 140.4C85.78 140.4 84.83 141.1 84.54 142.63C84.98 142.7 85.41 142.79 85.84 142.86C85.97 142.14 86.26 141.58 87.11 141.58C87.76 141.58 88.15 141.92 88.14 142.61C88.14 143.25 87.83 143.67 86.51 143.7V144.7C88.07 144.7 88.26 145.18 88.26 145.88C88.26 146.44 87.83 146.99 86.95 146.99C86.24 146.99 85.68 146.28 85.52 145.64L84.3 146.12C84.7 147.43 85.45 148.19 86.97 148.19C88.37 148.19 89.59 147.38 89.62 145.85C89.62 144.97 89.25 144.4 88.37 144.07C89 143.76 89.49 143.26 89.49 142.41C89.52 141.3 88.59 140.43 87.19 140.4ZM98.177 139.65H96.917V143.12H96.097V139.89H94.867V148.47H96.097V144.18H96.917V148.86H98.177V139.65ZM94.267 140.79H90.637V141.84H92.967C92.807 143.63 92.007 144.99 90.167 146.06L90.937 146.98C93.507 145.48 94.267 143.37 94.267 140.79Z" fill="#11171C"/>
<path d="M109.763 143.9H108.483C108.713 142.66 108.713 141.77 108.713 141V140.3H102.653V140.97H107.903V141C107.903 141.79 107.903 142.66 107.653 143.9H101.613V144.56H109.763V143.9ZM103.503 147.86V145.57H102.693V148.53H108.973V147.86H103.503ZM114.772 143.41C116.712 143.41 117.922 142.78 117.922 141.7C117.922 140.62 116.712 139.98 114.772 139.98C112.842 139.98 111.622 140.62 111.622 141.7C111.622 142.78 112.842 143.41 114.772 143.41ZM114.772 140.63C116.222 140.63 117.082 141.02 117.082 141.7C117.082 142.38 116.222 142.77 114.772 142.77C113.322 142.77 112.462 142.38 112.462 141.7C112.462 141.02 113.322 140.63 114.772 140.63ZM116.692 144.75H118.832V144.09H110.722V144.75H112.862V145.89H111.622V146.55H117.012V148.75H117.832V145.89H116.692V144.75ZM115.872 144.75V145.89H113.682V144.75H115.872ZM130.337 144.09V143.41H128.857V139.78H128.037V148.74H128.857V144.09H130.337ZM124.967 142.16V140.55H124.157V142.16C124.157 143.79 123.137 145.5 121.847 146.17L122.337 146.83C123.347 146.27 124.177 145.19 124.567 143.86C124.967 145.1 125.777 146.14 126.737 146.65L127.247 146C125.997 145.36 124.967 143.73 124.967 142.16ZM139.167 144.21H137.167V142.94C137.857 142.66 138.257 142.2 138.257 141.6C138.257 140.56 137.057 139.93 135.107 139.93C133.167 139.93 131.957 140.56 131.957 141.6C131.957 142.21 132.327 142.66 133.057 142.95V144.21H131.047V144.87H139.167V144.21ZM132.797 141.6C132.797 140.95 133.657 140.57 135.107 140.57C136.557 140.57 137.417 140.95 137.417 141.6C137.417 142.24 136.557 142.63 135.107 142.63C133.657 142.63 132.797 142.24 132.797 141.6ZM133.867 144.21V143.16C134.237 143.23 134.657 143.26 135.107 143.26C135.587 143.26 136.007 143.23 136.357 143.16V144.21H133.867ZM135.107 145.54C133.187 145.54 132.037 146.11 132.037 147.14C132.037 148.17 133.187 148.73 135.107 148.73C137.037 148.73 138.177 148.17 138.177 147.14C138.177 146.11 137.037 145.54 135.107 145.54ZM135.107 148.1C133.697 148.1 132.867 147.75 132.867 147.14C132.867 146.53 133.697 146.18 135.107 146.18C136.517 146.18 137.347 146.53 137.347 147.14C137.347 147.75 136.517 148.1 135.107 148.1Z" fill="#2D3843"/>
<rect x="224" y="109" width="37" height="21" rx="10.5" fill="#2355F5"/>
<path d="M238.351 121.91V120.04C240.021 119.93 241.191 119.02 241.191 117.71C241.191 116.28 239.831 115.36 237.941 115.36C236.051 115.36 234.671 116.28 234.671 117.71C234.671 119.02 235.851 119.93 237.521 120.04V121.91H233.871V122.59H242.021V121.91H238.351ZM235.461 117.71C235.461 116.68 236.501 116.01 237.941 116.01C239.371 116.01 240.411 116.68 240.411 117.71C240.411 118.74 239.371 119.41 237.941 119.41C236.501 119.41 235.461 118.74 235.461 117.71ZM250.16 116.91H244.88V114.9H244.07V117.57H250.16V116.91ZM242.97 118.45V119.12H251.11V118.45H242.97ZM244.82 122.03H250.08V119.93H243.98V120.56H249.26V121.42H244V123.62H250.38V122.98H244.82V122.03Z" fill="white"/>
<rect x="93" y="109" width="37" height="21" rx="10.5" fill="#4D5C6A"/>
<path d="M109.451 114.77V118.19H107.501C107.371 116.51 106.491 115.46 105.281 115.46C103.971 115.46 103.041 116.68 103.041 118.59C103.041 120.5 103.971 121.72 105.281 121.72C106.531 121.72 107.421 120.62 107.501 118.86H109.451V123.76H110.271V114.77H109.451ZM105.281 120.99C104.421 120.99 103.821 120.05 103.821 118.59C103.821 117.14 104.421 116.2 105.281 116.2C106.131 116.2 106.731 117.14 106.731 118.59C106.731 120.05 106.131 120.99 105.281 120.99ZM118.81 114.76V123.73H119.6V114.76H118.81ZM117.01 117.99H115.53V118.66H117.01V123.27H117.79V114.97H117.01V117.99ZM114.61 116.49H116.21V115.82H112.12V116.49H113.82V117.3C113.82 118.95 113.13 120.58 111.87 121.33L112.37 121.94C113.26 121.38 113.91 120.35 114.22 119.1C114.53 120.27 115.14 121.2 116.02 121.72L116.52 121.12C115.28 120.42 114.61 118.86 114.61 117.3V116.49Z" fill="white"/>
<circle cx="242" cy="176" r="9" fill="#BFC6CD"/>
<path d="M221 209C221 197.954 229.954 189 241 189H244C255.046 189 264 197.954 264 209V226C264 228.209 262.209 230 260 230H225C222.791 230 221 228.209 221 226V209Z" fill="#BFC6CD"/>
<rect x="228" y="222" width="12" height="44" rx="4" fill="#BFC6CD"/>
<rect x="244" y="222" width="12" height="44" rx="4" fill="#BFC6CD"/>
<path d="M228 237C230.761 237 233 239.239 233 242V249C233 251.761 230.761 254 228 254V237Z" fill="#2355F5"/>
<path d="M256 254C253.239 254 251 251.761 251 249L251 242C251 239.239 253.239 237 256 237L256 254Z" fill="#2355F5"/>
<circle cx="111" cy="176" r="9" fill="#BFC6CD"/>
<path d="M90 209C90 197.954 98.9543 189 110 189H113C124.046 189 133 197.954 133 209V226C133 228.209 131.209 230 129 230H94C91.7909 230 90 228.209 90 226V209Z" fill="#BFC6CD"/>
<rect x="97" y="222" width="12" height="44" rx="4" fill="#BFC6CD"/>
<rect x="113" y="222" width="12" height="44" rx="4" fill="#BFC6CD"/>
<path d="M97 203.5C97 199.358 100.358 196 104.5 196H105.333C106.254 196 107 196.746 107 197.667V201C107 203.209 105.209 205 103 205H98.5C97.6716 205 97 204.328 97 203.5Z" fill="#9AA5AF"/>
<path d="M117 197.667C117 196.746 117.746 196 118.667 196H119.5C123.642 196 127 199.358 127 203.5C127 204.328 126.328 205 125.5 205H121C118.791 205 117 203.209 117 201V197.667Z" fill="#9AA5AF"/>
<rect x="97" y="218" width="30" height="7" rx="3.5" fill="#9AA5AF"/>
<defs>
<filter id="filter0_d" x="162" y="57" width="162" height="258" filterUnits="userSpaceOnUse" color-interpolation-filters="sRGB">
<feFlood flood-opacity="0" result="BackgroundImageFix"/>
<feColorMatrix in="SourceAlpha" type="matrix" values="0 0 0 0 0 0 0 0 0 0 0 0 0 0 0 0 0 0 127 0"/>
<feOffset/>
<feGaussianBlur stdDeviation="7.5"/>
<feColorMatrix type="matrix" values="0 0 0 0 0 0 0 0 0 0 0 0 0 0 0 0 0 0 0.1 0"/>
<feBlend mode="normal" in2="BackgroundImageFix" result="effect1_dropShadow"/>
<feBlend mode="normal" in="SourceGraphic" in2="effect1_dropShadow" result="shape"/>
</filter>
<linearGradient id="paint0_linear" x1="-18.5" y1="104.757" x2="160.5" y2="104.757" gradientUnits="userSpaceOnUse">
<stop stop-color="white"/>
<stop offset="1" stop-color="white" stop-opacity="0"/>
</linearGradient>
<linearGradient id="paint1_linear" x1="66" y1="0" x2="66" y2="228" gradientUnits="userSpaceOnUse">
<stop stop-color="white"/>
<stop offset="1" stop-color="white" stop-opacity="0"/>
</linearGradient>
<linearGradient id="paint2_linear" x1="242.5" y1="112" x2="242.5" y2="127" gradientUnits="userSpaceOnUse">
<stop stop-color="white"/>
<stop offset="1" stop-color="white" stop-opacity="0"/>
</linearGradient>
<linearGradient id="paint3_linear" x1="111.5" y1="112" x2="111.5" y2="127" gradientUnits="userSpaceOnUse">
<stop stop-color="white"/>
<stop offset="1" stop-color="white" stop-opacity="0"/>
</linearGradient>
</defs>
</svg>
