<svg width="182" height="547" viewBox="0 0 182 547" fill="none" xmlns="http://www.w3.org/2000/svg">
<g clip-path="url(#clip0)">
<path d="M53.7898 209.36C58.8698 217.61 65.8498 216.13 65.8498 216.13C77.2698 214.23 75.2998 184.51 75.2998 184.51C73.3198 163.99 63.3598 150.78 63.3598 150.78C68.6098 171.03 51.5998 176.31 51.5998 176.31L51.5198 176.36C51.5998 176.91 52.6698 183.73 53.3498 185.65C53.3498 185.65 54.0198 188.33 54.0898 191.89C54.0898 191.89 53.6798 200.97 51.2998 205.93C52.7998 207.2 53.7898 209.36 53.7898 209.36Z" fill="#2355F5" stroke="black" stroke-width="0.75" stroke-miterlimit="10" stroke-linecap="round" stroke-linejoin="round"/>
<path d="M128.14 209.36C123.06 217.61 116.08 216.13 116.08 216.13C104.66 214.23 106.63 184.51 106.63 184.51C108.61 163.99 118.57 150.78 118.57 150.78C113.32 171.03 130.33 176.31 130.33 176.31L130.41 176.36C130.33 176.91 129.26 183.73 128.58 185.65C128.58 185.65 127.91 188.33 127.84 191.89C127.84 191.89 128.25 200.97 130.63 205.93C129.13 207.2 128.14 209.36 128.14 209.36Z" fill="#2355F5" stroke="black" stroke-width="0.75" stroke-miterlimit="10" stroke-linecap="round" stroke-linejoin="round"/>
<path d="M4.76017 268.1C4.76017 268.1 4.48017 272.89 3.93017 277.13C3.93017 277.13 3.32017 281.15 5.09017 283.91C5.09017 283.91 6.41017 285.73 7.13017 290.74C7.13017 290.74 7.52017 294.05 9.06017 296.47C9.06017 296.47 11.8702 301.65 12.9202 302.53C12.9202 302.53 14.2202 304.22 14.5602 305.83" stroke="black" stroke-width="0.75" stroke-miterlimit="10" stroke-linecap="round" stroke-linejoin="round"/>
<path d="M11.4405 282.92C11.4405 282.92 10.8205 289.86 12.4205 293.11L14.5305 296.98" stroke="black" stroke-width="0.75" stroke-miterlimit="10"/>
<path d="M177.17 268.1C177.17 268.1 177.45 272.89 178 277.13C178 277.13 178.61 281.15 176.84 283.91C176.84 283.91 175.52 285.73 174.8 290.74C174.8 290.74 174.41 294.05 172.87 296.47C172.87 296.47 170.06 301.65 169.01 302.53C169.01 302.53 167.71 304.22 167.37 305.83" stroke="black" stroke-width="0.75" stroke-miterlimit="10" stroke-linecap="round" stroke-linejoin="round"/>
<path d="M170.48 282.92C170.48 282.92 171.1 289.86 169.5 293.11L167.39 296.98" stroke="black" stroke-width="0.75" stroke-miterlimit="10"/>
<path d="M43.7001 543.07C43.7001 543.07 44.6001 538.8 40.3501 540.29" stroke="black" stroke-width="0.75" stroke-miterlimit="10" stroke-linecap="round" stroke-linejoin="round"/>
<path d="M43.5903 540.75C43.5903 540.75 45.9903 539.24 47.2103 541.04C47.2103 541.04 46.8503 542.81 47.2303 543.73" stroke="black" stroke-width="0.75" stroke-miterlimit="10" stroke-linecap="round" stroke-linejoin="round"/>
<path d="M47.2104 541.04C47.2104 541.04 49.3804 540.35 51.4404 540.94C51.4404 540.94 51.0905 541.98 51.3105 543.57" stroke="black" stroke-width="0.75" stroke-miterlimit="10" stroke-linecap="round" stroke-linejoin="round"/>
<path d="M51.4404 540.94C51.4404 540.94 54.4704 542.33 56.7604 540.41C56.7604 540.41 56.2004 541.29 56.4404 543.3" stroke="black" stroke-width="0.75" stroke-miterlimit="10" stroke-linecap="round" stroke-linejoin="round"/>
<path d="M56.7603 540.41C56.7603 540.41 57.0603 539.15 60.1603 539.67C60.1603 539.67 62.1003 540.17 63.4403 538.94C63.4403 538.94 63.6903 538.53 64.4903 538.48" stroke="black" stroke-width="0.75" stroke-miterlimit="10" stroke-linecap="round" stroke-linejoin="round"/>
<path d="M138.22 543.07C138.22 543.07 137.32 538.8 141.57 540.29" stroke="black" stroke-width="0.75" stroke-miterlimit="10" stroke-linecap="round" stroke-linejoin="round"/>
<path d="M138.34 540.75C138.34 540.75 135.94 539.24 134.72 541.04C134.72 541.04 135.08 542.81 134.7 543.73" stroke="black" stroke-width="0.75" stroke-miterlimit="10" stroke-linecap="round" stroke-linejoin="round"/>
<path d="M134.72 541.04C134.72 541.04 132.55 540.35 130.49 540.94C130.49 540.94 130.84 541.98 130.62 543.57" stroke="black" stroke-width="0.75" stroke-miterlimit="10" stroke-linecap="round" stroke-linejoin="round"/>
<path d="M130.49 540.94C130.49 540.94 127.46 542.33 125.17 540.41C125.17 540.41 125.73 541.29 125.49 543.3" stroke="black" stroke-width="0.75" stroke-miterlimit="10" stroke-linecap="round" stroke-linejoin="round"/>
<path d="M125.17 540.41C125.17 540.41 124.87 539.15 121.77 539.67C121.77 539.67 119.83 540.17 118.49 538.94C118.49 538.94 118.24 538.53 117.44 538.48" stroke="black" stroke-width="0.75" stroke-miterlimit="10" stroke-linecap="round" stroke-linejoin="round"/>
<path d="M181.08 275.69C179.51 271.55 178.71 266.55 178.71 266.55C177.85 257.61 175.98 250.19 175.98 250.19C175.12 245.29 174.21 240.09 174.21 240.09C173.59 230.94 170.84 212.71 170.84 212.71C168.36 199.21 159.96 175.41 159.96 175.41C158.82 170.36 157.82 159.37 157.82 159.37C157.1 150.86 153.21 142.98 153.86 134.38C154.28 128.85 153.86 120.56 153.86 120.56C153.07 111.71 147.83 103.95 147.83 103.95C144.17 97.67 133.98 93.17 133.98 93.17C122.36 86.69 112.17 79.87 112.17 79.87C104.41 74.93 106.83 61.28 106.83 61.28C107.23 58.23 108.06 55.83 108.64 54.43C110.69 52.66 110.7 49.65 110.7 49.65C110.61 47.16 111.52 47.54 111.52 47.54C113.88 48.53 115.95 44.1 115.95 44.1C117.45 41.26 116.94 34.39 116.94 34.39C116.34 30.82 114.45 31.94 114.45 31.94C113.16 32.67 113.38 30.78 113.38 30.78V21.51C113.06 12.93 106.63 6.3 106.63 6.3C101.14 0.809996 92.1202 0.369995 92.1202 0.369995H91.4202H91.0602H90.3602C90.3602 0.369995 81.3402 0.809996 75.8502 6.3C75.8502 6.3 69.4102 12.93 69.1002 21.51V30.78C69.1002 30.78 69.3202 32.67 68.0302 31.94C68.0302 31.94 66.1402 30.82 65.5402 34.39C65.5402 34.39 65.0202 41.27 66.5302 44.1C66.5302 44.1 68.5902 48.53 70.9602 47.54C70.9602 47.54 71.8602 47.15 71.7802 49.65C71.7802 49.65 71.7802 51.45 72.7302 53.08H72.6802C72.6802 53.08 74.4702 56.33 75.1102 61.27C75.1102 61.27 77.5302 74.92 69.7702 79.86C69.7702 79.86 59.5802 86.68 47.9602 93.16C47.9602 93.16 37.7702 97.66 34.1102 103.94C34.1102 103.94 28.8702 111.7 28.0802 120.55C28.0802 120.55 27.6602 128.84 28.0802 134.37C28.7302 142.97 24.8402 150.85 24.1202 159.36C24.1202 159.36 23.1202 170.35 21.9802 175.4C21.9802 175.4 13.5902 199.2 11.1002 212.7C11.1002 212.7 8.35022 230.92 7.73022 240.08C7.73022 240.08 6.82022 245.28 5.96022 250.18C5.96022 250.18 4.09022 257.6 3.23022 266.54C3.23022 266.54 2.42022 271.54 0.86022 275.68C0.86022 275.68 -0.39978 280.32 1.21022 283.15C1.21022 283.15 3.48022 287.24 3.89022 292.74C4.03022 293.64 4.24022 294.56 4.69022 295.36C5.18022 296.22 5.85022 296.99 6.35022 297.86C7.01022 298.99 7.40022 300.25 8.04022 301.39C8.57022 302.34 9.22022 303.57 10.1902 304.14C10.1902 304.14 11.5302 305.69 11.9402 306.95C11.9402 306.95 12.8802 308.54 14.1502 307.44C14.1502 307.44 14.8902 306.91 14.5602 305.8C14.5602 305.8 16.8202 306.15 17.4902 303.5C17.4902 303.5 17.9202 301.76 16.5702 300.03C16.5702 300.03 15.1802 298.03 14.5302 296.95C14.5302 296.95 18.2102 294.42 16.3202 290.99C15.0302 289.3 13.8002 287.54 12.7202 285.71C11.9302 284.38 11.2302 283.16 11.3402 281.58C11.4502 280.08 11.8302 278.48 12.7602 277.27C13.7602 275.98 15.4902 275 17.1602 275.33C18.6402 275.63 19.4202 276.93 20.1602 278.11C20.9802 279.41 21.6902 280.79 22.2702 282.22C23.0102 284.02 24.5802 285.94 26.3902 286.69C27.7002 287.24 28.7602 287.02 29.8702 286.24C30.9702 285.47 31.4102 284.32 30.5802 283.15C30.5802 283.15 25.2402 276.91 23.3202 271.6C23.3202 271.6 20.3002 262.76 18.7402 260C18.7402 260 17.1402 255.29 20.5002 249.76C20.5002 249.76 30.6302 230.52 34.9302 221.07C34.9302 221.07 37.9002 214.83 40.5602 207.65C42.7902 201.62 44.8002 194.93 44.6202 190.76C44.2202 181.62 47.7002 171.91 47.7002 171.91L49.3302 167.59C49.3302 167.59 51.0402 174.56 51.5402 176.31C51.5402 176.31 52.6702 183.65 53.3702 185.66C53.3702 185.66 54.0402 188.34 54.1102 191.9C54.1102 191.9 53.7002 201.08 51.2902 206.02C51.2902 206.02 47.4302 216.56 46.7902 219.71C46.7902 219.71 42.9602 239.35 42.5802 240.78C42.5802 240.78 38.8302 264.83 38.2502 270.32C38.2502 270.32 36.7302 287.32 37.9102 298.18C37.9102 298.18 39.6202 326.59 40.2002 332.5C40.2002 332.5 42.2002 347.33 44.4502 359.07C44.4502 359.07 47.2802 369.23 45.5302 383.47C45.5302 383.47 43.5802 402.29 42.2402 413.61C42.2402 413.61 40.9902 430.29 43.2902 441.8C43.2902 441.8 44.8802 451.95 44.9902 455.38C44.9902 455.38 47.5902 473.11 48.5402 481.6C48.5402 481.6 50.1002 492.48 49.4302 500.54C49.4302 500.54 48.8202 513.61 48.0502 518.03C48.0502 518.03 44.0102 529.37 41.2602 533.79C41.2602 533.79 40.0402 535.52 40.2302 540.71C40.2302 540.71 40.1802 543.68 42.4102 543.68C42.4102 543.68 43.8002 543.56 43.8002 542.83C43.8002 542.83 44.4902 544.06 45.7602 544.06C45.7602 544.06 47.1502 544.14 47.1502 543.33C47.1502 543.33 47.8402 545.26 49.3502 545.26C49.3502 545.26 51.3102 545.26 51.3102 543.57C51.3102 543.57 52.1602 545.26 54.0102 545.26C54.0102 545.26 56.4402 545.49 56.4402 543.3C56.4402 543.3 56.9802 546.07 60.9802 546.07C60.9802 546.07 65.3702 546.38 65.3702 542.91C65.3702 542.91 66.1002 538.44 66.9502 536.36C66.9502 536.36 67.4502 533.24 66.2202 530.54C66.2202 530.54 64.7202 528.11 66.5302 524.3C66.5302 524.3 67.7602 521.49 67.5702 517.68C67.5702 517.68 67.6502 508.62 67.9702 505.71C67.9702 505.71 68.8702 500.86 67.6302 498.3C67.6302 498.3 67.3602 477.24 69.5102 464.9C69.5102 464.9 72.3002 444.7 74.4102 435.42C74.4102 435.42 75.8102 425.88 75.4502 416.18C75.4502 416.18 75.0902 408.08 74.3302 403.69C74.3302 403.69 73.5702 393.39 76.1002 387.23C76.1002 387.23 78.3802 380.48 78.2902 374.65C78.2902 374.65 79.3902 360.56 80.3202 354.9C80.3202 354.9 81.8402 333.8 83.4402 327.3C83.4402 327.3 86.6502 304.72 87.4902 291.77C87.4902 291.77 87.2402 276.11 88.4202 272.15C88.4202 272.15 89.2202 269.67 90.9702 269.47C92.7202 269.67 93.5202 272.15 93.5202 272.15C94.7002 276.12 94.4502 291.77 94.4502 291.77C95.2902 304.73 98.5002 327.3 98.5002 327.3C100.1 333.8 101.62 354.9 101.62 354.9C102.55 360.55 103.65 374.65 103.65 374.65C103.57 380.47 105.84 387.23 105.84 387.23C108.37 393.39 107.61 403.69 107.61 403.69C106.85 408.08 106.49 416.18 106.49 416.18C106.13 425.89 107.53 435.42 107.53 435.42C109.64 444.7 112.43 464.9 112.43 464.9C114.58 477.24 114.31 498.3 114.31 498.3C113.07 500.85 113.97 505.71 113.97 505.71C114.29 508.61 114.37 517.68 114.37 517.68C114.18 521.49 115.41 524.3 115.41 524.3C117.22 528.11 115.72 530.54 115.72 530.54C114.49 533.24 114.99 536.36 114.99 536.36C115.84 538.44 116.57 542.91 116.57 542.91C116.57 546.38 120.96 546.07 120.96 546.07C124.97 546.07 125.5 543.3 125.5 543.3C125.5 545.5 127.93 545.26 127.93 545.26C129.78 545.26 130.63 543.57 130.63 543.57C130.63 545.26 132.59 545.26 132.59 545.26C134.09 545.26 134.79 543.33 134.79 543.33C134.79 544.14 136.18 544.06 136.18 544.06C137.45 544.06 138.14 542.83 138.14 542.83C138.14 543.56 139.53 543.68 139.53 543.68C141.76 543.68 141.71 540.71 141.71 540.71C141.9 535.52 140.68 533.79 140.68 533.79C137.93 529.37 133.89 518.03 133.89 518.03C133.12 513.61 132.51 500.54 132.51 500.54C131.83 492.48 133.4 481.6 133.4 481.6C134.34 473.11 136.95 455.38 136.95 455.38C137.06 451.95 138.65 441.8 138.65 441.8C140.95 430.3 139.7 413.61 139.7 413.61C138.36 402.3 136.41 383.47 136.41 383.47C134.66 369.23 137.49 359.07 137.49 359.07C139.74 347.33 141.74 332.5 141.74 332.5C142.32 326.59 144.03 298.18 144.03 298.18C145.21 287.32 143.69 270.32 143.69 270.32C143.11 264.83 139.36 240.78 139.36 240.78C138.97 239.36 135.15 219.71 135.15 219.71C134.51 216.56 130.65 206.02 130.65 206.02C128.23 201.08 127.83 191.9 127.83 191.9C127.9 188.33 128.57 185.66 128.57 185.66C129.28 183.65 130.4 176.31 130.4 176.31C130.9 174.57 132.61 167.59 132.61 167.59L134.24 171.91C134.24 171.91 137.72 181.62 137.32 190.76C137.14 194.94 139.14 201.62 141.38 207.65C144.03 214.82 147.01 221.07 147.01 221.07C151.31 230.52 161.44 249.76 161.44 249.76C164.8 255.29 163.2 260 163.2 260C161.64 262.77 158.62 271.6 158.62 271.6C156.7 276.91 151.36 283.15 151.36 283.15C150.53 284.32 150.97 285.47 152.07 286.24C153.19 287.02 154.24 287.24 155.55 286.69C157.36 285.94 158.93 284.02 159.67 282.22C160.25 280.79 160.96 279.42 161.78 278.11C162.52 276.93 163.31 275.63 164.78 275.33C166.45 274.99 168.18 275.97 169.18 277.27C170.12 278.48 170.49 280.08 170.6 281.58C170.72 283.16 170.01 284.38 169.22 285.71C168.14 287.54 166.91 289.3 165.62 290.99C163.74 294.42 167.41 296.95 167.41 296.95C166.76 298.03 165.37 300.03 165.37 300.03C164.02 301.77 164.45 303.5 164.45 303.5C165.13 306.15 167.38 305.8 167.38 305.8C167.05 306.9 167.79 307.44 167.79 307.44C169.06 308.54 170 306.95 170 306.95C170.41 305.68 171.75 304.14 171.75 304.14C172.72 303.57 173.37 302.34 173.9 301.39C174.54 300.25 174.93 298.99 175.59 297.86C176.09 296.99 176.76 296.22 177.25 295.36C177.7 294.56 177.91 293.64 178.05 292.74C178.45 287.24 180.73 283.15 180.73 283.15C182.34 280.33 181.08 275.69 181.08 275.69Z" stroke="black" stroke-width="0.75" stroke-miterlimit="10" stroke-linecap="round" stroke-linejoin="round"/>
</g>
<defs>
<clipPath id="clip0">
<rect width="181.92" height="546.45" fill="white"/>
</clipPath>
</defs>
</svg>
