<svg width="360" height="40" viewBox="0 0 360 40" fill="none" xmlns="http://www.w3.org/2000/svg">
<rect x="16" y="8" width="24" height="24" rx="12" fill="#BFC6CD"/>
<path d="M26.3218 18.048L27.7618 16.836C27.7498 17.04 27.7498 17.244 27.7498 17.436V22.848H25.9018V24H30.7378V22.848H29.0698V15.108H27.9898L25.5898 17.16L26.3218 18.048Z" fill="white"/>
<path d="M53.564 19.68V14.076H52.316V19.68H53.564ZM51.44 18.972L51.38 18.084C50.912 18.144 50.432 18.192 49.94 18.228V15.756H50.9V14.772H45.08V15.756H46.064V18.372C45.62 18.384 45.188 18.384 44.792 18.384L44.924 19.392C46.808 19.392 49.304 19.32 51.44 18.972ZM47.252 18.348V15.756H48.74V18.3C48.248 18.336 47.732 18.336 47.252 18.348ZM53.924 23.856H47.636V22.908H53.564V20.172H46.388V21.132H52.34V22.008H46.4V24.828H53.924V23.856ZM64.4231 19.08L64.9031 18.084C62.7191 17.76 61.0871 16.428 61.0871 15.012V14.436H59.7791V15.012C59.7791 16.44 58.1711 17.76 55.9631 18.084L56.4431 19.08C58.2791 18.792 59.7191 17.892 60.4391 16.632C61.1591 17.88 62.5871 18.792 64.4231 19.08ZM65.3231 21.108V20.1H55.5311V21.108H59.7791V24.936H61.0151V21.108H65.3231Z" fill="#BFC6CD"/>
<rect width="12" height="1" transform="translate(70 19.5)" fill="#BFC6CD"/>
<rect x="86" y="8" width="24" height="24" rx="12" fill="#2355F5"/>
<path d="M100.99 24V22.824H97.9178C97.5338 22.824 97.1378 22.896 96.7658 22.992L99.0218 20.712C99.9098 19.824 100.834 18.876 100.834 17.532C100.834 15.924 99.6098 15.036 98.1218 15.036C96.4778 15.036 95.3738 15.984 95.1458 17.568L96.4658 17.808C96.3938 16.86 97.1018 16.164 98.0498 16.164C99.7538 16.164 99.6818 17.844 99.0818 18.924C98.7698 19.416 98.3858 19.824 97.9778 20.232L94.9898 23.232V24H100.99Z" fill="white"/>
<path d="M122.352 17.544V22.152H123.588V14.088H122.352V16.524H120.156V17.544H122.352ZM120.348 20.448L121.008 19.488C119.388 18.912 118.476 17.472 118.476 16.032V14.748H117.216V16.008C117.216 17.616 116.28 19.128 114.588 19.74L115.248 20.7C116.496 20.22 117.396 19.26 117.876 18.048C118.344 19.152 119.184 20.016 120.348 20.448ZM123.84 23.712H117.78V21.3H116.532V24.72H123.84V23.712ZM134.699 14.088H133.523V16.836H132.323V14.292H131.171V20.604H132.323V17.844H133.523V20.676H134.699V14.088ZM130.631 19.908L130.499 18.9C129.443 19.092 128.507 19.164 127.139 19.164V17.952H130.043V16.992H127.139V15.852H130.163V14.856H125.939V20.172H126.671C128.363 20.172 129.383 20.136 130.631 19.908ZM127.343 21.204V22.2H133.463V24.936H134.699V21.204H127.343Z" fill="#2355F5"/>
<defs>
<linearGradient id="paint0_linear" x1="28" y1="12" x2="28" y2="28" gradientUnits="userSpaceOnUse">
<stop stop-color="white"/>
<stop offset="1" stop-color="white" stop-opacity="0"/>
</linearGradient>
<linearGradient id="paint1_linear" x1="98" y1="12" x2="98" y2="28" gradientUnits="userSpaceOnUse">
<stop stop-color="white"/>
<stop offset="1" stop-color="white" stop-opacity="0"/>
</linearGradient>
</defs>
</svg>
