<svg width="184" height="534" viewBox="0 0 184 534" fill="none" xmlns="http://www.w3.org/2000/svg">
<g clip-path="url(#clip0)">
<path d="M75.0001 56.97C75.0001 56.97 73.3101 54.91 72.5101 48.99C72.5101 48.99 72.8401 47.26 70.5201 47.06C70.5201 47.06 68.9301 46.59 67.5301 42.81C67.5301 42.81 63.2101 32.78 67.0001 30.38C67.0001 30.38 67.8501 29.76 68.5501 30.74C68.5501 30.74 69.4801 31.96 69.0101 27.6C69.0101 27.6 67.0301 8.96997 81.9701 2.34997C81.9701 2.34997 89.9901 -1.83003 100.39 2.34997C100.39 2.34997 114.73 6.99997 114.73 26.34C114.73 26.34 114.3 31.3 115.71 31.35C115.71 31.35 117.12 30.66 117.44 31.75C117.44 31.75 119.88 35.09 115.96 44.39C115.96 44.39 114.74 47.21 112.62 47.86C112.62 47.86 110.95 47.99 110.89 50.3C110.89 50.3 110.22 55.01 108.53 57.31" stroke="#2D3843" stroke-miterlimit="10"/>
<path d="M74.9501 57.1199C74.9501 57.1199 83.4501 52.8699 89.3001 58.7099C89.3001 58.7099 94.7701 62.8099 88.3801 70.3699C88.3801 70.3699 76.8401 81.5899 81.9901 89.8599C81.9901 89.8599 87.7601 100.07 91.5801 102.88C91.5801 102.88 99.3001 95.7099 102.57 87.5199C102.57 87.5199 104.67 81.9899 98.9801 75.2799C98.9801 75.2799 82.9201 60.9799 98.7501 55.8699C98.7501 55.8699 105.09 54.3199 108.48 57.4599C108.48 57.4599 107.22 68.1299 109.86 71.4599C109.86 71.4599 111.08 74.8899 122.56 80.9099C122.56 80.9099 136.98 88.7299 143.19 94.3499C143.19 94.3499 135.71 100.44 115.8 104.21C115.8 104.21 112.29 105 112.16 107.91C112.16 107.91 111.58 136.28 101.91 150.85C101.91 150.85 95.8801 158.02 91.8901 161.32C91.8901 161.32 84.6501 156.9 80.6501 149.31C80.6501 149.31 72.5501 138.22 71.0601 108.53C71.0601 108.53 71.6101 104.83 66.8301 104.23C66.8301 104.23 46.2101 99.6499 39.6401 94.2199C39.6401 94.2199 49.3401 86.8999 62.3401 79.6199C62.3401 79.6199 74.2701 74.3799 75.0501 66.8099C75.0501 66.8199 74.9701 60.7099 74.9501 57.1199Z" stroke="#2D3843" stroke-miterlimit="10"/>
<path d="M39.85 94.0601C39.85 94.0601 37.15 95.8001 35.52 97.7501C35.52 97.7501 39.87 101.02 45.89 102.83C45.89 102.83 61.73 105.87 62.26 110.13C62.26 110.13 63.06 112.05 62.1 114.61C62.1 114.61 68.23 113.44 71.48 116.05L71.05 110.61C71.05 110.61 71.58 104.64 67.8 104.37C67.8 104.38 46.66 100.22 39.85 94.0601Z" stroke="#2D3843" stroke-miterlimit="10"/>
<path d="M143.13 94.3701C143.13 94.3701 145.83 96.1101 147.46 98.0601C147.46 98.0601 143.11 101.33 137.09 103.14C137.09 103.14 121.25 106.18 120.72 110.44C120.72 110.44 119.92 112.36 120.88 114.92C120.88 114.92 114.75 113.75 111.5 116.36L111.93 110.92C111.93 110.92 111.4 104.95 115.18 104.68C115.18 104.69 136.32 100.53 143.13 94.3701Z" stroke="#2D3843" stroke-miterlimit="10"/>
<path d="M35.5601 97.77C35.5601 97.77 26.5401 105.62 26.5901 119.51L26.6701 126.78C26.6701 126.78 27.1301 127.47 28.2701 126.63C28.2701 126.63 34.1401 122.44 47.0901 120.54C47.0901 120.54 61.1801 119.09 62.4001 113.53C62.4001 113.53 63.8501 109.11 58.9001 106.98C58.9001 106.98 52.5801 104.16 44.7301 102.64C44.7201 102.62 37.6701 100.22 35.5601 97.77Z" stroke="#2D3843" stroke-miterlimit="10"/>
<path d="M147.44 97.9199C147.44 97.9199 156.46 105.77 156.41 119.66L156.33 126.93C156.33 126.93 155.87 127.62 154.73 126.78C154.73 126.78 148.86 122.59 135.91 120.69C135.91 120.69 121.82 119.24 120.6 113.68C120.6 113.68 119.15 109.26 124.1 107.13C124.1 107.13 130.42 104.31 138.27 102.79C138.28 102.77 145.33 100.37 147.44 97.9199Z" stroke="#2D3843" stroke-miterlimit="10"/>
<path d="M26.6998 127.09C26.6998 127.09 27.2198 134.62 24.8198 142.31C24.8198 142.31 21.5398 153.34 21.3398 159.83C21.3398 159.83 22.8098 168.59 24.9498 171.87C24.9498 171.87 27.2198 180.23 26.8198 184.31C26.4198 188.39 29.6298 188.46 29.6298 188.46C29.6298 188.46 37.2498 164.05 40.1998 158.97C40.1998 158.97 45.8798 151.01 46.8198 148.34C46.8198 148.34 52.9698 137.51 53.4398 135.5C53.4398 135.5 52.3698 130.42 50.2998 128.14C50.2998 128.14 46.8198 122.26 46.6898 120.85C46.6898 120.85 35.8698 122.2 28.3098 126.94C28.2998 126.94 27.4498 127.39 26.6998 127.09Z" stroke="#2D3843" stroke-miterlimit="10"/>
<path d="M156.52 127.09C156.52 127.09 156 134.62 158.4 142.31C158.4 142.31 161.68 153.34 161.88 159.83C161.88 159.83 160.41 168.59 158.27 171.87C158.27 171.87 156 180.23 156.4 184.31C156.8 188.39 153.59 188.46 153.59 188.46C153.59 188.46 145.97 164.05 143.02 158.97C143.02 158.97 137.34 151.01 136.4 148.34C136.4 148.34 130.25 137.51 129.78 135.5C129.78 135.5 130.85 130.42 132.92 128.14C132.92 128.14 136.4 122.26 136.53 120.85C136.53 120.85 147.35 122.2 154.91 126.94C154.92 126.94 155.77 127.39 156.52 127.09Z" stroke="#2D3843" stroke-miterlimit="10"/>
<path d="M53.4101 135.48C53.4101 135.48 54.6401 133.55 57.6901 129.44C57.6901 129.44 60.3301 123.75 60.3301 119.18C60.3301 119.18 60.3901 115.96 61.7401 114.9C61.7401 114.9 60.8601 118.36 46.6201 120.88C46.6201 120.88 48.9101 126.04 50.2001 127.8C50.1901 127.8 51.8901 129.68 53.4101 135.48Z" stroke="#2D3843" stroke-miterlimit="10"/>
<path d="M129.74 135.48C129.74 135.48 128.51 133.55 125.46 129.44C125.46 129.44 122.82 123.75 122.82 119.18C122.82 119.18 122.76 115.96 121.41 114.9C121.41 114.9 122.29 118.36 136.53 120.88C136.53 120.88 134.24 126.04 132.95 127.8C132.96 127.8 131.26 129.68 129.74 135.48Z" stroke="#2D3843" stroke-miterlimit="10"/>
<path d="M21.3798 159.5C21.3798 159.5 19.0098 184.89 14.7598 192.69C14.7598 192.69 19.1798 187.88 21.1498 187.49C21.1498 187.49 26.1998 185.91 26.4298 178.82C26.4298 178.82 25.2498 173.22 25.0898 172.12C25.0798 172.12 22.9498 169.79 21.3798 159.5Z" stroke="#2D3843" stroke-miterlimit="10" stroke-linecap="round" stroke-linejoin="round"/>
<path d="M161.96 159.5C161.96 159.5 164.33 184.89 168.58 192.69C168.58 192.69 164.16 187.88 162.19 187.49C162.19 187.49 157.14 185.91 156.91 178.82C156.91 178.82 158.09 173.22 158.25 172.12C158.26 172.12 160.38 169.79 161.96 159.5Z" stroke="#2D3843" stroke-miterlimit="10" stroke-linecap="round" stroke-linejoin="round"/>
<path d="M39.5 161.14C39.5 161.14 39.85 174.02 41.12 176.35C41.12 176.35 43.72 181.07 44.01 179.73C44.01 179.73 47.88 164.87 50.35 158.54C50.35 158.54 53.45 152.2 53.52 145.37L53.83 134.97C53.83 134.97 50.7 141.99 47.39 147.55C47.39 147.55 44.64 152.97 41.19 157.48C41.19 157.48 39.92 159.45 39.5 161.14Z" stroke="#2D3843" stroke-miterlimit="10" stroke-linecap="round" stroke-linejoin="round"/>
<path d="M144.12 161.6C144.12 161.6 143.77 174.48 142.5 176.81C142.5 176.81 139.9 181.53 139.61 180.19C139.61 180.19 135.74 165.33 133.27 159C133.27 159 130.17 152.66 130.1 145.83L129.79 135.43C129.79 135.43 132.92 142.45 136.23 148.01C136.23 148.01 138.98 153.43 142.43 157.94C142.43 157.94 143.7 159.91 144.12 161.6Z" stroke="#2D3843" stroke-miterlimit="10" stroke-linecap="round" stroke-linejoin="round"/>
<path d="M15.3101 191.66C15.3101 191.66 8.4101 209.36 6.8501 230.85L4.8501 249.78C4.8501 249.78 8.6801 245.37 9.7801 243.27C9.7801 243.27 12.3601 240.26 13.7201 230.02C13.7201 230.02 18.8401 203.38 20.9801 195.67C20.9801 195.67 23.1801 189.84 23.3801 186.21C23.3801 186.21 22.2101 187.31 20.6601 187.7C20.6401 187.69 17.5501 189.53 15.3101 191.66Z" stroke="#2D3843" stroke-miterlimit="10" stroke-linecap="round" stroke-linejoin="round"/>
<path d="M168.2 191.66C168.2 191.66 175.1 209.36 176.66 230.85L178.66 249.78C178.66 249.78 174.83 245.37 173.73 243.27C173.73 243.27 171.15 240.26 169.79 230.02C169.79 230.02 164.67 203.38 162.53 195.67C162.53 195.67 160.33 189.84 160.13 186.21C160.13 186.21 161.3 187.31 162.85 187.7C162.86 187.69 165.96 189.53 168.2 191.66Z" stroke="#2D3843" stroke-miterlimit="10" stroke-linecap="round" stroke-linejoin="round"/>
<path d="M29.66 188.59C29.66 188.59 23.73 213.55 20.65 232.7C20.65 232.7 15.29 254.36 16.32 259.49C16.32 259.49 16.92 267.81 20.15 267.53C20.15 267.53 22.01 264.58 20.7 262.55C20.7 262.55 17.53 259.38 18.57 253.97C18.57 253.97 21.97 244.27 27.93 231.66C27.93 231.66 39.77 206.78 42.45 194.07C42.45 194.07 43.57 185.17 43.75 179.9C43.75 179.9 40.55 177.65 40.12 171.61L39.43 160.81C39.41 160.81 32 180.6 29.66 188.59Z" stroke="#2D3843" stroke-miterlimit="10" stroke-linecap="round" stroke-linejoin="round"/>
<path d="M153.82 189.35C153.82 189.35 159.75 214.31 162.83 233.46C162.83 233.46 168.19 255.12 167.16 260.25C167.16 260.25 166.56 268.57 163.33 268.29C163.33 268.29 161.47 265.34 162.78 263.31C162.78 263.31 165.95 260.14 164.91 254.73C164.91 254.73 161.51 245.03 155.55 232.42C155.55 232.42 143.71 207.54 141.03 194.83C141.03 194.83 139.91 185.93 139.73 180.66C139.73 180.66 142.93 178.41 143.36 172.37L144.05 161.57C144.07 161.57 151.48 181.36 153.82 189.35Z" stroke="#2D3843" stroke-miterlimit="10" stroke-linecap="round" stroke-linejoin="round"/>
<path d="M4.8999 249.3L4.3999 252.94C4.3999 252.94 15.7799 248.08 18.6699 241.37" stroke="#2D3843" stroke-miterlimit="10" stroke-linecap="round" stroke-linejoin="round"/>
<path d="M178.49 249.31L178.86 252.94C178.86 252.94 167.48 248.08 164.59 241.37" stroke="#2D3843" stroke-miterlimit="10" stroke-linecap="round" stroke-linejoin="round"/>
<path d="M162.6 263.73C162.6 263.73 159.63 267.77 158.05 271.24C158.05 271.24 153.46 278.99 151 281.91C151 281.91 148.96 283.49 150.77 284.97C150.77 284.97 154.9 288.63 158.38 281.77C158.38 281.77 161.86 273.79 165.38 275C165.38 275 170.48 275.7 170.76 281.68C170.76 281.68 171.04 288.31 170.34 290.96" stroke="#2D3843" stroke-miterlimit="10" stroke-linecap="round" stroke-linejoin="round"/>
<path d="M175.91 280.52C175.91 280.52 175.31 283.67 174.15 285.81C174.15 285.81 171 290.68 169.93 291.47C169.93 291.47 167.84 292.91 169.05 295.83C169.05 295.83 171.42 300 173.41 295.51C173.41 295.51 176.7 290.45 177.91 289.06C177.91 289.06 180.41 281.92 181.48 280.99" stroke="#2D3843" stroke-miterlimit="10" stroke-linecap="round" stroke-linejoin="round"/>
<path d="M168.67 294.95C168.67 294.95 166.21 298.01 165.05 300.01C165.05 300.01 163.61 302.65 165.14 304.51C165.14 304.51 166.39 306.46 167.88 305.48" stroke="#2D3843" stroke-miterlimit="10" stroke-linecap="round" stroke-linejoin="round"/>
<path d="M170.44 297.31C170.44 297.31 166.87 301.21 168.31 303.71C168.31 303.71 170.26 307.05 172.3 303.39C172.3 303.39 176.61 296.2 178.24 294.99" stroke="#2D3843" stroke-miterlimit="10" stroke-linecap="round" stroke-linejoin="round"/>
<path d="M168.49 304.23C168.49 304.23 167.61 305.39 168.77 307.06C168.77 307.06 171.14 310.45 172.71 306.55C172.71 306.55 176.37 300.94 177.91 298.48C177.91 298.48 179.63 296.76 179.9 292.03C179.9 292.03 180.04 287.72 183.29 281.69C183.29 281.69 183.8 277 182.59 273.39C182.59 273.39 179.16 259.94 178.79 252.38" stroke="#2D3843" stroke-miterlimit="10" stroke-linecap="round" stroke-linejoin="round"/>
<path d="M162.6 263.73C162.6 263.73 159.63 267.77 158.05 271.24C158.05 271.24 153.46 278.99 151 281.91C151 281.91 148.96 283.49 150.77 284.97C150.77 284.97 154.9 288.63 158.38 281.77C158.38 281.77 161.86 273.79 165.38 275C165.38 275 170.48 275.7 170.76 281.68C170.76 281.68 171.04 288.31 170.34 290.96" stroke="#2D3843" stroke-miterlimit="10" stroke-linecap="round" stroke-linejoin="round"/>
<path d="M175.91 280.52C175.91 280.52 175.31 283.67 174.15 285.81C174.15 285.81 171 290.68 169.93 291.47C169.93 291.47 167.84 292.91 169.05 295.83C169.05 295.83 171.42 300 173.41 295.51C173.41 295.51 176.7 290.45 177.91 289.06C177.91 289.06 180.41 281.92 181.48 280.99" stroke="#2D3843" stroke-miterlimit="10" stroke-linecap="round" stroke-linejoin="round"/>
<path d="M168.67 294.95C168.67 294.95 166.21 298.01 165.05 300.01C165.05 300.01 163.61 302.65 165.14 304.51C165.14 304.51 166.39 306.46 167.88 305.48" stroke="#2D3843" stroke-miterlimit="10" stroke-linecap="round" stroke-linejoin="round"/>
<path d="M170.44 297.31C170.44 297.31 166.87 301.21 168.31 303.71C168.31 303.71 170.26 307.05 172.3 303.39C172.3 303.39 176.61 296.2 178.24 294.99" stroke="#2D3843" stroke-miterlimit="10" stroke-linecap="round" stroke-linejoin="round"/>
<path d="M168.49 304.23C168.49 304.23 167.61 305.39 168.77 307.06C168.77 307.06 171.14 310.45 172.71 306.55C172.71 306.55 176.37 300.94 177.91 298.48C177.91 298.48 179.63 296.76 179.9 292.03C179.9 292.03 180.04 287.72 183.29 281.69C183.29 281.69 183.8 277 182.59 273.39C182.59 273.39 179.16 259.94 178.79 252.38" stroke="#2D3843" stroke-miterlimit="10" stroke-linecap="round" stroke-linejoin="round"/>
<path d="M21.3003 264.05C21.3003 264.05 24.2703 268.09 25.8503 271.56C25.8503 271.56 30.4403 279.31 32.9003 282.23C32.9003 282.23 34.9403 283.81 33.1303 285.29C33.1303 285.29 29.0003 288.95 25.5203 282.09C25.5203 282.09 22.0403 274.11 18.5203 275.32C18.5203 275.32 13.4203 276.02 13.1403 282C13.1403 282 12.8603 288.63 13.5603 291.28" stroke="#2D3843" stroke-miterlimit="10" stroke-linecap="round" stroke-linejoin="round"/>
<path d="M7.98016 280.84C7.98016 280.84 8.58016 283.99 9.74016 286.13C9.74016 286.13 12.8902 291 13.9602 291.79C13.9602 291.79 16.0502 293.23 14.8402 296.15C14.8402 296.15 12.4702 300.32 10.4802 295.83C10.4802 295.83 7.19016 290.77 5.98016 289.38C5.98016 289.38 3.48016 282.24 2.41016 281.31" stroke="#2D3843" stroke-miterlimit="10" stroke-linecap="round" stroke-linejoin="round"/>
<path d="M15.2202 295.27C15.2202 295.27 17.6802 298.33 18.8402 300.33C18.8402 300.33 20.2802 302.97 18.7502 304.83C18.7502 304.83 17.5002 306.78 16.0102 305.8" stroke="#2D3843" stroke-miterlimit="10" stroke-linecap="round" stroke-linejoin="round"/>
<path d="M13.4602 297.63C13.4602 297.63 17.0302 301.53 15.5902 304.03C15.5902 304.03 13.6402 307.37 11.6002 303.71C11.6002 303.71 7.29016 296.52 5.66016 295.31" stroke="#2D3843" stroke-miterlimit="10" stroke-linecap="round" stroke-linejoin="round"/>
<path d="M15.4101 304.54C15.4101 304.54 16.2901 305.7 15.1301 307.37C15.1301 307.37 12.7601 310.76 11.1901 306.86C11.1901 306.86 7.53012 301.25 5.99012 298.79C5.99012 298.79 4.27012 297.07 4.00012 292.34C4.00012 292.34 3.86012 288.03 0.610117 282C0.610117 282 0.100117 277.31 1.31012 273.7C1.31012 273.7 4.04012 260.51 4.41012 252.94" stroke="#2D3843" stroke-miterlimit="10" stroke-linecap="round" stroke-linejoin="round"/>
<path d="M68.22 508.06C71.41 508.76 71.72 512.49 71.72 512.49C72.26 519.25 68.92 520.88 68.92 520.88C67.37 521.66 66.28 527.56 66.28 527.56C64.73 535.17 55.4 532.53 55.4 532.53C50.35 531.91 49.11 525.23 49.11 525.23C46.86 523.6 46.39 520.57 46.39 520.57C46.08 515.99 49.03 514.28 49.03 514.28L49.34 495.56C49.34 495.56 55.32 509.47 58.2 509.93C58.2 509.93 62.24 510.78 62.94 507.68C62.94 507.68 66.36 494.86 68.22 495.33C68.22 495.33 68.76 504.96 68.06 509.62C68.06 509.62 68.68 516.69 67.59 517.78" stroke="#2D3843" stroke-miterlimit="10" stroke-linecap="round" stroke-linejoin="round"/>
<path d="M115.26 508.06C112.07 508.76 111.76 512.49 111.76 512.49C111.22 519.25 114.56 520.88 114.56 520.88C116.11 521.66 117.2 527.56 117.2 527.56C118.75 535.17 128.08 532.53 128.08 532.53C133.13 531.91 134.37 525.23 134.37 525.23C136.62 523.6 137.09 520.57 137.09 520.57C137.4 515.99 134.45 514.28 134.45 514.28L134.14 495.56C134.14 495.56 128.16 509.47 125.28 509.93C125.28 509.93 121.24 510.78 120.54 507.68C120.54 507.68 117.12 494.86 115.26 495.33C115.26 495.33 114.72 504.96 115.42 509.62C115.42 509.62 114.8 516.69 115.89 517.78" stroke="#2D3843" stroke-miterlimit="10" stroke-linecap="round" stroke-linejoin="round"/>
<path d="M53.5801 135.24L54.7901 133.4C54.7901 133.4 68.1001 136.36 74.1501 145.87C74.1501 145.87 70.2301 144.2 66.2201 144.24C66.2201 144.24 54.4501 142.36 53.5801 139.19V135.24Z" stroke="#2D3843" stroke-miterlimit="10" stroke-linecap="round" stroke-linejoin="round"/>
<path d="M129.83 135.43L128.62 133.59C128.62 133.59 115.31 136.55 109.26 146.06C109.26 146.06 113.18 144.39 117.19 144.43C117.19 144.43 128.96 142.55 129.83 139.38V135.43V135.43Z" stroke="#2D3843" stroke-miterlimit="10" stroke-linecap="round" stroke-linejoin="round"/>
<path d="M49.8101 159.7C49.8101 159.7 55.8701 161.14 68.0401 159.6C68.0401 159.6 81.2001 158.56 82.1401 154.98C82.1401 154.98 78.3201 148.77 73.7001 145.59C73.7001 145.59 69.7801 144 66.4001 144.3C66.4001 144.3 54.3801 142.07 53.5901 139.33C53.5801 139.34 54.9701 148.78 49.8101 159.7Z" stroke="#2D3843" stroke-miterlimit="10" stroke-linecap="round" stroke-linejoin="round"/>
<path d="M133.74 159.7C133.74 159.7 127.68 161.14 115.51 159.6C115.51 159.6 102.35 158.56 101.41 154.98C101.41 154.98 105.23 148.77 109.85 145.59C109.85 145.59 113.77 144 117.15 144.3C117.15 144.3 129.17 142.07 129.96 139.33C129.96 139.34 128.57 148.78 133.74 159.7Z" stroke="#2D3843" stroke-miterlimit="10" stroke-linecap="round" stroke-linejoin="round"/>
<path d="M49.8099 159.7C49.8099 159.7 49.4799 165.83 51.2799 169.51C51.2799 169.51 54.1899 175.41 54.1899 180.29C54.1899 180.29 54.6199 185.68 56.1599 189.27C56.1599 189.27 56.2499 195.09 54.0199 203.56C54.0199 203.56 61.0399 205.53 66.7699 209.12C66.7699 209.12 71.6499 211.34 73.6199 206.3C73.6199 206.3 83.2899 186.36 87.3999 170.87C87.3999 170.87 90.3999 161.29 92.0799 161.33" stroke="#2D3843" stroke-miterlimit="10" stroke-linecap="round" stroke-linejoin="round"/>
<path d="M133.48 159.7C133.48 159.7 133.81 165.83 132.01 169.51C132.01 169.51 129.1 175.41 129.1 180.29C129.1 180.29 128.67 185.68 127.13 189.27C127.13 189.27 127.04 195.09 129.27 203.56C129.27 203.56 122.25 205.53 116.52 209.12C116.52 209.12 111.64 211.34 109.67 206.3C109.67 206.3 100 186.36 95.89 170.87C95.89 170.87 92.89 161.29 91.21 161.33" stroke="#2D3843" stroke-miterlimit="10" stroke-linecap="round" stroke-linejoin="round"/>
<path d="M49.3402 495.56C49.3402 495.56 48.1802 470.82 44.9102 456.41C44.9102 456.41 55.4902 462.04 59.7702 450.22C59.7702 450.22 61.9102 457.31 70.9202 455.51C70.9202 455.51 66.4802 479.96 68.2902 495.75C68.2902 495.75 67.4102 494.48 65.4002 499.95C65.4002 499.95 63.2202 506.31 63.0602 507.76C63.0602 507.76 61.6102 511.28 57.6502 509.71C57.6502 509.71 55.8102 508.65 51.8502 500.67L49.3402 495.56Z" stroke="#2D3843" stroke-miterlimit="10" stroke-linecap="round" stroke-linejoin="round"/>
<path d="M134.12 495.56C134.12 495.56 135.28 470.82 138.55 456.41C138.55 456.41 127.97 462.04 123.69 450.22C123.69 450.22 121.55 457.31 112.54 455.51C112.54 455.51 116.98 479.96 115.17 495.75C115.17 495.75 116.05 494.48 118.06 499.95C118.06 499.95 120.24 506.31 120.4 507.76C120.4 507.76 121.85 511.28 125.81 509.71C125.81 509.71 127.65 508.65 131.61 500.67L134.12 495.56Z" stroke="#2D3843" stroke-miterlimit="10" stroke-linecap="round" stroke-linejoin="round"/>
<path d="M59.7798 450.22C59.7798 450.22 56.8998 422.32 62.5498 405.42C62.5498 405.42 66.6199 391.23 66.7299 386.36C66.7299 386.36 67.6698 380.64 69.8098 382.72C69.8098 382.72 73.5898 393.42 75.0298 394.62C75.0298 394.62 74.2999 403.55 75.5499 415.9C75.5499 415.9 77.0099 431.27 70.9099 455.51C70.9199 455.51 62.8798 457.76 59.7798 450.22Z" stroke="#2D3843" stroke-miterlimit="10" stroke-linecap="round" stroke-linejoin="round"/>
<path d="M123.72 450.22C123.72 450.22 126.6 422.32 120.95 405.42C120.95 405.42 116.88 391.23 116.77 386.36C116.77 386.36 115.83 380.64 113.69 382.72C113.69 382.72 109.91 393.42 108.47 394.62C108.47 394.62 109.2 403.55 107.95 415.9C107.95 415.9 106.49 431.27 112.59 455.51C112.58 455.51 120.62 457.76 123.72 450.22Z" stroke="#2D3843" stroke-miterlimit="10" stroke-linecap="round" stroke-linejoin="round"/>
<path d="M59.3902 381.2C59.3902 381.2 55.5802 391.48 43.2502 402.13C43.2502 402.13 41.3402 411.59 41.1602 420.96C41.1602 420.96 42.2002 446.36 44.9102 456.4C44.9102 456.4 55.6302 461.81 59.7702 450.21C59.7702 450.21 57.5402 422.96 61.7202 407.86C61.7202 407.86 59.5402 402.49 60.1702 392.03C60.1702 392.03 61.3702 383.56 60.3702 381.77L59.3902 381.2Z" stroke="#2D3843" stroke-miterlimit="10" stroke-linecap="round" stroke-linejoin="round"/>
<path d="M124.03 381.2C124.03 381.2 127.84 391.48 140.17 402.13C140.17 402.13 142.08 411.59 142.26 420.96C142.26 420.96 141.22 446.36 138.51 456.4C138.51 456.4 127.79 461.81 123.65 450.21C123.65 450.21 125.88 422.96 121.7 407.86C121.7 407.86 123.88 402.49 123.25 392.03C123.25 392.03 122.05 383.56 123.05 381.77L124.03 381.2Z" stroke="#2D3843" stroke-miterlimit="10" stroke-linecap="round" stroke-linejoin="round"/>
<path d="M59.3901 381.2C59.3901 381.2 63.5601 367.9 63.5601 351.61C63.5601 351.61 66.3001 374.32 69.6301 382.19C69.6301 382.19 67.7001 381.59 66.7201 386.36C66.7201 386.36 65.9201 394.95 61.8201 407.04C61.8201 407.04 59.0101 402.73 60.4701 389.08C60.4901 389.08 61.9101 381.95 59.3901 381.2Z" stroke="#2D3843" stroke-miterlimit="10" stroke-linecap="round" stroke-linejoin="round"/>
<path d="M124.12 381.2C124.12 381.2 119.95 367.9 119.95 351.61C119.95 351.61 117.21 374.32 113.88 382.19C113.88 382.19 115.81 381.59 116.79 386.36C116.79 386.36 117.59 394.95 121.69 407.04C121.69 407.04 124.5 402.73 123.04 389.08C123.02 389.08 121.6 381.95 124.12 381.2Z" stroke="#2D3843" stroke-miterlimit="10" stroke-linecap="round" stroke-linejoin="round"/>
<path d="M40.6301 265.49C40.6301 265.49 74.0401 234.46 89.6501 247.31C89.6501 247.31 91.49 248.7 91.68 250.18C91.68 250.18 92.69 247.24 94.81 246.59C94.81 246.59 111.94 235.69 142.68 265.59C142.68 265.59 143.59 268.88 143.28 271.84C143.28 271.84 135.44 286.08 126.61 287.95C126.61 287.95 114.81 287.61 111.92 288.12C111.92 288.12 106.31 287.61 102.41 283.11C102.41 283.11 96.3 277.84 95.7 275.04V273.51C95.7 273.51 94.74 268.54 92.38 268.46C92.38 268.46 90.35 267.49 88.32 273.37V274.99C88.32 274.99 85.64 278.85 80.56 283.4C80.56 283.4 76.92 287.61 71.35 288L57.0401 287.95C57.0401 287.95 53.72 288.39 46.78 280.72L40.3801 272.08C40.3801 272.1 40.0601 267.14 40.6301 265.49Z" stroke="#2D3843" stroke-miterlimit="10" stroke-linecap="round" stroke-linejoin="round"/>
<path d="M54.0198 203.57C54.0198 203.57 48.9898 214.74 46.7598 226.16C46.7598 226.16 45.8798 232.04 45.9498 234C45.9498 234 48.5198 234.41 55.3398 230.08C55.3398 230.08 62.3698 225.28 68.9198 227.85C68.9198 227.85 72.8398 229.34 76.9598 227.44C76.9598 227.44 80.1998 226.02 79.4598 223.93C79.4598 223.93 75.2398 214 66.7798 209.13C66.7698 209.13 58.3798 204.56 54.0198 203.57Z" stroke="#2D3843" stroke-miterlimit="10" stroke-linecap="round" stroke-linejoin="round"/>
<path d="M129.34 203.57C129.34 203.57 134.37 214.74 136.6 226.16C136.6 226.16 137.48 232.04 137.41 234C137.41 234 134.84 234.41 128.02 230.08C128.02 230.08 120.99 225.28 114.44 227.85C114.44 227.85 110.52 229.34 106.4 227.44C106.4 227.44 103.16 226.02 103.9 223.93C103.9 223.93 108.12 214 116.58 209.13C116.59 209.13 124.98 204.56 129.34 203.57Z" stroke="#2D3843" stroke-miterlimit="10" stroke-linecap="round" stroke-linejoin="round"/>
<path d="M45.9402 233.99C45.9402 233.99 45.2702 238.56 43.9102 241.89C43.9102 241.89 40.1202 256.94 40.6202 265.49C40.6202 265.49 71.9902 236.04 88.7102 246.51C88.7102 246.51 86.9002 230.5 79.4402 223.92C79.4402 223.92 80.1202 229.36 69.6902 228.03C69.6902 228.03 64.8302 225.19 56.3702 229.36C56.3902 229.37 48.9902 234.27 45.9402 233.99Z" stroke="#2D3843" stroke-miterlimit="10" stroke-linecap="round" stroke-linejoin="round"/>
<path d="M137.19 233.99C137.19 233.99 137.86 238.56 139.22 241.89C139.22 241.89 143.01 256.94 142.51 265.49C142.51 265.49 111.14 236.04 94.4199 246.51C94.4199 246.51 96.2299 230.5 103.69 223.92C103.69 223.92 103.01 229.36 113.44 228.03C113.44 228.03 118.3 225.19 126.76 229.36C126.74 229.37 134.14 234.27 137.19 233.99Z" stroke="#2D3843" stroke-miterlimit="10" stroke-linecap="round" stroke-linejoin="round"/>
<path d="M68.6201 288.15C68.6201 288.15 69.0201 295.74 72.8401 302.63C72.8401 302.63 83.4601 322.8 83.6301 331.43C83.6301 331.43 90.1601 297.24 88.3101 275.01C88.3101 275.02 77.8701 290.25 68.6201 288.15Z" stroke="#2D3843" stroke-miterlimit="10" stroke-linecap="round" stroke-linejoin="round"/>
<path d="M115.24 288.15C115.24 288.15 114.84 295.74 111.02 302.63C111.02 302.63 100.4 322.8 100.23 331.43C100.23 331.43 93.6998 297.24 95.5498 275.01C95.5498 275.02 105.99 290.25 115.24 288.15Z" stroke="#2D3843" stroke-miterlimit="10" stroke-linecap="round" stroke-linejoin="round"/>
<path d="M44.78 278.04C44.78 278.04 43.04 283.37 43.38 290.61C43.38 290.61 47.32 292.94 48 295.32C48 295.32 57.67 287.25 69.09 291.87C69.09 291.87 68.54 288.74 68.62 288.14C68.62 288.14 58.2 288.17 55.97 287.78C55.97 287.8 49.01 284.81 44.78 278.04Z" stroke="#2D3843" stroke-miterlimit="10" stroke-linecap="round" stroke-linejoin="round"/>
<path d="M139.1 278.04C139.1 278.04 140.84 283.37 140.5 290.61C140.5 290.61 136.56 292.94 135.88 295.32C135.88 295.32 126.21 287.25 114.79 291.87C114.79 291.87 115.34 288.74 115.26 288.14C115.26 288.14 125.68 288.17 127.91 287.78C127.92 287.8 134.88 284.81 139.1 278.04Z" stroke="#2D3843" stroke-miterlimit="10" stroke-linecap="round" stroke-linejoin="round"/>
<path d="M40.38 272.1C40.38 272.1 38.52 287.14 40.94 303.11C40.94 303.11 41.82 314.35 41.87 321.19C41.87 321.19 44.81 351.49 45.82 354.58C45.82 354.58 47.91 353.91 46.96 346.71C46.96 346.71 45.01 327.26 44.54 321.34C44.54 321.34 42.35 307.86 43.38 290.61C43.38 290.61 43.33 281.63 44.78 278.04L40.38 272.1Z" stroke="#2D3843" stroke-miterlimit="10" stroke-linecap="round" stroke-linejoin="round"/>
<path d="M143.37 272.23C143.37 272.23 145.23 287.27 142.81 303.24C142.81 303.24 141.93 314.48 141.88 321.32C141.88 321.32 138.94 351.62 137.93 354.71C137.93 354.71 135.84 354.04 136.79 346.84C136.79 346.84 138.74 327.39 139.21 321.47C139.21 321.47 141.4 307.99 140.37 290.74C140.37 290.74 140.42 281.76 138.97 278.17L143.37 272.23Z" stroke="#2D3843" stroke-miterlimit="10" stroke-linecap="round" stroke-linejoin="round"/>
<path d="M45.82 354.58C45.82 354.58 49.47 373.97 43.25 402.13" stroke="#2D3843" stroke-miterlimit="10" stroke-linecap="round" stroke-linejoin="round"/>
<path d="M75.04 394.62C75.04 394.62 76.24 386.87 77.68 382.95C77.68 382.95 79.64 376.04 79.23 371.19C79.23 371.19 80.57 360.57 80.98 353.76C80.98 353.76 83.15 331.69 83.76 329.83" stroke="#2D3843" stroke-miterlimit="10" stroke-linecap="round" stroke-linejoin="round"/>
<path d="M100.23 331.44C100.23 331.44 103.07 366.71 104.64 372.75C104.64 372.75 104.92 384.05 108.46 394.63" stroke="#2D3843" stroke-miterlimit="10" stroke-linecap="round" stroke-linejoin="round"/>
<path d="M137.93 354.71C137.93 354.71 134.07 369.2 140.17 402.13" stroke="#2D3843" stroke-miterlimit="10" stroke-linecap="round" stroke-linejoin="round"/>
<path d="M43.3799 290.61C43.3799 290.61 48.6799 293.03 48.5499 299.41C48.5499 299.41 45.3899 325.08 45.6699 332.22C45.6699 332.22 43.2599 312.28 43.2599 307.92C43.2599 307.92 43.1299 291.95 43.3799 290.61Z" stroke="#2D3843" stroke-miterlimit="10" stroke-linecap="round" stroke-linejoin="round"/>
<path d="M140.27 290.61C140.27 290.61 134.97 293.03 135.1 299.41C135.1 299.41 138.26 325.08 137.98 332.22C137.98 332.22 140.39 312.28 140.39 307.92C140.39 307.92 140.52 291.95 140.27 290.61Z" stroke="#2D3843" stroke-miterlimit="10" stroke-linecap="round" stroke-linejoin="round"/>
</g>
<defs>
<clipPath id="clip0">
<rect width="183.89" height="533.48" fill="white"/>
</clipPath>
</defs>
</svg>
