<svg width="182" height="547" viewBox="0 0 182 547" fill="none" xmlns="http://www.w3.org/2000/svg">
    <g clip-path="url(#clip0)">
        <path d="M116.93 34.3901C116.33 30.8201 114.44 31.9401 114.44 31.9401C113.15 32.6701 113.37 30.7801 113.37 30.7801V21.5101C113.05 12.9301 106.62 6.30012 106.62 6.30012C101.13 0.810118 92.1099 0.370117 92.1099 0.370117H91.4099H91.0499H90.3499C90.3499 0.370117 81.3299 0.810118 75.8399 6.30012C75.8399 6.30012 69.3999 12.9301 69.0899 21.5101V30.7801C69.0899 30.7801 69.3099 32.6701 68.0199 31.9401C68.0199 31.9401 66.1299 30.8201 65.5299 34.3901C65.5299 34.3901 65.0099 41.2701 66.5199 44.1001C66.5199 44.1001 68.5799 48.5301 70.9499 47.5401C70.9499 47.5401 71.8499 47.1501 71.7699 49.6501C71.7699 49.6501 71.7699 52.9601 74.1299 54.6801C74.1299 54.6801 82.3799 60.8301 85.9899 62.1101C85.9899 62.1101 87.5199 62.6901 89.5499 62.8301V62.8601H92.2099V62.8501C94.5999 62.8301 96.4899 62.1101 96.4899 62.1101C100.1 60.8201 108.35 54.6801 108.35 54.6801C110.71 52.9601 110.71 49.6501 110.71 49.6501C110.62 47.1601 111.53 47.5401 111.53 47.5401C113.89 48.5301 115.96 44.1001 115.96 44.1001C117.45 41.2701 116.93 34.3901 116.93 34.3901Z" stroke="#6300FF" stroke-width="0.75" stroke-miterlimit="10"/>
        <path d="M116.93 34.3901C116.33 30.8201 114.44 31.9401 114.44 31.9401C113.15 32.6701 113.37 30.7801 113.37 30.7801V21.5101C113.05 12.9301 106.62 6.30012 106.62 6.30012C101.13 0.810118 92.1099 0.370117 92.1099 0.370117H91.4099H91.0499H90.3499C90.3499 0.370117 81.3299 0.810118 75.8399 6.30012C75.8399 6.30012 69.3999 12.9301 69.0899 21.5101V30.7801C69.0899 30.7801 69.3099 32.6701 68.0199 31.9401C68.0199 31.9401 66.1299 30.8201 65.5299 34.3901C65.5299 34.3901 65.0099 41.2701 66.5199 44.1001C66.5199 44.1001 68.5799 48.5301 70.9499 47.5401C70.9499 47.5401 71.8499 47.1501 71.7699 49.6501C71.7699 49.6501 71.7699 52.9601 74.1299 54.6801C74.1299 54.6801 82.3799 60.8301 85.9899 62.1101C85.9899 62.1101 87.5199 62.6901 89.5499 62.8301V62.8601H92.2099V62.8501C94.5999 62.8301 96.4899 62.1101 96.4899 62.1101C100.1 60.8201 108.35 54.6801 108.35 54.6801C110.71 52.9601 110.71 49.6501 110.71 49.6501C110.62 47.1601 111.53 47.5401 111.53 47.5401C113.89 48.5301 115.96 44.1001 115.96 44.1001C117.45 41.2701 116.93 34.3901 116.93 34.3901Z" stroke="#6300FF" stroke-width="0.75" stroke-miterlimit="10"/>
        <path d="M43.3701 179.27C43.3701 179.27 43.4301 190.1 39.1401 201.99C39.1401 201.99 36.3901 208.26 36.6801 217.13C39.5601 210.56 44.8701 197.46 44.5801 190.77C44.4201 187.08 44.8901 183.29 45.5101 180.09C44.9001 180.38 44.0401 180.47 43.3701 179.27Z" stroke="black" stroke-width="0.75" stroke-miterlimit="10" stroke-linecap="round" stroke-linejoin="round"/>
        <path d="M39.1501 202C43.4301 190.11 43.3801 179.28 43.3801 179.28C43.3801 179.28 37.6001 161.25 36.8901 157.15C36.8901 157.15 36.6501 162.47 30.3701 168.94C30.3701 168.94 27.3001 171.79 26.4901 172.51C26.4901 172.51 24.0501 174.79 22.0901 174.6C22.0301 174.88 21.9801 175.16 21.9201 175.42C21.9201 175.42 13.5301 199.22 11.0401 212.72C11.0401 212.72 8.29014 230.94 7.67014 240.1C7.67014 240.1 6.76014 245.3 5.90014 250.2C5.90014 250.2 4.03014 257.62 3.17014 266.56C3.17014 266.56 3.16014 266.63 3.14014 266.74C5.77014 266.83 6.06014 265.53 6.06014 265.53C7.99014 260.39 8.52014 252.72 8.52014 252.72C8.69014 247.98 11.1801 240.66 11.1801 240.66C13.0901 234.67 17.3401 218.03 17.3401 218.03C20.0901 208.29 25.1401 193.42 25.1401 193.42C24.6101 192.2 24.3001 191.43 24.3001 191.43C21.2801 182.63 22.0801 174.62 22.0801 174.62C22.0801 174.62 21.2801 182.63 24.3001 191.43C24.3001 191.43 24.6101 192.2 25.1401 193.42C26.5201 196.59 29.3801 202.83 32.1401 206.66C32.1401 206.66 35.7901 212.15 35.2501 220.34C35.5601 219.66 36.0701 218.56 36.6801 217.16C36.4001 208.26 39.1501 202 39.1501 202Z" stroke="black" stroke-width="0.75" stroke-miterlimit="10" stroke-linecap="round" stroke-linejoin="round"/>
        <path d="M138.55 179.27C138.55 179.27 138.49 190.1 142.78 201.99C142.78 201.99 145.53 208.26 145.24 217.13C142.36 210.56 137.05 197.46 137.34 190.77C137.5 187.08 137.03 183.29 136.41 180.09C137.02 180.38 137.89 180.47 138.55 179.27Z" stroke="black" stroke-width="0.75" stroke-miterlimit="10" stroke-linecap="round" stroke-linejoin="round"/>
        <path d="M50.9602 468.7C50.6602 461.4 47.4302 447.51 47.4302 447.51C47.4302 447.51 46.3102 451.77 44.9302 455.03C44.9402 455.16 44.9402 455.28 44.9502 455.39C44.9502 455.39 47.5502 473.12 48.5002 481.61C48.5002 481.61 49.4402 488.14 49.5502 494.83C52.9002 487.94 50.9602 468.7 50.9602 468.7Z" stroke="black" stroke-width="0.75" stroke-miterlimit="10" stroke-linecap="round" stroke-linejoin="round"/>
        <path d="M130.96 468.7C131.26 461.4 134.49 447.51 134.49 447.51C134.49 447.51 135.61 451.77 136.99 455.03C136.98 455.16 136.98 455.28 136.97 455.39C136.97 455.39 134.37 473.12 133.42 481.61C133.42 481.61 132.48 488.14 132.37 494.83C129.02 487.94 130.96 468.7 130.96 468.7Z" stroke="black" stroke-width="0.75" stroke-miterlimit="10" stroke-linecap="round" stroke-linejoin="round"/>
        <path d="M73.1402 441.53C73.5602 439.25 73.9702 437.15 74.3602 435.43C74.3602 435.43 75.7602 425.89 75.4002 416.19C75.4002 416.19 75.0402 408.09 74.2802 403.7C74.2802 403.7 74.0102 400.08 74.3202 395.85C72.0602 401.91 66.8902 419.58 73.1402 441.53Z" stroke="black" stroke-width="0.75" stroke-miterlimit="10" stroke-linecap="round" stroke-linejoin="round"/>
        <path d="M108.79 441.53C108.37 439.25 107.96 437.15 107.57 435.43C107.57 435.43 106.17 425.89 106.53 416.19C106.53 416.19 106.89 408.09 107.65 403.7C107.65 403.7 107.92 400.08 107.61 395.85C109.87 401.91 115.03 419.58 108.79 441.53Z" stroke="black" stroke-width="0.75" stroke-miterlimit="10" stroke-linecap="round" stroke-linejoin="round"/>
        <path d="M142.78 202C138.5 190.11 138.55 179.28 138.55 179.28C138.55 179.28 144.33 161.25 145.04 157.15C145.04 157.15 145.28 162.47 151.56 168.94C151.56 168.94 154.63 171.79 155.44 172.51C155.44 172.51 157.88 174.79 159.84 174.6C159.9 174.88 159.95 175.16 160.01 175.42C160.01 175.42 168.4 199.22 170.89 212.72C170.89 212.72 173.64 230.94 174.26 240.1C174.26 240.1 175.17 245.3 176.03 250.2C176.03 250.2 177.9 257.62 178.76 266.56C178.76 266.56 178.77 266.63 178.79 266.74C176.16 266.83 175.87 265.53 175.87 265.53C173.94 260.39 173.41 252.72 173.41 252.72C173.24 247.98 170.75 240.66 170.75 240.66C168.84 234.67 164.59 218.03 164.59 218.03C161.84 208.29 156.79 193.42 156.79 193.42C157.32 192.2 157.63 191.43 157.63 191.43C160.65 182.63 159.85 174.62 159.85 174.62C159.85 174.62 160.65 182.63 157.63 191.43C157.63 191.43 157.32 192.2 156.79 193.42C155.41 196.59 152.55 202.83 149.79 206.66C149.79 206.66 146.14 212.15 146.68 220.34C146.37 219.66 145.86 218.56 145.25 217.16C145.53 208.26 142.78 202 142.78 202Z" stroke="black" stroke-width="0.75" stroke-miterlimit="10" stroke-linecap="round" stroke-linejoin="round"/>
        <path d="M48.5002 104.74C49.7002 106.17 51.3602 107.37 52.7502 108.61C53.0902 108.92 53.5802 109.3 54.1002 109.57C53.9702 109.49 53.8302 109.4 53.6902 109.33C53.8302 109.41 53.9702 109.49 54.1002 109.57C54.8802 109.97 55.7402 110.1 56.3002 109.25C56.6402 108.73 56.6202 108.06 56.6902 107.47C56.7902 106.71 56.9202 105.95 57.0602 105.19C57.3602 103.63 57.7502 102.09 58.2002 100.57C60.9702 92.8601 72.6402 85.4201 72.6402 85.4201C75.0602 83.2601 74.0002 81.1101 74.0002 81.1101C73.2102 79.3101 74.0002 74.6201 74.0002 74.6201L73.9302 74.5701C73.0702 76.6601 71.7402 78.5601 69.7002 79.8601C69.7002 79.8601 59.5102 86.6801 47.8902 93.1601C47.8902 93.1601 42.7102 95.4501 38.4102 99.0401C44.3902 99.8801 48.4902 104.73 48.5002 104.74Z" stroke="black" stroke-width="0.75" stroke-miterlimit="10" stroke-linecap="round" stroke-linejoin="round"/>
        <path d="M133.43 104.74C132.23 106.17 130.57 107.37 129.18 108.61C128.84 108.92 128.35 109.3 127.83 109.57C127.96 109.49 128.1 109.4 128.24 109.33C128.1 109.41 127.96 109.49 127.83 109.57C127.05 109.97 126.19 110.1 125.63 109.25C125.29 108.73 125.31 108.06 125.24 107.47C125.14 106.71 125.01 105.95 124.87 105.19C124.57 103.63 124.18 102.09 123.73 100.57C120.96 92.8601 109.29 85.4201 109.29 85.4201C106.87 83.2601 107.93 81.1101 107.93 81.1101C108.72 79.3101 107.93 74.6201 107.93 74.6201L108 74.5701C108.86 76.6601 110.19 78.5601 112.23 79.8601C112.23 79.8601 122.42 86.6801 134.04 93.1601C134.04 93.1601 139.22 95.4501 143.52 99.0401C137.53 99.8801 133.43 104.73 133.43 104.74Z" stroke="black" stroke-width="0.75" stroke-miterlimit="10" stroke-linecap="round" stroke-linejoin="round"/>
        <path d="M78.5701 170.27C79.3701 170.18 80.1201 169.87 80.8701 169.6C82.2701 169.09 83.7101 168.71 85.1701 168.47C85.9201 168.34 86.7101 168.24 87.3201 167.77C87.9601 167.28 88.2601 166.48 88.4601 165.7C89.0901 163.2 88.9101 160.57 88.5601 158.02C88.4001 156.87 88.1501 155.6 87.2101 154.91C86.5101 154.4 85.5901 154.32 84.7301 154.31C83.2601 154.29 81.7401 154.43 80.3401 154.87C79.2501 155.21 78.2401 155.74 77.3901 156.52C76.2801 157.55 75.5501 158.95 75.1601 160.42C74.7601 161.88 74.6701 163.41 74.6901 164.93C74.7101 167.29 75.5101 170.61 78.5701 170.27Z" stroke="black" stroke-width="0.75" stroke-miterlimit="10" stroke-linecap="round" stroke-linejoin="round"/>
        <path d="M81.7799 172.37C81.7799 172.37 77.8099 174.2 77.9199 181.31C77.9199 181.31 77.4799 186.66 81.7799 185.99C81.7799 185.99 85.3799 184.83 86.6499 184.83C86.6499 184.83 89.5099 184.87 89.6799 180.79L89.1099 173.74C89.1199 173.74 88.5999 168.71 81.7799 172.37Z" stroke="black" stroke-width="0.75" stroke-miterlimit="10" stroke-linecap="round" stroke-linejoin="round"/>
        <path d="M84.94 188.52L80.52 189.53C80.52 189.53 76.91 190.07 76.76 195.19L76.53 201.86C76.53 201.86 76.18 206.94 80.79 206.63L84.78 206.4C84.78 206.4 88.9 205.97 88.55 198.65L88.54 191.32C88.54 191.31 88.85 187.63 84.94 188.52Z" stroke="black" stroke-width="0.75" stroke-miterlimit="10" stroke-linecap="round" stroke-linejoin="round"/>
        <path d="M86.2202 246.23C86.2202 246.23 88.6702 238.16 88.5702 232.1C88.5702 232.1 88.8402 216.92 87.5702 213.93C87.5702 213.93 87.2202 211.65 80.6302 212.19C80.6302 212.19 71.2902 212.7 70.2102 222.48C70.2102 222.48 69.9602 230.55 74.8502 238.48C74.8502 238.48 82.0302 253.34 86.2202 246.23Z" stroke="black" stroke-width="0.75" stroke-miterlimit="10" stroke-linecap="round" stroke-linejoin="round"/>
        <path d="M103.35 170.27C102.55 170.18 101.8 169.87 101.05 169.6C99.6501 169.09 98.2101 168.71 96.7501 168.47C96.0001 168.34 95.2101 168.24 94.6001 167.77C93.9601 167.28 93.6601 166.48 93.4601 165.7C92.8301 163.2 93.0101 160.57 93.3601 158.02C93.5201 156.87 93.7701 155.6 94.7101 154.91C95.4101 154.4 96.3301 154.32 97.1901 154.31C98.6601 154.29 100.18 154.43 101.58 154.87C102.67 155.21 103.68 155.74 104.53 156.52C105.64 157.55 106.37 158.95 106.76 160.42C107.16 161.88 107.25 163.41 107.23 164.93C107.22 167.29 106.41 170.61 103.35 170.27Z" stroke="black" stroke-width="0.75" stroke-miterlimit="10" stroke-linecap="round" stroke-linejoin="round"/>
        <path d="M100.14 172.37C100.14 172.37 104.11 174.2 104 181.31C104 181.31 104.44 186.66 100.14 185.99C100.14 185.99 96.5402 184.83 95.2702 184.83C95.2702 184.83 92.4102 184.87 92.2402 180.79L92.8102 173.74C92.8102 173.74 93.3302 168.71 100.14 172.37Z" stroke="black" stroke-width="0.75" stroke-miterlimit="10" stroke-linecap="round" stroke-linejoin="round"/>
        <path d="M96.99 188.52L101.41 189.53C101.41 189.53 105.02 190.07 105.17 195.19L105.4 201.86C105.4 201.86 105.75 206.94 101.14 206.63L97.15 206.4C97.15 206.4 93.03 205.97 93.38 198.65L93.39 191.32C93.38 191.31 93.07 187.63 96.99 188.52Z" stroke="black" stroke-width="0.75" stroke-miterlimit="10" stroke-linecap="round" stroke-linejoin="round"/>
        <path d="M95.71 246.23C95.71 246.23 93.26 238.16 93.36 232.1C93.36 232.1 93.09 216.92 94.36 213.93C94.36 213.93 94.71 211.65 101.3 212.19C101.3 212.19 110.64 212.7 111.72 222.48C111.72 222.48 111.97 230.55 107.08 238.48C107.07 238.48 99.9 253.34 95.71 246.23Z" stroke="black" stroke-width="0.75" stroke-miterlimit="10" stroke-linecap="round" stroke-linejoin="round"/>
        <path d="M113.07 256.15C110.06 256.64 104.59 259.94 104.59 259.94C97.8102 264.58 92.0302 265.96 90.9602 266.19C89.8902 265.96 84.1102 264.58 77.3302 259.94C77.3302 259.94 71.8602 256.64 68.8502 256.15C68.8502 256.15 61.6702 253.88 63.9402 259.05C63.9402 259.05 67.8802 268.38 71.6402 291.64C71.6402 291.64 74.9902 308.46 78.9102 317.57C78.9102 317.57 81.8002 323.6 83.2302 327.98C83.2802 327.74 83.3302 327.52 83.3802 327.31C83.3802 327.31 86.5902 304.73 87.4302 291.78C87.4302 291.78 87.1802 276.12 88.3602 272.16C88.3602 272.16 89.1702 269.64 90.9502 269.48C92.7302 269.64 93.5402 272.16 93.5402 272.16C94.7202 276.13 94.4702 291.78 94.4702 291.78C95.3102 304.74 98.5202 327.31 98.5202 327.31C98.5702 327.52 98.6202 327.74 98.6702 327.98C100.11 323.61 102.99 317.57 102.99 317.57C106.92 308.46 110.26 291.64 110.26 291.64C114.02 268.38 117.96 259.05 117.96 259.05C120.25 253.89 113.07 256.15 113.07 256.15Z" stroke="black" stroke-width="0.75" stroke-miterlimit="10" stroke-linecap="round" stroke-linejoin="round"/>
        <path d="M53.7898 209.36C58.8698 217.61 65.8498 216.13 65.8498 216.13C77.2698 214.23 75.2998 184.51 75.2998 184.51C73.3198 163.99 63.3598 150.78 63.3598 150.78C68.6098 171.03 51.5998 176.31 51.5998 176.31L51.5198 176.36C51.5998 176.91 52.6698 183.73 53.3498 185.65C53.3498 185.65 54.0198 188.33 54.0898 191.89C54.0898 191.89 53.6798 200.97 51.2998 205.93C52.7998 207.2 53.7898 209.36 53.7898 209.36Z" stroke="black" stroke-width="0.75" stroke-miterlimit="10" stroke-linecap="round" stroke-linejoin="round"/>
        <path d="M128.14 209.36C123.06 217.61 116.08 216.13 116.08 216.13C104.66 214.23 106.63 184.51 106.63 184.51C108.61 163.99 118.57 150.78 118.57 150.78C113.32 171.03 130.33 176.31 130.33 176.31L130.41 176.36C130.33 176.91 129.26 183.73 128.58 185.65C128.58 185.65 127.91 188.33 127.84 191.89C127.84 191.89 128.25 200.97 130.63 205.93C129.13 207.2 128.14 209.36 128.14 209.36Z" stroke="black" stroke-width="0.75" stroke-miterlimit="10" stroke-linecap="round" stroke-linejoin="round"/>
        <path d="M50.8799 376C50.8799 376 50.8799 376.01 50.8799 376C47.5099 366.73 47.1499 344.12 47.1499 344.12C45.7299 320.55 52.1199 278.48 52.1199 278.48C55.7399 261.5 63.6199 256.66 63.6199 256.66C63.2999 254.28 52.1699 250.56 52.1699 250.56C47.5699 248.47 44.2299 244.61 42.3499 241.98C41.5899 246.88 38.7099 265.57 38.1999 270.33C38.1999 270.33 36.6799 287.33 37.8599 298.19C37.8599 298.19 39.5699 326.6 40.1499 332.51C40.1499 332.51 42.1499 347.34 44.3999 359.08C44.3999 359.08 46.1899 365.5 46.0399 375.28C48.6299 379.24 52.3299 384.12 52.3299 384.12C54.5199 386.94 55.5099 386.09 55.5099 386.09C57.1699 384.97 55.1999 383.14 55.1999 383.14C54.2999 382.42 52.1099 378.55 52.1099 378.55C51.6599 377.9 51.2599 377.03 50.8799 376ZM50.8799 376C50.8799 376.01 50.8799 376 50.8799 376Z" stroke="black" stroke-width="0.75" stroke-miterlimit="10" stroke-linecap="round" stroke-linejoin="round"/>
        <path d="M131.04 376C131.04 376 131.04 376.01 131.04 376C134.41 366.73 134.77 344.12 134.77 344.12C136.19 320.55 129.8 278.48 129.8 278.48C126.18 261.5 118.3 256.66 118.3 256.66C118.62 254.28 129.75 250.56 129.75 250.56C134.35 248.47 137.69 244.61 139.57 241.98C140.33 246.88 143.21 265.57 143.72 270.33C143.72 270.33 145.24 287.33 144.06 298.19C144.06 298.19 142.35 326.6 141.77 332.51C141.77 332.51 139.77 347.34 137.52 359.08C137.52 359.08 135.73 365.5 135.88 375.28C133.29 379.24 129.59 384.12 129.59 384.12C127.4 386.94 126.41 386.09 126.41 386.09C124.75 384.97 126.72 383.14 126.72 383.14C127.62 382.42 129.81 378.55 129.81 378.55C130.26 377.9 130.67 377.03 131.04 376ZM131.04 376C131.04 376.01 131.04 376 131.04 376Z" stroke="black" stroke-width="0.75" stroke-miterlimit="10" stroke-linecap="round" stroke-linejoin="round"/>
        <path d="M63.5099 256.14C63.5099 256.14 55.6299 260.97 52.0099 277.96C52.0099 277.96 45.6199 320.03 47.0399 343.6C47.0399 343.6 47.4099 366.21 50.7799 375.48C50.8199 375.5 53.3699 377.12 56.6199 375.48C56.6199 375.48 58.2799 374.05 62.3299 374.05C62.3299 374.05 65.3299 374.33 66.8799 376.21C66.8799 376.21 69.2699 379.32 72.1499 374.66C72.1499 374.66 76.2399 367 79.0899 363.33C79.4199 359.95 79.7999 356.55 80.1599 354.39C80.1599 354.39 81.5799 334.62 83.1299 327.46C81.6899 323.09 78.8099 317.05 78.8099 317.05C74.8799 307.94 71.5399 291.12 71.5399 291.12C67.7799 267.86 63.8399 258.53 63.8399 258.53C63.5399 257.79 63.5099 256.14 63.5099 256.14Z" stroke="black" stroke-width="0.75" stroke-miterlimit="10" stroke-linecap="round" stroke-linejoin="round"/>
        <path d="M118.1 258.53C118.1 258.53 114.16 267.86 110.4 291.12C110.4 291.12 107.05 307.94 103.13 317.05C103.13 317.05 100.24 323.08 98.8101 327.46C100.36 334.62 101.78 354.39 101.78 354.39C102.14 356.56 102.52 359.96 102.85 363.33C105.7 367 109.79 374.66 109.79 374.66C112.68 379.32 115.06 376.21 115.06 376.21C116.61 374.32 119.61 374.05 119.61 374.05C123.66 374.05 125.32 375.48 125.32 375.48C128.57 377.12 131.12 375.51 131.16 375.48C134.53 366.21 134.9 343.6 134.9 343.6C136.32 320.03 129.93 277.96 129.93 277.96C126.31 260.98 118.43 256.14 118.43 256.14C118.43 256.14 118.39 257.79 118.1 258.53Z" stroke="black" stroke-width="0.75" stroke-miterlimit="10" stroke-linecap="round" stroke-linejoin="round"/>
        <path d="M22.0603 175.05C22.0603 175.11 22.0503 175.2 22.0503 175.27C22.0603 175.16 22.0603 175.06 22.0703 174.97C22.0603 175.01 22.0603 175.03 22.0603 175.05Z" stroke="black" stroke-width="0.75" stroke-miterlimit="10" stroke-linecap="round" stroke-linejoin="round"/>
        <path d="M22.0601 174.98C22.0601 174.96 22.0601 174.94 22.0601 174.92C22.0601 174.94 22.0601 174.96 22.0601 174.98Z" stroke="black" stroke-width="0.75" stroke-miterlimit="10" stroke-linecap="round" stroke-linejoin="round"/>
        <path d="M22.04 175.41C22.04 175.36 22.05 175.32 22.05 175.27C22.04 175.33 22.04 175.36 22.04 175.41Z" stroke="black" stroke-width="0.75" stroke-miterlimit="10" stroke-linecap="round" stroke-linejoin="round"/>
        <path d="M22.0601 174.92C22.0701 174.83 22.0701 174.74 22.0801 174.69C22.0801 174.75 22.0701 174.82 22.0601 174.92Z" stroke="black" stroke-width="0.75" stroke-miterlimit="10" stroke-linecap="round" stroke-linejoin="round"/>
        <path d="M22.0801 174.69C22.0801 174.68 22.0801 174.67 22.0801 174.67C22.0801 174.68 22.0801 174.68 22.0801 174.69Z" stroke="black" stroke-width="0.75" stroke-miterlimit="10" stroke-linecap="round" stroke-linejoin="round"/>
        <path d="M43.3701 179.27C43.3701 179.27 37.5901 161.24 36.8801 157.14C36.8801 157.14 36.6401 162.46 30.3601 168.93C30.3601 168.93 27.2901 171.78 26.4801 172.5C26.4801 172.5 24.0401 174.78 22.0801 174.59C22.0801 174.59 22.0801 174.62 22.0701 174.66C22.0701 174.62 22.0801 174.59 22.0801 174.59C22.0501 175.03 22.0201 175.46 22.0101 175.89C22.0201 175.72 22.0201 175.55 22.0301 175.41C22.0201 175.56 22.0201 175.72 22.0101 175.9C22.0001 176.08 22.0001 176.26 22.0001 176.44C22.0001 176.5 22.0001 176.55 22.0001 176.61C21.8601 183.05 23.3401 188.13 23.3401 188.13C23.4301 188.69 23.6601 189.45 23.9401 190.26C24.0601 190.64 24.1801 191.02 24.3101 191.41C24.1901 191.07 24.0901 190.74 23.9901 190.4C24.3601 191.45 24.8001 192.55 25.1501 193.36L25.1601 193.4C25.2901 193.69 25.4301 194.02 25.5901 194.37C25.6601 194.53 25.7001 194.62 25.7001 194.62C27.2001 197.99 29.7201 203.26 32.1601 206.64C32.1601 206.64 35.8101 212.13 35.2701 220.32C35.5801 219.64 36.0901 218.54 36.7001 217.14C36.4001 208.26 39.1501 202 39.1501 202C43.4301 190.1 43.3701 179.27 43.3701 179.27Z" stroke="black" stroke-width="0.75" stroke-miterlimit="10" stroke-linecap="round" stroke-linejoin="round"/>
        <path d="M159.87 175.05C159.87 175.11 159.88 175.2 159.88 175.27C159.87 175.16 159.87 175.06 159.86 174.97C159.87 175.01 159.87 175.03 159.87 175.05Z" stroke="black" stroke-width="0.75" stroke-miterlimit="10" stroke-linecap="round" stroke-linejoin="round"/>
        <path d="M159.86 174.98C159.86 174.96 159.86 174.94 159.86 174.92C159.86 174.94 159.86 174.96 159.86 174.98Z" stroke="black" stroke-width="0.75" stroke-miterlimit="10" stroke-linecap="round" stroke-linejoin="round"/>
        <path d="M159.89 175.41C159.89 175.36 159.88 175.32 159.88 175.27C159.88 175.33 159.89 175.36 159.89 175.41Z" stroke="black" stroke-width="0.75" stroke-miterlimit="10" stroke-linecap="round" stroke-linejoin="round"/>
        <path d="M159.86 174.92C159.85 174.83 159.85 174.74 159.84 174.69C159.85 174.75 159.85 174.82 159.86 174.92Z" stroke="black" stroke-width="0.75" stroke-miterlimit="10" stroke-linecap="round" stroke-linejoin="round"/>
        <path d="M159.84 174.69C159.84 174.68 159.84 174.67 159.84 174.67C159.84 174.68 159.84 174.68 159.84 174.69Z" stroke="black" stroke-width="0.75" stroke-miterlimit="10" stroke-linecap="round" stroke-linejoin="round"/>
        <path d="M138.55 179.27C138.55 179.27 144.33 161.24 145.04 157.14C145.04 157.14 145.28 162.46 151.56 168.93C151.56 168.93 154.63 171.78 155.44 172.5C155.44 172.5 157.88 174.78 159.84 174.59C159.84 174.59 159.84 174.62 159.85 174.66C159.85 174.62 159.84 174.59 159.84 174.59C159.87 175.03 159.9 175.46 159.91 175.89C159.9 175.72 159.9 175.55 159.89 175.41C159.9 175.56 159.9 175.72 159.91 175.9C159.92 176.08 159.92 176.26 159.92 176.44C159.92 176.5 159.92 176.55 159.92 176.61C160.06 183.05 158.58 188.13 158.58 188.13C158.49 188.69 158.26 189.45 157.98 190.26C157.86 190.64 157.74 191.02 157.61 191.41C157.73 191.07 157.83 190.74 157.93 190.4C157.56 191.45 157.12 192.55 156.77 193.36L156.76 193.4C156.63 193.69 156.49 194.02 156.33 194.37C156.26 194.53 156.22 194.62 156.22 194.62C154.72 197.99 152.2 203.26 149.76 206.64C149.76 206.64 146.11 212.13 146.65 220.32C146.34 219.64 145.83 218.54 145.22 217.14C145.51 208.27 142.76 202 142.76 202C138.5 190.1 138.55 179.27 138.55 179.27Z" stroke="black" stroke-width="0.75" stroke-miterlimit="10" stroke-linecap="round" stroke-linejoin="round"/>
        <path d="M22.4901 183.8C21.8201 178.81 22.0901 174.68 22.0901 174.6C22.0901 174.64 21.7101 178.51 22.4901 183.8Z" stroke="black" stroke-width="0.75" stroke-miterlimit="10" stroke-linecap="round" stroke-linejoin="round"/>
        <path d="M24.3198 191.43C24.3098 191.42 24.3098 191.4 24.2998 191.39V191.4C24.3098 191.41 24.3098 191.42 24.3198 191.43Z" stroke="black" stroke-width="0.75" stroke-miterlimit="10" stroke-linecap="round" stroke-linejoin="round"/>
        <path d="M24.3099 191.41V191.4C23.3799 188.91 22.8299 186.26 22.4999 183.81C21.7199 178.51 22.0999 174.65 22.0999 174.61V174.6C22.0399 174.88 21.9899 175.16 21.9299 175.42C21.9299 175.42 13.5399 199.22 11.0499 212.72C11.0499 212.72 8.2999 230.94 7.6799 240.1C7.6799 240.1 6.7699 245.3 5.9099 250.2C5.9099 250.2 4.0399 257.62 3.1799 266.56C3.1799 266.56 3.1699 266.63 3.1499 266.74C5.7799 266.83 6.0699 265.53 6.0699 265.53C7.9999 260.39 8.5299 252.72 8.5299 252.72C8.6999 247.98 11.1899 240.66 11.1899 240.66C13.0999 234.67 17.3499 218.03 17.3499 218.03C20.0999 208.29 25.1499 193.42 25.1499 193.42C24.8399 192.78 24.5699 192.13 24.3199 191.46C24.3099 191.42 24.3099 191.41 24.3099 191.41Z" stroke="black" stroke-width="0.75" stroke-miterlimit="10" stroke-linecap="round" stroke-linejoin="round"/>
        <path d="M22.4897 183.8C22.8197 186.25 23.3797 188.9 24.2997 191.39C23.3897 188.72 22.8297 186.13 22.4897 183.8Z" stroke="black" stroke-width="0.75" stroke-miterlimit="10" stroke-linecap="round" stroke-linejoin="round"/>
        <path d="M22.0898 174.59V174.6V174.59Z" stroke="black" stroke-width="0.75" stroke-miterlimit="10" stroke-linecap="round" stroke-linejoin="round"/>
        <path d="M25.1498 193.39C24.6698 192.29 24.3698 191.56 24.3198 191.43C24.5698 192.1 24.8398 192.76 25.1498 193.39Z" stroke="black" stroke-width="0.75" stroke-miterlimit="10" stroke-linecap="round" stroke-linejoin="round"/>
        <path d="M159.44 183.8C160.11 178.81 159.84 174.68 159.84 174.6C159.84 174.64 160.21 178.51 159.44 183.8Z" stroke="black" stroke-width="0.75" stroke-miterlimit="10" stroke-linecap="round" stroke-linejoin="round"/>
        <path d="M157.61 191.43C157.62 191.42 157.62 191.4 157.63 191.39V191.4C157.62 191.41 157.61 191.42 157.61 191.43Z" stroke="black" stroke-width="0.75" stroke-miterlimit="10" stroke-linecap="round" stroke-linejoin="round"/>
        <path d="M157.62 191.41V191.4C158.55 188.91 159.1 186.26 159.43 183.81C160.21 178.51 159.83 174.65 159.83 174.61V174.6C159.89 174.88 159.94 175.16 160 175.42C160 175.42 168.39 199.22 170.88 212.72C170.88 212.72 173.63 230.94 174.25 240.1C174.25 240.1 175.16 245.3 176.02 250.2C176.02 250.2 177.89 257.62 178.75 266.56C178.75 266.56 178.76 266.63 178.78 266.74C176.15 266.83 175.86 265.53 175.86 265.53C173.93 260.39 173.4 252.72 173.4 252.72C173.23 247.98 170.74 240.66 170.74 240.66C168.83 234.67 164.58 218.03 164.58 218.03C161.83 208.29 156.78 193.42 156.78 193.42C157.09 192.78 157.36 192.13 157.61 191.46C157.61 191.42 157.62 191.41 157.62 191.41Z" stroke="black" stroke-width="0.75" stroke-miterlimit="10" stroke-linecap="round" stroke-linejoin="round"/>
        <path d="M159.44 183.8C159.11 186.25 158.55 188.9 157.63 191.39C158.54 188.72 159.1 186.13 159.44 183.8Z" stroke="black" stroke-width="0.75" stroke-miterlimit="10" stroke-linecap="round" stroke-linejoin="round"/>
        <path d="M159.83 174.59V174.6V174.59Z" stroke="black" stroke-width="0.75" stroke-miterlimit="10" stroke-linecap="round" stroke-linejoin="round"/>
        <path d="M156.78 193.39C157.26 192.29 157.56 191.56 157.61 191.43C157.36 192.1 157.08 192.76 156.78 193.39Z" stroke="black" stroke-width="0.75" stroke-miterlimit="10" stroke-linecap="round" stroke-linejoin="round"/>
        <path d="M77.0702 115.71C69.4802 115.77 62.2802 112.39 62.2802 112.39C58.5702 110.34 57.3402 112.98 57.3402 112.98L57.9102 114.17C59.5702 120.15 49.9702 125.45 49.9702 125.45C58.9102 126.17 58.8802 135.5 58.8802 135.5C58.5802 145.21 60.4102 148.4 60.4102 148.4C63.2802 153.61 78.9202 152.2 78.9202 152.2C83.6902 152.01 86.2102 148.52 86.2102 148.52C92.2702 140.5 89.2802 123.15 89.2802 123.15C88.5402 115.71 77.0702 115.71 77.0702 115.71Z" stroke="black" stroke-width="0.75" stroke-miterlimit="10" stroke-linecap="round" stroke-linejoin="round"/>
        <path d="M104.86 115.71C112.45 115.77 119.65 112.39 119.65 112.39C123.36 110.34 124.59 112.98 124.59 112.98L124.02 114.17C122.36 120.15 131.96 125.45 131.96 125.45C123.02 126.17 123.05 135.5 123.05 135.5C123.35 145.21 121.52 148.4 121.52 148.4C118.65 153.61 103.01 152.2 103.01 152.2C98.2402 152.01 95.7202 148.52 95.7202 148.52C89.6602 140.5 92.6502 123.15 92.6502 123.15C93.3902 115.71 104.86 115.71 104.86 115.71Z" stroke="black" stroke-width="0.75" stroke-miterlimit="10" stroke-linecap="round" stroke-linejoin="round"/>
        <path d="M49.91 125.45C49.91 125.45 49.42 127.84 49.42 131.05L48.16 145.64C47.96 146.44 47.76 147.73 47.81 149.69L48.99 147.81C49.67 147.01 50.72 146 52.35 144.84C52.35 144.84 57.8 141.08 58.32 132.98C58.32 132.98 58.31 132.44 58.24 132.13C57.39 129.38 55.25 125.88 49.91 125.45Z" stroke="black" stroke-width="0.75" stroke-miterlimit="10" stroke-linecap="round" stroke-linejoin="round"/>
        <path d="M132.01 125.45C132.01 125.45 132.5 127.84 132.5 131.05L133.76 145.64C133.96 146.44 134.16 147.73 134.11 149.69L132.93 147.81C132.25 147.01 131.2 146 129.57 144.84C129.57 144.84 124.12 141.08 123.6 132.98C123.6 132.98 123.61 132.44 123.68 132.13C124.54 129.38 126.67 125.88 132.01 125.45Z" stroke="black" stroke-width="0.75" stroke-miterlimit="10" stroke-linecap="round" stroke-linejoin="round"/>
        <path d="M58.3199 133.6C58.3199 133.6 57.4299 140.77 52.9299 144.37C52.9299 144.37 49.0799 146.89 47.7999 149.69C47.7999 149.69 47.5699 151.35 48.4299 155.86C48.4299 155.86 48.7599 158.96 49.0299 162.32C49.1799 164.17 49.4699 166.17 49.3199 167.6L51.4799 176.05C51.4799 176.05 51.8699 176.44 54.4299 175.01C54.4299 175.01 63.8399 170.13 64.2499 159.73C64.2499 159.73 64.5699 154.39 63.3299 150.8C63.3299 150.8 59.7499 150.02 59.2299 144.5C59.2299 144.5 58.7799 140.94 58.7599 135.49C58.7699 135.48 58.7399 134.05 58.3199 133.6Z" stroke="black" stroke-width="0.75" stroke-miterlimit="10" stroke-linecap="round" stroke-linejoin="round"/>
        <path d="M123.6 133.6C123.6 133.6 124.49 140.77 128.99 144.37C128.99 144.37 132.84 146.89 134.12 149.69C134.12 149.69 134.35 151.35 133.49 155.86C133.49 155.86 133.16 158.96 132.89 162.32C132.74 164.17 132.45 166.17 132.6 167.6L130.44 176.05C130.44 176.05 130.05 176.44 127.49 175.01C127.49 175.01 118.08 170.13 117.67 159.73C117.67 159.73 117.35 154.39 118.59 150.8C118.59 150.8 122.17 150.02 122.69 144.5C122.69 144.5 123.14 140.94 123.16 135.49C123.15 135.48 123.18 134.05 123.6 133.6Z" stroke="black" stroke-width="0.75" stroke-miterlimit="10" stroke-linecap="round" stroke-linejoin="round"/>
        <path d="M43.37 179.27C43.37 179.27 44.02 180.76 45.51 180.09C45.51 180.09 45.21 181.61 44.94 183.94C44.72 185.82 44.48 188.21 44.62 190.77C44.62 190.77 44.75 192.53 44.08 195.97C43.78 197.53 43.23 199.44 42.58 201.7C42.05 203.53 41.31 205.61 40.47 207.89C39.5 210.5 38.38 213.39 36.92 216.6C36.92 216.6 36 209.13 39.14 202C39.15 202 42.47 194.98 43.37 179.27Z" stroke="black" stroke-width="0.75" stroke-miterlimit="10" stroke-linecap="round" stroke-linejoin="round"/>
        <path d="M138.55 179.27C138.55 179.27 137.9 180.76 136.41 180.09C136.41 180.09 136.71 181.61 136.98 183.94C137.2 185.82 137.44 188.21 137.3 190.77C137.3 190.77 137.17 192.53 137.84 195.97C138.14 197.53 138.69 199.44 139.34 201.7C139.87 203.53 140.61 205.61 141.45 207.89C142.42 210.5 143.54 213.39 145 216.6C145 216.6 145.92 209.13 142.78 202C142.78 202 139.45 194.98 138.55 179.27Z" stroke="black" stroke-width="0.75" stroke-miterlimit="10" stroke-linecap="round" stroke-linejoin="round"/>
        <path d="M51.3902 403.88C51.1802 399.76 50.8702 395.65 50.4702 391.55C50.1902 388.65 49.8602 385.76 49.4902 382.87C49.3502 381.78 49.2002 380.68 49.0302 379.59C49.0302 379.59 48.6502 379.24 46.0602 375.28C46.0202 377.81 45.8602 380.56 45.5002 383.48C45.5002 383.48 43.5502 402.3 42.2102 413.62C42.2102 413.62 40.9602 430.3 43.2602 441.81C43.2602 441.81 44.7502 451.3 44.9502 455.03C46.3302 451.77 47.4502 447.51 47.4502 447.51C47.6302 446.62 47.8102 445.72 48.0102 444.83C48.4902 442.64 49.0302 440.45 49.6302 438.29C50.1602 436.4 50.4502 434.48 50.6902 432.53C51.3002 427.75 51.5702 422.93 51.6502 418.12C51.7502 413.38 51.6402 408.62 51.3902 403.88Z" stroke="black" stroke-width="0.75" stroke-miterlimit="10" stroke-linecap="round" stroke-linejoin="round"/>
        <path d="M130.53 403.88C130.74 399.76 131.05 395.65 131.45 391.55C131.73 388.65 132.06 385.76 132.43 382.87C132.57 381.78 132.72 380.68 132.89 379.59C132.89 379.59 133.27 379.24 135.86 375.28C135.9 377.81 136.06 380.56 136.42 383.48C136.42 383.48 138.37 402.3 139.71 413.62C139.71 413.62 140.96 430.3 138.66 441.81C138.66 441.81 137.17 451.3 136.97 455.03C135.59 451.77 134.47 447.51 134.47 447.51C134.29 446.62 134.11 445.72 133.91 444.83C133.43 442.64 132.89 440.45 132.29 438.29C131.76 436.4 131.47 434.48 131.23 432.53C130.62 427.75 130.35 422.93 130.27 418.12C130.18 413.38 130.29 408.62 130.53 403.88Z" stroke="black" stroke-width="0.75" stroke-miterlimit="10" stroke-linecap="round" stroke-linejoin="round"/>
        <path d="M71.5102 434.39L71.3502 436.5C70.9802 438.81 70.3302 443.47 70.2002 448.35C70.2002 448.35 70.2902 450.91 69.3902 454.73C69.3902 454.73 67.8502 463.62 69.0002 468.33C69.1502 467.14 69.3202 465.99 69.5102 464.91C69.5102 464.91 71.3602 451.51 73.1802 441.53C72.4902 439.09 71.9402 436.71 71.5102 434.39Z" stroke="black" stroke-width="0.75" stroke-miterlimit="10" stroke-linecap="round" stroke-linejoin="round"/>
        <path d="M110.41 434.39L110.57 436.5C110.94 438.81 111.59 443.47 111.72 448.35C111.72 448.35 111.63 450.91 112.53 454.73C112.53 454.73 114.07 463.62 112.92 468.33C112.77 467.14 112.6 465.99 112.41 464.91C112.41 464.91 110.56 451.51 108.74 441.53C109.43 439.09 109.98 436.71 110.41 434.39Z" stroke="black" stroke-width="0.75" stroke-miterlimit="10" stroke-linecap="round" stroke-linejoin="round"/>
        <path d="M54.0798 393.81L51.5398 383.33L49.0698 379.94L49.1298 380.32C54.1798 424.95 49.8198 437.17 49.8198 437.17C49.8198 437.17 50.9398 444.27 52.4298 448.16C52.4298 448.16 55.8898 463.22 58.4398 476.67C58.4398 476.67 60.6098 491.82 62.1698 496C62.1698 496 65.8598 504.84 64.9998 497.59C64.9998 497.59 63.1698 492.72 63.1198 483.85C63.1198 483.85 63.2398 458.95 63.5898 454.45C63.5898 454.45 63.4698 441.02 62.1498 434.06C62.1298 434.05 55.2298 395.39 54.0798 393.81Z" stroke="black" stroke-width="0.75" stroke-miterlimit="10" stroke-linecap="round" stroke-linejoin="round"/>
        <path d="M127.85 393.81L130.39 383.33L132.86 379.94L132.8 380.32C127.75 424.95 132.11 437.17 132.11 437.17C132.11 437.17 130.99 444.27 129.5 448.16C129.5 448.16 126.04 463.22 123.49 476.67C123.49 476.67 121.32 491.82 119.76 496C119.76 496 116.07 504.84 116.93 497.59C116.93 497.59 118.76 492.72 118.81 483.85C118.81 483.85 118.69 458.95 118.34 454.45C118.34 454.45 118.46 441.02 119.78 434.06C119.79 434.05 126.69 395.39 127.85 393.81Z" stroke="black" stroke-width="0.75" stroke-miterlimit="10" stroke-linecap="round" stroke-linejoin="round"/>
        <path d="M27.8398 126.51C27.8398 126.51 28.7798 129.77 32.3198 134.53C32.3198 134.53 37.5598 139.86 37.6098 148.26C37.6098 148.26 37.0198 152.21 37.0498 157.58C37.0498 157.58 35.4398 164.22 30.3698 168.93C30.3698 168.93 24.3298 175.02 22.0898 174.59C22.0898 174.59 23.3898 168.21 24.0998 159.36C24.0998 159.36 25.2898 150.56 26.8598 145.78C26.8598 145.78 28.4398 140.48 28.0598 134.37L27.8398 126.51Z" stroke="black" stroke-width="0.75" stroke-miterlimit="10" stroke-linecap="round" stroke-linejoin="round"/>
        <path d="M154.25 126.51C154.25 126.51 153.31 129.77 149.77 134.53C149.77 134.53 144.53 139.86 144.48 148.26C144.48 148.26 145.07 152.21 145.04 157.58C145.04 157.58 146.65 164.22 151.72 168.93C151.72 168.93 157.76 175.02 160 174.59C160 174.59 158.7 168.21 157.99 159.36C157.99 159.36 156.8 150.56 155.23 145.78C155.23 145.78 153.65 140.48 154.03 134.37L154.25 126.51Z" stroke="black" stroke-width="0.75" stroke-miterlimit="10" stroke-linecap="round" stroke-linejoin="round"/>
        <path d="M27.8398 126.51C27.8398 126.51 26.6098 110.03 38.4098 99.05C38.4098 99.05 43.1698 99.5 47.4798 103.74C47.4798 103.74 52.4198 108.92 55.5798 110.55C55.5798 110.55 58.8798 113.71 57.8698 117.02C57.8698 117.02 57.2698 121.1 50.0098 125.44C50.0098 125.44 42.0698 133.27 37.7698 147.28C37.7698 147.28 37.3698 139.83 32.3198 134.54C32.3198 134.53 29.6298 131.27 27.8398 126.51Z" stroke="black" stroke-width="0.75" stroke-miterlimit="10" stroke-linecap="round" stroke-linejoin="round"/>
        <path d="M154.25 126.51C154.25 126.51 155.48 110.03 143.68 99.05C143.68 99.05 138.92 99.5 134.61 103.74C134.61 103.74 129.67 108.92 126.51 110.55C126.51 110.55 123.21 113.71 124.22 117.02C124.22 117.02 124.82 121.1 132.08 125.44C132.08 125.44 140.02 133.27 144.32 147.28C144.32 147.28 144.72 139.83 149.77 134.54C149.77 134.53 152.46 131.27 154.25 126.51Z" stroke="black" stroke-width="0.75" stroke-miterlimit="10" stroke-linecap="round" stroke-linejoin="round"/>
        <path d="M116.93 34.3901C116.33 30.8201 114.44 31.9401 114.44 31.9401C113.15 32.6701 113.37 30.7801 113.37 30.7801V21.5101C113.05 12.9301 106.62 6.30012 106.62 6.30012C101.13 0.810118 92.1103 0.370117 92.1103 0.370117H91.4103H91.0503H90.3503C90.3503 0.370117 81.3303 0.810118 75.8403 6.30012C75.8403 6.30012 69.4003 12.9301 69.0903 21.5101V30.7801C69.0903 30.7801 69.3103 32.6701 68.0203 31.9401C68.0203 31.9401 66.1303 30.8201 65.5303 34.3901C65.5303 34.3901 65.0103 41.2701 66.5203 44.1001C66.5203 44.1001 68.5803 48.5301 70.9503 47.5401C70.9503 47.5401 71.8503 47.1501 71.7703 49.6501C71.7703 49.6501 71.7703 52.9601 74.1303 54.6801C74.1303 54.6801 82.3803 60.8301 85.9903 62.1101C85.9903 62.1101 87.5203 62.6901 89.5503 62.8301V62.8601H92.2103V62.8501C94.6003 62.8301 96.4903 62.1101 96.4903 62.1101C100.1 60.8201 108.35 54.6801 108.35 54.6801C110.71 52.9601 110.71 49.6501 110.71 49.6501C110.62 47.1601 111.53 47.5401 111.53 47.5401C113.89 48.5301 115.96 44.1001 115.96 44.1001C117.45 41.2701 116.93 34.3901 116.93 34.3901Z" stroke="black" stroke-width="0.75" stroke-miterlimit="10"/>
        <path d="M4.76017 268.1C4.76017 268.1 4.48017 272.89 3.93017 277.13C3.93017 277.13 3.32017 281.15 5.09017 283.91C5.09017 283.91 6.41017 285.73 7.13017 290.74C7.13017 290.74 7.52017 294.05 9.06017 296.47C9.06017 296.47 11.8702 301.65 12.9202 302.53C12.9202 302.53 14.2202 304.22 14.5602 305.83" stroke="black" stroke-width="0.75" stroke-miterlimit="10" stroke-linecap="round" stroke-linejoin="round"/>
        <path d="M11.4405 282.92C11.4405 282.92 10.8205 289.86 12.4205 293.11L14.5305 296.98" stroke="black" stroke-width="0.75" stroke-miterlimit="10"/>
        <path d="M177.17 268.1C177.17 268.1 177.45 272.89 178 277.13C178 277.13 178.61 281.15 176.84 283.91C176.84 283.91 175.52 285.73 174.8 290.74C174.8 290.74 174.41 294.05 172.87 296.47C172.87 296.47 170.06 301.65 169.01 302.53C169.01 302.53 167.71 304.22 167.37 305.83" stroke="black" stroke-width="0.75" stroke-miterlimit="10" stroke-linecap="round" stroke-linejoin="round"/>
        <path d="M170.48 282.92C170.48 282.92 171.1 289.86 169.5 293.11L167.39 296.98" stroke="black" stroke-width="0.75" stroke-miterlimit="10"/>
        <path d="M43.7001 543.07C43.7001 543.07 44.6001 538.8 40.3501 540.29" stroke="black" stroke-width="0.75" stroke-miterlimit="10" stroke-linecap="round" stroke-linejoin="round"/>
        <path d="M43.5903 540.75C43.5903 540.75 45.9903 539.24 47.2103 541.04C47.2103 541.04 46.8503 542.81 47.2303 543.73" stroke="black" stroke-width="0.75" stroke-miterlimit="10" stroke-linecap="round" stroke-linejoin="round"/>
        <path d="M47.2104 541.04C47.2104 541.04 49.3804 540.35 51.4404 540.94C51.4404 540.94 51.0905 541.98 51.3105 543.57" stroke="black" stroke-width="0.75" stroke-miterlimit="10" stroke-linecap="round" stroke-linejoin="round"/>
        <path d="M51.4404 540.94C51.4404 540.94 54.4704 542.33 56.7604 540.41C56.7604 540.41 56.2004 541.29 56.4404 543.3" stroke="black" stroke-width="0.75" stroke-miterlimit="10" stroke-linecap="round" stroke-linejoin="round"/>
        <path d="M56.7603 540.41C56.7603 540.41 57.0603 539.15 60.1603 539.67C60.1603 539.67 62.1003 540.17 63.4403 538.94C63.4403 538.94 63.6903 538.53 64.4903 538.48" stroke="black" stroke-width="0.75" stroke-miterlimit="10" stroke-linecap="round" stroke-linejoin="round"/>
        <path d="M138.22 543.07C138.22 543.07 137.32 538.8 141.57 540.29" stroke="black" stroke-width="0.75" stroke-miterlimit="10" stroke-linecap="round" stroke-linejoin="round"/>
        <path d="M138.34 540.75C138.34 540.75 135.94 539.24 134.72 541.04C134.72 541.04 135.08 542.81 134.7 543.73" stroke="black" stroke-width="0.75" stroke-miterlimit="10" stroke-linecap="round" stroke-linejoin="round"/>
        <path d="M134.72 541.04C134.72 541.04 132.55 540.35 130.49 540.94C130.49 540.94 130.84 541.98 130.62 543.57" stroke="black" stroke-width="0.75" stroke-miterlimit="10" stroke-linecap="round" stroke-linejoin="round"/>
        <path d="M130.49 540.94C130.49 540.94 127.46 542.33 125.17 540.41C125.17 540.41 125.73 541.29 125.49 543.3" stroke="black" stroke-width="0.75" stroke-miterlimit="10" stroke-linecap="round" stroke-linejoin="round"/>
        <path d="M125.17 540.41C125.17 540.41 124.87 539.15 121.77 539.67C121.77 539.67 119.83 540.17 118.49 538.94C118.49 538.94 118.24 538.53 117.44 538.48" stroke="black" stroke-width="0.75" stroke-miterlimit="10" stroke-linecap="round" stroke-linejoin="round"/>
        <path d="M181.08 275.69C179.51 271.55 178.71 266.55 178.71 266.55C177.85 257.61 175.98 250.19 175.98 250.19C175.12 245.29 174.21 240.09 174.21 240.09C173.59 230.94 170.84 212.71 170.84 212.71C168.36 199.21 159.96 175.41 159.96 175.41C158.82 170.36 157.82 159.37 157.82 159.37C157.1 150.86 153.21 142.98 153.86 134.38C154.28 128.85 153.86 120.56 153.86 120.56C153.07 111.71 147.83 103.95 147.83 103.95C144.17 97.6701 133.98 93.1701 133.98 93.1701C122.36 86.6901 112.17 79.8701 112.17 79.8701C104.41 74.9301 106.83 61.2801 106.83 61.2801C107.23 58.2301 108.06 55.8301 108.64 54.4301C110.69 52.6601 110.7 49.6501 110.7 49.6501C110.61 47.1601 111.52 47.5401 111.52 47.5401C113.88 48.5301 115.95 44.1001 115.95 44.1001C117.45 41.2601 116.94 34.3901 116.94 34.3901C116.34 30.8201 114.45 31.9401 114.45 31.9401C113.16 32.6701 113.38 30.7801 113.38 30.7801V21.5101C113.06 12.9301 106.63 6.30012 106.63 6.30012C101.14 0.810118 92.1202 0.370117 92.1202 0.370117H91.4202H91.0602H90.3602C90.3602 0.370117 81.3402 0.810118 75.8502 6.30012C75.8502 6.30012 69.4102 12.9301 69.1002 21.5101V30.7801C69.1002 30.7801 69.3202 32.6701 68.0302 31.9401C68.0302 31.9401 66.1402 30.8201 65.5402 34.3901C65.5402 34.3901 65.0202 41.2701 66.5302 44.1001C66.5302 44.1001 68.5902 48.5301 70.9602 47.5401C70.9602 47.5401 71.8602 47.1501 71.7802 49.6501C71.7802 49.6501 71.7802 51.4501 72.7302 53.0801H72.6802C72.6802 53.0801 74.4702 56.3301 75.1102 61.2701C75.1102 61.2701 77.5302 74.9201 69.7702 79.8601C69.7702 79.8601 59.5802 86.6801 47.9602 93.1601C47.9602 93.1601 37.7702 97.6601 34.1102 103.94C34.1102 103.94 28.8702 111.7 28.0802 120.55C28.0802 120.55 27.6602 128.84 28.0802 134.37C28.7302 142.97 24.8402 150.85 24.1202 159.36C24.1202 159.36 23.1202 170.35 21.9802 175.4C21.9802 175.4 13.5902 199.2 11.1002 212.7C11.1002 212.7 8.35022 230.92 7.73022 240.08C7.73022 240.08 6.82022 245.28 5.96022 250.18C5.96022 250.18 4.09022 257.6 3.23022 266.54C3.23022 266.54 2.42022 271.54 0.86022 275.68C0.86022 275.68 -0.39978 280.32 1.21022 283.15C1.21022 283.15 3.48022 287.24 3.89022 292.74C4.03022 293.64 4.24022 294.56 4.69022 295.36C5.18022 296.22 5.85022 296.99 6.35022 297.86C7.01022 298.99 7.40022 300.25 8.04022 301.39C8.57022 302.34 9.22022 303.57 10.1902 304.14C10.1902 304.14 11.5302 305.69 11.9402 306.95C11.9402 306.95 12.8802 308.54 14.1502 307.44C14.1502 307.44 14.8902 306.91 14.5602 305.8C14.5602 305.8 16.8202 306.15 17.4902 303.5C17.4902 303.5 17.9202 301.76 16.5702 300.03C16.5702 300.03 15.1802 298.03 14.5302 296.95C14.5302 296.95 18.2102 294.42 16.3202 290.99C15.0302 289.3 13.8002 287.54 12.7202 285.71C11.9302 284.38 11.2302 283.16 11.3402 281.58C11.4502 280.08 11.8302 278.48 12.7602 277.27C13.7602 275.98 15.4902 275 17.1602 275.33C18.6402 275.63 19.4202 276.93 20.1602 278.11C20.9802 279.41 21.6902 280.79 22.2702 282.22C23.0102 284.02 24.5802 285.94 26.3902 286.69C27.7002 287.24 28.7602 287.02 29.8702 286.24C30.9702 285.47 31.4102 284.32 30.5802 283.15C30.5802 283.15 25.2402 276.91 23.3202 271.6C23.3202 271.6 20.3002 262.76 18.7402 260C18.7402 260 17.1402 255.29 20.5002 249.76C20.5002 249.76 30.6302 230.52 34.9302 221.07C34.9302 221.07 37.9002 214.83 40.5602 207.65C42.7902 201.62 44.8002 194.93 44.6202 190.76C44.2202 181.62 47.7002 171.91 47.7002 171.91L49.3302 167.59C49.3302 167.59 51.0402 174.56 51.5402 176.31C51.5402 176.31 52.6702 183.65 53.3702 185.66C53.3702 185.66 54.0402 188.34 54.1102 191.9C54.1102 191.9 53.7002 201.08 51.2902 206.02C51.2902 206.02 47.4302 216.56 46.7902 219.71C46.7902 219.71 42.9602 239.35 42.5802 240.78C42.5802 240.78 38.8302 264.83 38.2502 270.32C38.2502 270.32 36.7302 287.32 37.9102 298.18C37.9102 298.18 39.6202 326.59 40.2002 332.5C40.2002 332.5 42.2002 347.33 44.4502 359.07C44.4502 359.07 47.2802 369.23 45.5302 383.47C45.5302 383.47 43.5802 402.29 42.2402 413.61C42.2402 413.61 40.9902 430.29 43.2902 441.8C43.2902 441.8 44.8802 451.95 44.9902 455.38C44.9902 455.38 47.5902 473.11 48.5402 481.6C48.5402 481.6 50.1002 492.48 49.4302 500.54C49.4302 500.54 48.8202 513.61 48.0502 518.03C48.0502 518.03 44.0102 529.37 41.2602 533.79C41.2602 533.79 40.0402 535.52 40.2302 540.71C40.2302 540.71 40.1802 543.68 42.4102 543.68C42.4102 543.68 43.8002 543.56 43.8002 542.83C43.8002 542.83 44.4902 544.06 45.7602 544.06C45.7602 544.06 47.1502 544.14 47.1502 543.33C47.1502 543.33 47.8402 545.26 49.3502 545.26C49.3502 545.26 51.3102 545.26 51.3102 543.57C51.3102 543.57 52.1602 545.26 54.0102 545.26C54.0102 545.26 56.4402 545.49 56.4402 543.3C56.4402 543.3 56.9802 546.07 60.9802 546.07C60.9802 546.07 65.3702 546.38 65.3702 542.91C65.3702 542.91 66.1002 538.44 66.9502 536.36C66.9502 536.36 67.4502 533.24 66.2202 530.54C66.2202 530.54 64.7202 528.11 66.5302 524.3C66.5302 524.3 67.7602 521.49 67.5702 517.68C67.5702 517.68 67.6502 508.62 67.9702 505.71C67.9702 505.71 68.8702 500.86 67.6302 498.3C67.6302 498.3 67.3602 477.24 69.5102 464.9C69.5102 464.9 72.3002 444.7 74.4102 435.42C74.4102 435.42 75.8102 425.88 75.4502 416.18C75.4502 416.18 75.0902 408.08 74.3302 403.69C74.3302 403.69 73.5702 393.39 76.1002 387.23C76.1002 387.23 78.3802 380.48 78.2902 374.65C78.2902 374.65 79.3902 360.56 80.3202 354.9C80.3202 354.9 81.8402 333.8 83.4402 327.3C83.4402 327.3 86.6502 304.72 87.4902 291.77C87.4902 291.77 87.2402 276.11 88.4202 272.15C88.4202 272.15 89.2202 269.67 90.9702 269.47C92.7202 269.67 93.5202 272.15 93.5202 272.15C94.7002 276.12 94.4502 291.77 94.4502 291.77C95.2902 304.73 98.5002 327.3 98.5002 327.3C100.1 333.8 101.62 354.9 101.62 354.9C102.55 360.55 103.65 374.65 103.65 374.65C103.57 380.47 105.84 387.23 105.84 387.23C108.37 393.39 107.61 403.69 107.61 403.69C106.85 408.08 106.49 416.18 106.49 416.18C106.13 425.89 107.53 435.42 107.53 435.42C109.64 444.7 112.43 464.9 112.43 464.9C114.58 477.24 114.31 498.3 114.31 498.3C113.07 500.85 113.97 505.71 113.97 505.71C114.29 508.61 114.37 517.68 114.37 517.68C114.18 521.49 115.41 524.3 115.41 524.3C117.22 528.11 115.72 530.54 115.72 530.54C114.49 533.24 114.99 536.36 114.99 536.36C115.84 538.44 116.57 542.91 116.57 542.91C116.57 546.38 120.96 546.07 120.96 546.07C124.97 546.07 125.5 543.3 125.5 543.3C125.5 545.5 127.93 545.26 127.93 545.26C129.78 545.26 130.63 543.57 130.63 543.57C130.63 545.26 132.59 545.26 132.59 545.26C134.09 545.26 134.79 543.33 134.79 543.33C134.79 544.14 136.18 544.06 136.18 544.06C137.45 544.06 138.14 542.83 138.14 542.83C138.14 543.56 139.53 543.68 139.53 543.68C141.76 543.68 141.71 540.71 141.71 540.71C141.9 535.52 140.68 533.79 140.68 533.79C137.93 529.37 133.89 518.03 133.89 518.03C133.12 513.61 132.51 500.54 132.51 500.54C131.83 492.48 133.4 481.6 133.4 481.6C134.34 473.11 136.95 455.38 136.95 455.38C137.06 451.95 138.65 441.8 138.65 441.8C140.95 430.3 139.7 413.61 139.7 413.61C138.36 402.3 136.41 383.47 136.41 383.47C134.66 369.23 137.49 359.07 137.49 359.07C139.74 347.33 141.74 332.5 141.74 332.5C142.32 326.59 144.03 298.18 144.03 298.18C145.21 287.32 143.69 270.32 143.69 270.32C143.11 264.83 139.36 240.78 139.36 240.78C138.97 239.36 135.15 219.71 135.15 219.71C134.51 216.56 130.65 206.02 130.65 206.02C128.23 201.08 127.83 191.9 127.83 191.9C127.9 188.33 128.57 185.66 128.57 185.66C129.28 183.65 130.4 176.31 130.4 176.31C130.9 174.57 132.61 167.59 132.61 167.59L134.24 171.91C134.24 171.91 137.72 181.62 137.32 190.76C137.14 194.94 139.14 201.62 141.38 207.65C144.03 214.82 147.01 221.07 147.01 221.07C151.31 230.52 161.44 249.76 161.44 249.76C164.8 255.29 163.2 260 163.2 260C161.64 262.77 158.62 271.6 158.62 271.6C156.7 276.91 151.36 283.15 151.36 283.15C150.53 284.32 150.97 285.47 152.07 286.24C153.19 287.02 154.24 287.24 155.55 286.69C157.36 285.94 158.93 284.02 159.67 282.22C160.25 280.79 160.96 279.42 161.78 278.11C162.52 276.93 163.31 275.63 164.78 275.33C166.45 274.99 168.18 275.97 169.18 277.27C170.12 278.48 170.49 280.08 170.6 281.58C170.72 283.16 170.01 284.38 169.22 285.71C168.14 287.54 166.91 289.3 165.62 290.99C163.74 294.42 167.41 296.95 167.41 296.95C166.76 298.03 165.37 300.03 165.37 300.03C164.02 301.77 164.45 303.5 164.45 303.5C165.13 306.15 167.38 305.8 167.38 305.8C167.05 306.9 167.79 307.44 167.79 307.44C169.06 308.54 170 306.95 170 306.95C170.41 305.68 171.75 304.14 171.75 304.14C172.72 303.57 173.37 302.34 173.9 301.39C174.54 300.25 174.93 298.99 175.59 297.86C176.09 296.99 176.76 296.22 177.25 295.36C177.7 294.56 177.91 293.64 178.05 292.74C178.45 287.24 180.73 283.15 180.73 283.15C182.34 280.33 181.08 275.69 181.08 275.69Z" stroke="black" stroke-width="0.75" stroke-miterlimit="10" stroke-linecap="round" stroke-linejoin="round"/>
    </g>
    <defs>
        <clipPath id="clip0">
            <rect width="181.92" height="546.45" fill="white"/>
        </clipPath>
    </defs>
</svg>
