<svg width="104" height="98" viewBox="0 0 104 98" fill="none" xmlns="http://www.w3.org/2000/svg">
<path d="M100.877 33.9078C101.565 34.5705 102.004 35.5044 102.004 36.5487V92.3588C102.004 94.3671 100.388 95.9938 98.3929 95.9938H5.6071C3.61214 95.9938 1.99622 94.3671 1.99622 92.3588V36.5487C1.99622 35.5144 2.42513 34.5705 3.12337 33.9078" fill="white"/>
<path fill-rule="evenodd" clip-rule="evenodd" d="M4.21133 32.8751C4.78164 33.476 4.75687 34.4254 4.15601 34.9957C3.75015 35.381 3.49622 35.934 3.49622 36.5487V92.3588C3.49622 93.5481 4.44995 94.4938 5.6071 94.4938H98.3929C99.55 94.4938 100.504 93.5481 100.504 92.3588V36.5487C100.504 35.9351 100.248 35.3847 99.8362 34.9883C99.2394 34.4137 99.2215 33.4641 99.7961 32.8673C100.371 32.2706 101.32 32.2527 101.917 32.8273C102.882 33.7563 103.504 35.0736 103.504 36.5487V92.3588C103.504 95.1861 101.226 97.4938 98.3929 97.4938H5.6071C2.77432 97.4938 0.496216 95.1861 0.496216 92.3588V36.5487C0.496216 35.0948 1.10012 33.7601 2.09073 32.8198C2.6916 32.2495 3.64102 32.2743 4.21133 32.8751Z" fill="#11171C"/>
<path d="M51.5113 64.765L3.12341 33.9077L19.0133 19.5686H84.9868L100.877 33.9077L28.9482 79.2648" fill="white"/>
<path fill-rule="evenodd" clip-rule="evenodd" d="M18.0084 18.455C18.284 18.2063 18.6421 18.0686 19.0133 18.0686H84.9868C85.358 18.0686 85.7161 18.2063 85.9917 18.455L101.882 32.7941C102.23 33.1087 102.411 33.5684 102.371 34.0362C102.331 34.5041 102.074 34.9261 101.677 35.1765L29.7483 80.5336C29.0476 80.9754 28.1213 80.7656 27.6794 80.0649C27.2376 79.3641 27.4474 78.4378 28.1481 77.996L48.9247 64.8946L2.3169 35.1725C1.92212 34.9207 1.66754 34.499 1.62861 34.0324C1.58969 33.5658 1.77088 33.1078 2.11849 32.7941L18.0084 18.455ZM51.7301 63.1255L98.4019 33.695L84.41 21.0686H19.5901L5.59045 33.7019L51.7301 63.1255Z" fill="#11171C"/>
<path d="M19.0133 44.0396V9.28625C19.0133 5.26968 22.2551 2.00623 26.2451 2.00623H77.755C81.745 2.00623 84.9868 5.26968 84.9868 9.28625V43.9291" fill="white"/>
<path fill-rule="evenodd" clip-rule="evenodd" d="M26.2451 3.50623C23.0929 3.50623 20.5133 6.08869 20.5133 9.28625V44.0396C20.5133 44.868 19.8417 45.5396 19.0133 45.5396C18.1849 45.5396 17.5133 44.868 17.5133 44.0396V9.28625C17.5133 4.45068 21.4173 0.506226 26.2451 0.506226H77.755C82.5828 0.506226 86.4868 4.45068 86.4868 9.28625V43.9291C86.4868 44.7575 85.8152 45.4291 84.9868 45.4291C84.1584 45.4291 83.4868 44.7575 83.4868 43.9291V9.28625C83.4868 6.08869 80.9071 3.50623 77.755 3.50623H26.2451Z" fill="#11171C"/>
<path fill-rule="evenodd" clip-rule="evenodd" d="M4.21133 32.8751C4.78164 33.4759 4.75687 34.4254 4.15601 34.9957C3.75015 35.3809 3.49622 35.934 3.49622 36.5486V92.3587C3.49622 93.548 4.44995 94.4937 5.6071 94.4937H98.3929C99.55 94.4937 100.504 93.548 100.504 92.3587V36.5486C100.504 35.935 100.248 35.3846 99.8362 34.9882C99.2394 34.4136 99.2215 33.464 99.7961 32.8673C100.371 32.2705 101.32 32.2526 101.917 32.8272C102.882 33.7563 103.504 35.0736 103.504 36.5486V92.3587C103.504 95.186 101.226 97.4937 98.3929 97.4937H5.6071C2.77432 97.4937 0.496216 95.186 0.496216 92.3587V36.5486C0.496216 35.0947 1.10012 33.76 2.09073 32.8198C2.6916 32.2494 3.64102 32.2742 4.21133 32.8751Z" fill="#11171C"/>
<path fill-rule="evenodd" clip-rule="evenodd" d="M84.3317 18.9857C84.8865 18.3706 85.835 18.3216 86.4502 18.8765L101.881 32.7939C102.23 33.1084 102.411 33.5681 102.371 34.036C102.331 34.504 102.074 34.9261 101.677 35.1766L29.7483 80.5336C29.0475 80.9755 28.1213 80.7656 27.6794 80.0649C27.2375 79.3641 27.4474 78.4379 28.1481 77.996L98.4014 33.6953L84.441 21.1043C83.8258 20.5494 83.7769 19.6009 84.3317 18.9857Z" fill="#11171C"/>
<path fill-rule="evenodd" clip-rule="evenodd" d="M19.5981 19.0352C20.1532 19.6502 20.1047 20.5987 19.4898 21.1538L5.59014 33.7015L52.3178 63.5001C53.0163 63.9455 53.2214 64.8728 52.776 65.5713C52.3306 66.2698 51.4032 66.4749 50.7048 66.0295L2.3169 35.1723C1.92216 34.9205 1.66759 34.4989 1.62862 34.0324C1.58966 33.5658 1.77077 33.1078 2.11829 32.7941L17.4795 18.9269C18.0944 18.3718 19.043 18.4203 19.5981 19.0352Z" fill="#11171C"/>
<path d="M44.4391 28.7464C45.3205 28.7464 46.0351 28.0271 46.0351 27.1398C46.0351 26.2525 45.3205 25.5332 44.4391 25.5332C43.5577 25.5332 42.8431 26.2525 42.8431 27.1398C42.8431 28.0271 43.5577 28.7464 44.4391 28.7464Z" fill="#11171C"/>
<path d="M52 28.7464C52.8815 28.7464 53.596 28.0271 53.596 27.1398C53.596 26.2525 52.8815 25.5332 52 25.5332C51.1186 25.5332 50.4041 26.2525 50.4041 27.1398C50.4041 28.0271 51.1186 28.7464 52 28.7464Z" fill="#11171C"/>
<path d="M59.5609 28.7464C60.4424 28.7464 61.1569 28.0271 61.1569 27.1398C61.1569 26.2525 60.4424 25.5332 59.5609 25.5332C58.6795 25.5332 57.965 26.2525 57.965 27.1398C57.965 28.0271 58.6795 28.7464 59.5609 28.7464Z" fill="#11171C"/>
<path d="M47.2021 62.0137L84.9868 43.9291L52 64.9558L47.2021 62.0137Z" fill="#11171C"/>
<path fill-rule="evenodd" clip-rule="evenodd" d="M86.2981 43.2008C86.6832 43.8943 86.4619 44.7676 85.793 45.194L52.8063 66.2207C52.3225 66.5291 51.7051 66.5345 51.2159 66.2345L46.418 63.2924C45.9496 63.0051 45.6757 62.4847 45.7042 61.9359C45.7326 61.3872 46.0589 60.8979 46.5546 60.6607L84.3392 42.5761C85.0546 42.2336 85.913 42.5074 86.2981 43.2008ZM50.3368 62.1763L51.9846 63.1868L63.314 55.9651L50.3368 62.1763Z" fill="#11171C"/>
</svg>
