<svg width="24" height="24" viewBox="0 0 24 24" fill="none" xmlns="http://www.w3.org/2000/svg">
<path d="M0 12C0 5.37258 5.37258 0 12 0C18.6274 0 24 5.37258 24 12C24 18.6274 18.6274 24 12 24C5.37258 24 0 18.6274 0 12Z" fill="#2355F5"/>
<path d="M7.00402 12.604H11.3958V16.9958C11.3958 17.3216 11.6673 17.5999 11.9999 17.5999C12.3325 17.5999 12.6108 17.3216 12.6108 16.9958V12.604H16.9958C17.3216 12.604 17.5999 12.3325 17.5999 11.9999C17.5999 11.6673 17.3216 11.389 16.9958 11.389H12.6108V7.00402C12.6108 6.67821 12.3325 6.3999 11.9999 6.3999C11.6673 6.3999 11.3958 6.67821 11.3958 7.00402V11.389H7.00402C6.67821 11.389 6.3999 11.6673 6.3999 11.9999C6.3999 12.3325 6.67821 12.604 7.00402 12.604Z" fill="white"/>
<defs>
<linearGradient id="paint0_linear" x1="11.9999" y1="6.3999" x2="11.9999" y2="17.5999" gradientUnits="userSpaceOnUse">
<stop stop-color="white"/>
<stop offset="1" stop-color="white" stop-opacity="0"/>
</linearGradient>
</defs>
</svg>
