<svg width="24" height="24" viewBox="0 0 24 24" fill="none" xmlns="http://www.w3.org/2000/svg">
<path d="M0 12C0 5.37258 5.37258 0 12 0C18.6274 0 24 5.37258 24 12C24 18.6274 18.6274 24 12 24C5.37258 24 0 18.6274 0 12Z" fill="#BFC6CD"/>
<path d="M7.00415 12.6041H11.3959V16.9959C11.3959 17.3217 11.6674 17.6 12 17.6C12.3326 17.6 12.6109 17.3217 12.6109 16.9959V12.6041H16.9959C17.3217 12.6041 17.6 12.3326 17.6 12C17.6 11.6674 17.3217 11.3891 16.9959 11.3891H12.6109V7.00415C12.6109 6.67833 12.3326 6.40002 12 6.40002C11.6674 6.40002 11.3959 6.67833 11.3959 7.00415V11.3891H7.00415C6.67833 11.3891 6.40002 11.6674 6.40002 12C6.40002 12.3326 6.67833 12.6041 7.00415 12.6041Z" fill="white"/>
<defs>
<linearGradient id="paint0_linear" x1="12" y1="6.40002" x2="12" y2="17.6" gradientUnits="userSpaceOnUse">
<stop stop-color="white"/>
<stop offset="1" stop-color="white" stop-opacity="0"/>
</linearGradient>
</defs>
</svg>
