<svg width="24" height="24" viewBox="0 0 24 24" fill="none" xmlns="http://www.w3.org/2000/svg">
<g clip-path="url(#clip0)">
<path fill-rule="evenodd" clip-rule="evenodd" d="M22.9238 5.35107H1.07623C0.481794 5.35107 0 4.86928 0 4.27484C0 3.6804 0.481794 3.19861 1.07623 3.19861H22.9238C23.5182 3.19861 24 3.6804 24 4.27484C24 4.86928 23.5182 5.35107 22.9238 5.35107ZM22.9238 13.0763H1.07623C0.481794 13.0763 0 12.5945 0 12.0001C0 11.4056 0.481794 10.9238 1.07623 10.9238H22.9238C23.5182 10.9238 24 11.4056 24 12.0001C24 12.5945 23.5182 13.0763 22.9238 13.0763ZM1.07623 20.8015H22.9238C23.5182 20.8015 24 20.3197 24 19.7252C24 19.1308 23.5182 18.649 22.9238 18.649H1.07623C0.481794 18.649 0 19.1308 0 19.7252C0 20.3197 0.481794 20.8015 1.07623 20.8015Z" fill="#11171C"/>
</g>
<defs>
<clipPath id="clip0">
<rect width="24" height="24" fill="white"/>
</clipPath>
</defs>
</svg>
