<svg width="24" height="24" viewBox="0 0 24 24" fill="none" xmlns="http://www.w3.org/2000/svg">
<path d="M23.0565 18.8364C22.4522 17.4074 21.5872 16.1241 20.4853 15.0223C19.3835 13.9204 18.1003 13.0554 16.6712 12.4511C16.4775 12.369 16.2821 12.2927 16.0856 12.2214C17.6233 11.0004 18.6024 9.10631 18.5758 6.98434C18.5304 3.35846 15.5255 0.438458 11.8996 0.492812C8.314 0.546446 5.42388 3.47005 5.42388 7.06821C5.42388 9.15634 6.39722 11.017 7.91481 12.2214C7.71791 12.2927 7.52281 12.369 7.32915 12.4511C5.90011 13.0554 4.61685 13.9208 3.51501 15.0223C2.41317 16.1237 1.54783 17.4074 0.943456 18.8364C0.317485 20.3166 0 21.8881 0 23.508H24C24 21.8881 23.6825 20.3166 23.0565 18.8364Z" fill="#2355F5"/>
</svg>
