<svg width="24" height="24" viewBox="0 0 24 24" fill="none" xmlns="http://www.w3.org/2000/svg">
<path d="M11.9998 2.46205L21.8311 9.25078V21.6934H16.1794V15.6419C16.1794 13.649 14.558 12.0276 12.5651 12.0276H11.4349C9.44198 12.0276 7.82061 13.649 7.82061 15.6419V21.6934H2.16858V9.25078L11.9998 2.46205ZM11.9998 0.138062C11.7128 0.138062 11.4255 0.223359 11.1783 0.393954L0.624189 7.68182C0.233483 7.95181 0 8.39672 0 8.87164V22.4162C0 23.2146 0.64732 23.8619 1.44572 23.8619H8.54347C9.34187 23.8619 9.98919 23.2146 9.98919 22.4162V15.6419C9.98919 14.8435 10.6365 14.1962 11.4349 14.1962H12.5651C13.3635 14.1962 14.0108 14.8435 14.0108 15.6419V22.4162C14.0108 23.2146 14.6581 23.8619 15.4565 23.8619H22.5543C23.3527 23.8619 24 23.2146 24 22.4162V8.87164C24 8.39672 23.7665 7.95181 23.3758 7.68182L12.8213 0.393954C12.5741 0.223359 12.2872 0.138062 11.9998 0.138062Z" fill="#11171C"/>
</svg>
