<svg width="24" height="24" viewBox="0 0 24 24" fill="none" xmlns="http://www.w3.org/2000/svg">
<path d="M23.103 18.8658C22.496 17.4306 21.6273 16.1419 20.5208 15.0353C19.4142 13.9288 18.1255 13.0601 16.6903 12.4531C16.4958 12.3707 16.2996 12.2941 16.1022 12.2225C17.6465 10.9967 18.6298 9.09408 18.603 6.96304C18.5575 3.32165 15.5397 0.389157 11.8983 0.443743C8.29738 0.497607 5.3949 3.43371 5.3949 7.04727C5.3949 9.14433 6.3724 11.0129 7.89648 12.2225C7.69874 12.2941 7.50281 12.3707 7.30832 12.4531C5.87316 13.0601 4.58442 13.9291 3.47786 15.0353C2.37131 16.1415 1.50263 17.4303 0.895667 18.8658C0.419933 19.9908 0.121334 21.1689 0.004569 22.3803C-0.0565245 23.0118 0.443792 23.557 1.07822 23.557H1.0916C1.64976 23.557 2.11067 23.1308 2.16526 22.5755C2.38758 20.3067 3.37881 18.2024 5.01207 16.5692C6.8785 14.7028 9.3602 13.6746 11.9999 13.6746C14.6395 13.6746 17.1212 14.7028 18.9877 16.5692C20.6209 18.2024 21.6122 20.3067 21.8345 22.5755C21.8887 23.1308 22.35 23.557 22.9081 23.557H22.9215C23.5559 23.557 24.0559 23.0115 23.9952 22.3803C23.8773 21.1689 23.5787 19.9911 23.103 18.8658ZM8.86277 3.91125C9.70037 3.0733 10.8145 2.61202 11.9991 2.61202C13.1838 2.61202 14.2976 3.0733 15.1355 3.91125C15.9731 4.74885 16.4348 5.86299 16.4348 7.04763C16.4348 8.23226 15.9735 9.34605 15.1355 10.184C14.2979 11.0216 13.1838 11.4832 11.9991 11.4832C10.8145 11.4832 9.70073 11.022 8.86277 10.184C8.02518 9.34641 7.56354 8.23226 7.56354 7.04763C7.56354 5.86299 8.02518 4.74885 8.86277 3.91125Z" fill="#11171C"/>
</svg>
