<svg width="24" height="24" viewBox="0 0 24 24" fill="none" xmlns="http://www.w3.org/2000/svg">
<path d="M12.0037 23.8598C11.9983 23.8598 11.993 23.8598 11.9876 23.8598C11.499 23.853 11.0689 23.5362 10.9171 23.0718L10.906 23.0354L6.7249 5.04718L4.6924 15.3555H1.07211C0.480217 15.3555 0.000488281 14.8757 0.000488281 14.2838C0.000488281 13.6919 0.480217 13.2122 1.07211 13.2122H3.04067L5.58149 0.97574L5.58577 0.961451C5.72794 0.477793 6.16159 0.148092 6.66525 0.140233C7.17034 0.133803 7.61256 0.449217 7.76902 0.928231L7.78009 0.964666L12.0669 19.3219L15.4447 8.18846L15.4493 8.17524C15.6076 7.73373 16.0123 7.43654 16.4809 7.41832C16.9492 7.40046 17.3764 7.66479 17.5683 8.09272L19.8644 13.2122H22.9278C23.5197 13.2122 23.9994 13.6919 23.9994 14.2838C23.9994 14.8757 23.5197 15.3555 22.9278 15.3555H18.4777L16.6699 11.3247L13.0843 23.089L13.0796 23.1022C12.9167 23.5569 12.4856 23.8598 12.0037 23.8598Z" fill="#11171C"/>
</svg>
