<svg width="24" height="24" viewBox="0 0 24 24" fill="none" xmlns="http://www.w3.org/2000/svg">
<path fill-rule="evenodd" clip-rule="evenodd" d="M22.7025 4.80715L16.7371 9.6143V6.32731V5.89066H6.18771C3.99362 5.89066 2.21486 7.66941 2.21486 9.86351V11.9308C2.21486 12.5293 1.72981 13.0143 1.13136 13.0143C0.532901 13.0143 0.0478516 12.5293 0.0478516 11.9308V9.86351C0.0478516 6.4725 2.7967 3.72365 6.18771 3.72365H16.7371V3.28699V0L22.7025 4.80715ZM1.29736 19.1928L7.26277 14.3856V17.6726V18.1093H17.8121C20.0062 18.1093 21.7849 16.3305 21.7849 14.1364V12.0691C21.7849 11.4706 22.27 10.9856 22.8684 10.9856C23.4669 10.9856 23.952 11.4706 23.952 12.0691V14.1364C23.952 17.5275 21.2031 20.2763 17.8121 20.2763H7.26277V20.713V24L1.29736 19.1928Z" fill="#11171C"/>
</svg>
