<svg width="63" height="78" viewBox="0 0 63 78" fill="none" xmlns="http://www.w3.org/2000/svg">
<path d="M0 8C0 3.58172 3.58172 0 8 0H54.4C58.8183 0 62.4 3.58172 62.4 8V70C62.4 74.4183 58.8183 78 54.4 78H8C3.58172 78 0 74.4183 0 70V8Z" fill="#F6F8F9"/>
<path d="M20.467 18.3501C19.409 18.3501 18.5503 19.2088 18.5503 20.2668V27.7418C18.5503 28.7998 19.409 29.6584 20.467 29.6584H27.942C29 29.6584 29.8586 28.7998 29.8586 27.7418V20.2668C29.8586 19.2088 29 18.3501 27.942 18.3501H20.467Z" fill="#2355F5" fill-opacity="0.8"/>
<path d="M34.6501 32.5334C33.5921 32.5334 32.7334 33.3921 32.7334 34.4501V41.7334C32.7334 42.7914 33.5921 43.6501 34.6501 43.6501H41.9334C42.9914 43.6501 43.8501 42.7914 43.8501 41.7334V34.4501C43.8501 33.3921 42.9914 32.5334 41.9334 32.5334H34.6501Z" fill="#2355F5" fill-opacity="0.8"/>
<path d="M27.9615 30.4442H18.612C17.1324 30.4442 15.9287 29.2405 15.9287 27.7609V18.4114C15.9287 16.9317 17.1324 15.728 18.612 15.728H27.9615C29.4412 15.728 30.6449 16.9317 30.6449 18.4114V27.7609C30.6449 29.2405 29.4412 30.4442 27.9615 30.4442ZM18.612 17.2614C17.9776 17.2614 17.462 17.7769 17.462 18.4114V27.7609C17.462 28.3953 17.9776 28.9109 18.612 28.9109H27.9615C28.596 28.9109 29.1115 28.3953 29.1115 27.7609V18.4114C29.1115 17.7769 28.596 17.2614 27.9615 17.2614H18.612Z" fill="#11171C"/>
<path d="M43.7892 30.4442H34.4397C32.96 30.4442 31.7563 29.2405 31.7563 27.7609V18.4114C31.7563 16.9317 32.96 15.728 34.4397 15.728H43.7892C45.2689 15.728 46.4725 16.9317 46.4725 18.4114V27.7609C46.4725 29.2405 45.2689 30.4442 43.7892 30.4442ZM34.4397 17.2614C33.8053 17.2614 33.2897 17.7769 33.2897 18.4114V27.7609C33.2897 28.3953 33.8053 28.9109 34.4397 28.9109H43.7892C44.4236 28.9109 44.9392 28.3953 44.9392 27.7609V18.4114C44.9392 17.7769 44.4236 17.2614 43.7892 17.2614H34.4397Z" fill="#11171C"/>
<path d="M27.9615 46.2721H18.612C17.1324 46.2721 15.9287 45.0684 15.9287 43.5887V34.2392C15.9287 32.7596 17.1324 31.5559 18.612 31.5559H27.9615C29.4412 31.5559 30.6449 32.7596 30.6449 34.2392V43.5887C30.6449 45.0684 29.4412 46.2721 27.9615 46.2721ZM18.612 33.0892C17.9776 33.0892 17.462 33.6048 17.462 34.2392V43.5887C17.462 44.2231 17.9776 44.7387 18.612 44.7387H27.9615C28.596 44.7387 29.1115 44.2231 29.1115 43.5887V34.2392C29.1115 33.6048 28.596 33.0892 27.9615 33.0892H18.612Z" fill="#11171C"/>
<path d="M43.7892 46.2721H34.4397C32.96 46.2721 31.7563 45.0684 31.7563 43.5887V34.2392C31.7563 32.7596 32.96 31.5559 34.4397 31.5559H43.7892C45.2689 31.5559 46.4725 32.7596 46.4725 34.2392V43.5887C46.4725 45.0684 45.2689 46.2721 43.7892 46.2721ZM34.4397 33.0892C33.8053 33.0892 33.2897 33.6048 33.2897 34.2392V43.5887C33.2897 44.2231 33.8053 44.7387 34.4397 44.7387H43.7892C44.4236 44.7387 44.9392 44.2231 44.9392 43.5887V34.2392C44.9392 33.6048 44.4236 33.0892 43.7892 33.0892H34.4397Z" fill="#11171C"/>
<path d="M28.5731 58.992H26.6051V60.012H28.5731V64.02H29.8091V56.1H28.5731V58.992ZM26.6651 62.484L27.2771 61.524C25.6451 60.948 24.7331 59.604 24.7331 58.272V57.9H26.9891V56.904H21.1931V57.9H23.4851V58.272C23.4851 59.724 22.5011 61.176 20.8211 61.752L21.4571 62.724C22.7531 62.28 23.6531 61.356 24.1331 60.156C24.6011 61.224 25.4651 62.064 26.6651 62.484ZM30.0851 65.712H24.0251V63.336H22.7891V66.72H30.0851V65.712ZM40.9922 56.088H39.8162V66.924H40.9922V56.088ZM37.6322 56.304V60.288H36.1682V61.296H37.6322V66.396H38.7962V56.304H37.6322ZM35.0042 59.4V59.016H36.8642V57.996H35.0042V56.46H33.8282V57.996H31.9562V59.016H33.8282V59.4C33.8282 61.128 33.1202 62.988 31.6202 63.852L32.3282 64.788C33.3842 64.176 34.0442 63.12 34.4282 61.824C34.8242 63.024 35.5202 63.984 36.5402 64.548L37.2242 63.624C35.7362 62.82 35.0042 61.092 35.0042 59.4Z" fill="#11171C"/>
</svg>
