<svg width="64" height="78" viewBox="0 0 64 78" fill="none" xmlns="http://www.w3.org/2000/svg">
<path d="M0.799805 8C0.799805 3.58172 4.38153 0 8.7998 0H55.1998C59.6181 0 63.1998 3.58172 63.1998 8V70C63.1998 74.4183 59.6181 78 55.1998 78H8.7998C4.38152 78 0.799805 74.4183 0.799805 70V8Z" fill="white"/>
<path d="M49.0581 24.4834H46.5664V37.1334H49.0581V24.4834Z" fill="#E9EDEF"/>
<path d="M48.8223 27.1763L48.8146 27.2069H48.828C48.828 27.1974 48.8261 27.1859 48.8223 27.1763ZM15.1771 27.1763C15.1733 27.1859 15.1714 27.1974 15.1714 27.2069H15.1848L15.1771 27.1763Z" fill="#77818B"/>
<path d="M47.6281 38.2986C44.8758 44.1732 38.9053 48.2499 31.9996 48.2499C25.0938 48.2499 19.1234 44.1732 16.3711 38.2986H18.0846C20.7181 43.2992 25.9678 46.7166 31.9996 46.7166C38.0313 46.7166 43.2811 43.2992 45.9146 38.2986H47.6281Z" fill="#77818B"/>
<path d="M47.6281 23.7013H45.9146C43.2811 18.7007 38.0313 15.2833 31.9996 15.2833C25.9678 15.2833 20.7181 18.7007 18.0846 23.7013H16.3711C19.1234 17.8267 25.0938 13.75 31.9996 13.75C38.9053 13.75 44.8758 17.8267 47.6281 23.7013Z" fill="#77818B"/>
<path d="M49.9181 32.8458V29.1562L50.4375 27.0172C50.633 26.2122 50.4509 25.3766 49.9392 24.7268C49.4274 24.0752 48.6589 23.7014 47.8309 23.7014H45.4504C45.2491 23.7014 45.0517 23.7244 44.86 23.7666H44.8581C44.3502 23.8797 43.8883 24.1384 43.5241 24.5179C43.459 24.5831 43.3976 24.654 43.3401 24.7268C42.8284 25.3766 42.6482 26.2122 42.8437 27.0172L43.342 29.07V32.9282L42.8437 34.9829C42.6482 35.7879 42.8284 36.6236 43.3401 37.2733C43.3976 37.3462 43.459 37.4171 43.5241 37.4823C43.8883 37.8618 44.3521 38.1205 44.86 38.2336C45.0517 38.2758 45.2491 38.2987 45.4504 38.2987H47.8309C48.6589 38.2987 49.4274 37.925 49.9392 37.2733C50.4509 36.6236 50.633 35.7879 50.4375 34.9829L49.9181 32.8458ZM48.7336 36.3265C48.6148 36.4798 48.4614 36.5968 48.2909 36.6677C48.149 36.7328 47.9919 36.7654 47.8309 36.7654H45.4504C45.0958 36.7654 44.7661 36.6063 44.5457 36.3265C44.4269 36.1751 44.3502 35.9987 44.3176 35.8147C44.3119 35.7822 44.308 35.7496 44.3042 35.7151C44.2927 35.5943 44.3023 35.4678 44.333 35.3452L44.4365 34.9178L44.7393 33.67H48.54L48.8218 34.8238V34.8258L48.8448 34.9178L48.9483 35.3452C48.977 35.4678 48.9866 35.5924 48.977 35.7151C48.9579 35.9355 48.8754 36.1463 48.7336 36.3265ZM44.8754 32.1367V29.875H48.3848V32.1367H44.8754ZM48.9483 26.655L48.8218 27.1763C48.8256 27.1859 48.8275 27.1974 48.8275 27.207H48.8141L48.5381 28.3417H44.7431L44.4671 27.207L44.333 26.655C44.3138 26.5822 44.3042 26.5074 44.3023 26.4327C44.2965 26.3483 44.3023 26.2659 44.3176 26.1854C44.3502 26.0014 44.4269 25.8251 44.5457 25.6737C44.7661 25.3938 45.0958 25.2347 45.4504 25.2347H47.8309C47.9919 25.2347 48.149 25.2673 48.2909 25.3325C48.4614 25.4034 48.6148 25.5203 48.7336 25.6737C48.9061 25.8941 48.9904 26.1605 48.9789 26.4327C48.977 26.5074 48.9655 26.5822 48.9483 26.655Z" fill="#77818B"/>
<path d="M44.8603 38.2335C42.3265 42.7223 37.5118 45.7583 31.9995 45.7583C26.4872 45.7583 21.6725 42.7223 19.1387 38.2335C19.6466 38.1204 20.1104 37.8617 20.4746 37.4822C22.7458 41.5033 27.0603 44.225 31.9995 44.225C36.9388 44.225 41.2532 41.5033 43.5244 37.4822C43.8886 37.8617 44.3524 38.1204 44.8603 38.2335Z" fill="#77818B"/>
<path d="M44.8589 23.7665C44.351 23.8796 43.8891 24.1384 43.5249 24.5179C41.2537 20.4967 36.9393 17.775 32 17.775C27.0608 17.775 22.7464 20.4967 20.4751 24.5179C20.1109 24.1384 19.649 23.8796 19.1411 23.7665C21.673 19.2777 26.4877 16.2417 32 16.2417C37.5124 16.2417 42.327 19.2777 44.8589 23.7665Z" fill="#77818B"/>
<path d="M48.823 27.1763L48.8149 27.2085H48.8291C48.8291 27.1985 48.827 27.1864 48.823 27.1763Z" fill="#77818B"/>
<path d="M48.8291 27.2085H48.8149L48.823 27.1763C48.827 27.1864 48.8291 27.1985 48.8291 27.2085Z" fill="#E9EDEF"/>
<path d="M48.823 27.1763L48.8149 27.2085H48.8291C48.8291 27.1985 48.827 27.1864 48.823 27.1763Z" fill="#77818B"/>
<path d="M15.1774 27.1763C15.1734 27.1864 15.1714 27.1985 15.1714 27.2085H15.1855L15.1774 27.1763Z" fill="#77818B"/>
<path d="M15.1774 27.1763C15.1734 27.1864 15.1714 27.1985 15.1714 27.2085H15.1855L15.1774 27.1763Z" fill="#77818B"/>
<path d="M20.1164 24.4834H17.4331V37.1334H20.1164V24.4834Z" fill="#E9EDEF"/>
<path d="M20.6571 32.9282V29.07L21.1555 27.0172C21.351 26.2122 21.1708 25.3766 20.659 24.7268C20.6015 24.654 20.5402 24.5831 20.475 24.5179C20.1109 24.1384 19.649 23.8797 19.141 23.7666H19.1391C18.9475 23.7244 18.75 23.7014 18.5488 23.7014H16.1683C15.3403 23.7014 14.5717 24.0752 14.06 24.7268C13.5482 25.3766 13.3661 26.2122 13.5616 27.0172L14.0811 29.1562V32.8458L13.5616 34.9829C13.3661 35.7879 13.5482 36.6236 14.06 37.2733C14.5717 37.925 15.3403 38.2987 16.1683 38.2987H18.5488C18.75 38.2987 18.9475 38.2758 19.1391 38.2336C19.647 38.1205 20.1109 37.8618 20.475 37.4823C20.5402 37.4171 20.6015 37.3462 20.659 37.2733C21.1708 36.6236 21.351 35.7879 21.1555 34.9829L20.6571 32.9282ZM19.695 35.7151C19.6911 35.7496 19.6873 35.7822 19.6815 35.8147C19.649 35.9987 19.5723 36.1751 19.4535 36.3265C19.233 36.6063 18.9034 36.7654 18.5488 36.7654H16.1683C16.0073 36.7654 15.8501 36.7328 15.7083 36.6677C15.5377 36.5968 15.3844 36.4798 15.2655 36.3265C15.1237 36.1463 15.0413 35.9355 15.0221 35.7151C15.0125 35.5924 15.0221 35.4678 15.0509 35.3452L15.1544 34.9178L15.1774 34.8258V34.8238L15.4591 33.67H19.2599L19.5627 34.9178L19.6662 35.3452C19.6969 35.4678 19.7065 35.5943 19.695 35.7151ZM15.6144 32.1367V29.875H19.1238V32.1367H15.6144ZM19.6969 26.4327C19.695 26.5074 19.6854 26.5822 19.6662 26.655L19.532 27.207L19.256 28.3417H15.461L15.185 27.207H15.1716C15.1716 27.1974 15.1735 27.1859 15.1774 27.1763L15.0509 26.655C15.0336 26.5822 15.0221 26.5074 15.0202 26.4327C15.0087 26.1605 15.093 25.8941 15.2655 25.6737C15.3844 25.5203 15.5377 25.4034 15.7083 25.3325C15.8501 25.2673 16.0073 25.2347 16.1683 25.2347H18.5488C18.9034 25.2347 19.233 25.3938 19.4535 25.6737C19.5723 25.8251 19.649 26.0014 19.6815 26.1854C19.6969 26.2659 19.7026 26.3483 19.6969 26.4327Z" fill="#77818B"/>
<path d="M19.5819 61.716V56.124H18.5979V61.716H19.5819ZM17.5659 60.936L17.5179 60.216C17.0019 60.276 16.4739 60.336 15.9339 60.372V57.624H16.9899V56.844H11.2179V57.624H12.2739V60.516C12.0459 60.528 11.8179 60.528 11.5899 60.528H10.9299L11.0259 61.344C12.9219 61.344 15.4179 61.26 17.5659 60.936ZM13.2339 60.492V57.624H14.9859V60.42C14.3979 60.456 13.8219 60.48 13.2339 60.492ZM19.9899 65.988H13.5579V64.812H19.5819V62.232H12.5499V63H18.6099V64.08H12.5859V66.768H19.9899V65.988ZM31.7129 61.224V60.396H29.9489V56.112H28.9649V66.9H29.9489V61.224H31.7129ZM23.0609 63.48V60.984H26.9369V57.12H22.0649V57.924H25.9649V60.18H22.1009V64.296H22.9529C25.0049 64.296 26.4329 64.2 28.1249 63.912L28.0169 63.096C26.4089 63.42 25.0169 63.48 23.0609 63.48ZM41.708 56.112H40.772V66.876H41.708V56.112ZM38.612 56.388V60.204H37.052V61.008H38.612V66.336H39.536V56.388H38.612ZM33.92 63.492V61.104H36.476V60.324H33.92V58.212H36.98V57.408H32.972V64.296H33.668C35.36 64.296 36.38 64.272 37.592 64.02L37.508 63.216C36.392 63.444 35.42 63.492 33.92 63.492ZM52.3271 62.352L52.7711 61.536C50.8871 61.188 48.8471 59.532 48.8471 57.708V56.88H47.8151V57.708C47.8151 59.556 45.7751 61.152 43.9031 61.536L44.3471 62.352C45.9551 61.968 47.6591 60.816 48.3311 59.244C49.0031 60.828 50.6951 61.968 52.3271 62.352ZM53.2511 64.632H43.4951V65.448H53.2511V64.632Z" fill="#77818B"/>
<defs>
<linearGradient id="paint0_linear" x1="31.9998" y1="0" x2="31.9998" y2="78" gradientUnits="userSpaceOnUse">
<stop stop-color="white"/>
<stop offset="1" stop-color="white" stop-opacity="0"/>
</linearGradient>
</defs>
</svg>
