<svg width="63" height="78" viewBox="0 0 63 78" fill="none" xmlns="http://www.w3.org/2000/svg">
<path d="M0.200195 8C0.200195 3.58172 3.78192 0 8.2002 0H54.6002C59.0185 0 62.6002 3.58172 62.6002 8V70C62.6002 74.4183 59.0185 78 54.6002 78H8.20019C3.78191 78 0.200195 74.4183 0.200195 70V8Z" fill="#F6F8F9"/>
<path d="M24.6924 26.6261V41.7006C24.6924 43.4122 23.3048 44.8018 21.5913 44.8018H21.275C19.5634 44.7999 18.1758 43.4122 18.1758 41.6987V26.6261C18.1758 24.9126 19.5634 23.5249 21.2769 23.5249H21.5932C23.3048 23.5249 24.6924 24.9126 24.6924 26.6261Z" fill="#2355F5" fill-opacity="0.8"/>
<path d="M23.2983 40.9015V40.8958H24.8317L23.2983 40.9015Z" fill="#11171C"/>
<path d="M24.8319 21.5125V21.0946C24.8319 18.141 22.4303 15.7375 19.4767 15.7375C18.298 15.7375 17.1805 16.1132 16.2433 16.8224C14.894 17.8459 14.1196 19.4022 14.1196 21.0946V40.9015C14.1196 43.8455 16.5135 46.247 19.4671 46.2566V46.2624H48.6982V21.5125H24.8319ZM15.653 21.0946C15.653 19.8871 16.205 18.7755 17.171 18.0452C17.6367 17.6925 18.1657 17.4549 18.7292 17.3456C18.9726 17.2958 19.2237 17.2709 19.4767 17.2709C21.585 17.2709 23.2985 18.9863 23.2985 21.0946V37.141C23.287 37.1275 23.2736 37.116 23.2621 37.1026C22.2482 36.0887 20.9008 35.531 19.4671 35.531C18.7426 35.531 18.045 35.6785 17.4086 35.9488C16.7474 36.2267 16.1513 36.633 15.653 37.139V21.0946ZM21.7614 43.9662C21.0963 44.4645 20.3028 44.729 19.469 44.729V44.7252C17.3645 44.7195 15.653 43.006 15.653 40.9015V40.543C15.7622 39.3375 16.4426 38.2948 17.4086 37.6738C18.0066 37.2885 18.7158 37.0643 19.4671 37.0643C20.3469 37.0643 21.1806 37.3575 21.8572 37.9C21.9684 37.99 22.0757 38.0859 22.1773 38.1875C22.8999 38.91 23.2985 39.8722 23.2985 40.8957V40.9015C23.2985 42.1185 22.7389 43.236 21.7614 43.9662ZM47.1649 44.729H23.2219C24.2415 43.7285 24.8319 42.3428 24.8319 40.9015V23.0458H47.1649V44.729Z" fill="#11171C"/>
<path d="M19.4676 43.7016C17.9209 43.7016 16.6616 42.4424 16.6616 40.8956C16.6616 39.3489 17.9209 38.0916 19.4676 38.0916C21.0144 38.0916 22.2736 39.3508 22.2736 40.8976C22.2736 42.4443 21.0144 43.7016 19.4676 43.7016ZM19.4676 39.6249C18.7661 39.6249 18.195 40.1961 18.195 40.8976C18.195 41.5991 18.7661 42.1702 19.4676 42.1702C20.1691 42.1702 20.7403 41.5991 20.7403 40.8976C20.7403 40.1961 20.1691 39.6249 19.4676 39.6249Z" fill="#11171C"/>
<path d="M26.7546 27.6956C27.0595 27.6956 27.3066 27.4484 27.3066 27.1436C27.3066 26.8387 27.0595 26.5916 26.7546 26.5916C26.4498 26.5916 26.2026 26.8387 26.2026 27.1436C26.2026 27.4484 26.4498 27.6956 26.7546 27.6956Z" fill="#11171C"/>
<path d="M26.7546 29.9399C27.0595 29.9399 27.3066 29.6928 27.3066 29.3879C27.3066 29.0831 27.0595 28.8359 26.7546 28.8359C26.4498 28.8359 26.2026 29.0831 26.2026 29.3879C26.2026 29.6928 26.4498 29.9399 26.7546 29.9399Z" fill="#11171C"/>
<path d="M26.7546 32.1826C27.0595 32.1826 27.3066 31.9355 27.3066 31.6306C27.3066 31.3258 27.0595 31.0786 26.7546 31.0786C26.4498 31.0786 26.2026 31.3258 26.2026 31.6306C26.2026 31.9355 26.4498 32.1826 26.7546 32.1826Z" fill="#11171C"/>
<path d="M26.7546 34.427C27.0595 34.427 27.3066 34.1799 27.3066 33.875C27.3066 33.5701 27.0595 33.323 26.7546 33.323C26.4498 33.323 26.2026 33.5701 26.2026 33.875C26.2026 34.1799 26.4498 34.427 26.7546 34.427Z" fill="#11171C"/>
<path d="M26.7546 36.6714C27.0595 36.6714 27.3066 36.4242 27.3066 36.1194C27.3066 35.8145 27.0595 35.5674 26.7546 35.5674C26.4498 35.5674 26.2026 35.8145 26.2026 36.1194C26.2026 36.4242 26.4498 36.6714 26.7546 36.6714Z" fill="#11171C"/>
<path d="M26.7546 38.9138C27.0595 38.9138 27.3066 38.6667 27.3066 38.3618C27.3066 38.057 27.0595 37.8098 26.7546 37.8098C26.4498 37.8098 26.2026 38.057 26.2026 38.3618C26.2026 38.6667 26.4498 38.9138 26.7546 38.9138Z" fill="#11171C"/>
<path d="M26.7546 41.1584C27.0595 41.1584 27.3066 40.9113 27.3066 40.6064C27.3066 40.3016 27.0595 40.0544 26.7546 40.0544C26.4498 40.0544 26.2026 40.3016 26.2026 40.6064C26.2026 40.9113 26.4498 41.1584 26.7546 41.1584Z" fill="#11171C"/>
<path d="M28.7668 29.9399C29.0717 29.9399 29.3188 29.6928 29.3188 29.3879C29.3188 29.0831 29.0717 28.8359 28.7668 28.8359C28.462 28.8359 28.2148 29.0831 28.2148 29.3879C28.2148 29.6928 28.462 29.9399 28.7668 29.9399Z" fill="#11171C"/>
<path d="M28.7668 32.1826C29.0717 32.1826 29.3188 31.9355 29.3188 31.6306C29.3188 31.3258 29.0717 31.0786 28.7668 31.0786C28.462 31.0786 28.2148 31.3258 28.2148 31.6306C28.2148 31.9355 28.462 32.1826 28.7668 32.1826Z" fill="#11171C"/>
<path d="M28.7668 34.427C29.0717 34.427 29.3188 34.1799 29.3188 33.875C29.3188 33.5701 29.0717 33.323 28.7668 33.323C28.462 33.323 28.2148 33.5701 28.2148 33.875C28.2148 34.1799 28.462 34.427 28.7668 34.427Z" fill="#11171C"/>
<path d="M28.7668 36.6714C29.0717 36.6714 29.3188 36.4242 29.3188 36.1194C29.3188 35.8145 29.0717 35.5674 28.7668 35.5674C28.462 35.5674 28.2148 35.8145 28.2148 36.1194C28.2148 36.4242 28.462 36.6714 28.7668 36.6714Z" fill="#11171C"/>
<path d="M28.7668 38.9138C29.0717 38.9138 29.3188 38.6667 29.3188 38.3618C29.3188 38.057 29.0717 37.8098 28.7668 37.8098C28.462 37.8098 28.2148 38.057 28.2148 38.3618C28.2148 38.6667 28.462 38.9138 28.7668 38.9138Z" fill="#11171C"/>
<path d="M19.467 39.625C18.7655 39.625 18.1943 40.1962 18.1943 40.8977C18.1943 41.5992 18.7655 42.1703 19.467 42.1703C20.1685 42.1703 20.7397 41.5992 20.7397 40.8977C20.7397 40.1962 20.1685 39.625 19.467 39.625Z" fill="#2355F5" fill-opacity="0.8"/>
<path d="M30.8493 64.584H28.5333V61.764C29.3973 61.272 29.9133 60.504 29.9133 59.544C29.9133 57.816 28.2333 56.712 25.9293 56.712C23.6133 56.712 21.9453 57.816 21.9453 59.544C21.9453 60.504 22.4613 61.284 23.3253 61.764V64.584H21.0333V65.592H30.8493V64.584ZM25.9293 57.684C27.5613 57.684 28.7013 58.404 28.7013 59.544C28.7013 60.696 27.5613 61.416 25.9293 61.416C24.2853 61.416 23.1453 60.696 23.1453 59.544C23.1453 58.404 24.2853 57.684 25.9293 57.684ZM24.5613 64.584V62.232C24.9813 62.328 25.4373 62.376 25.9293 62.376C26.4093 62.376 26.8773 62.328 27.2973 62.22V64.584H24.5613ZM41.9844 61.392V60.36H40.3404V56.076H39.1044V66.912H40.3404V61.392H41.9844ZM37.5084 57.228H32.4804V58.236H36.2724C36.0204 60.72 34.5684 62.64 31.9404 63.996L32.6244 64.944C36.1644 63.156 37.5084 60.372 37.5084 57.228Z" fill="#11171C"/>
</svg>
