<svg width="63" height="78" viewBox="0 0 63 78" fill="none" xmlns="http://www.w3.org/2000/svg">
<path d="M0.600098 8C0.600098 3.58172 4.18182 0 8.6001 0H55.0001C59.4184 0 63.0001 3.58172 63.0001 8V70C63.0001 74.4183 59.4184 78 55.0001 78H8.60009C4.18182 78 0.600098 74.4183 0.600098 70V8Z" fill="white"/>
<path d="M22.6133 35.712C22.3601 35.4588 22.1605 35.1634 22.0225 34.8355C21.8781 34.4963 21.8066 34.1343 21.8066 33.761C21.8066 33.3877 21.8797 33.0273 22.0225 32.6881C22.1621 32.3586 22.3601 32.0648 22.6133 31.81C22.8682 31.5567 23.162 31.3571 23.4915 31.2175C23.8307 31.073 24.1927 31 24.566 31C24.9393 31 25.2997 31.073 25.6405 31.2175C25.9684 31.3555 26.2638 31.5551 26.5187 31.8083C26.7719 32.0615 26.9715 32.357 27.1095 32.6848C27.2539 33.0241 27.3254 33.386 27.3254 33.7594C27.3254 34.1327 27.2523 34.493 27.1095 34.8323C26.9699 35.1618 26.7719 35.4556 26.517 35.7104C26.2638 35.9636 25.9684 36.1632 25.6389 36.3028C24.9604 36.5901 24.1716 36.5901 23.4915 36.3028C23.162 36.1649 22.8666 35.9652 22.6133 35.712Z" fill="#E9EDEF"/>
<path d="M25.2168 38.2203C25.7171 38.0095 26.1656 37.7067 26.5489 37.3214C26.7598 37.1106 26.9438 36.8787 27.1048 36.6314L29.9299 37.6262L29.3511 39.2707C29.2112 39.6693 29.4201 40.1082 29.8207 40.2482C29.905 40.2769 29.9913 40.2922 30.0756 40.2922C30.3918 40.2922 30.687 40.0948 30.7982 39.7805L32.4695 35.031C32.6094 34.6323 32.4005 34.1934 31.9999 34.0535C31.5993 33.9136 31.1623 34.1225 31.0224 34.5231L30.4378 36.181L27.6893 35.2131C27.7468 34.9332 27.7775 34.6477 27.7775 34.3583C27.7775 33.7928 27.6663 33.2428 27.4478 32.7253C27.237 32.225 26.9342 31.7784 26.5489 31.3932C26.1637 31.0079 25.7152 30.707 25.2168 30.4943C24.1818 30.0573 22.9878 30.0573 21.9528 30.4943C21.4544 30.7051 21.0059 31.0079 20.6207 31.3932C20.2354 31.7784 19.9345 32.225 19.7218 32.7253C19.5033 33.2428 19.3921 33.7909 19.3921 34.3583C19.3921 34.9237 19.5033 35.4737 19.7218 35.9912C19.9326 36.4915 20.2354 36.9381 20.6207 37.3233C21.0059 37.7086 21.4544 38.0095 21.9528 38.2222C22.4703 38.4407 23.0184 38.5519 23.5858 38.5519C24.1531 38.5519 24.6993 38.4388 25.2168 38.2203ZM21.7036 36.2385C21.4602 35.9932 21.2666 35.7095 21.1343 35.3932C20.9963 35.0655 20.9254 34.7167 20.9254 34.3583C20.9254 33.9979 20.9963 33.651 21.1343 33.3233C21.2685 33.007 21.4602 32.7214 21.7036 32.478C21.9489 32.2327 22.2326 32.041 22.5488 31.9068C22.8766 31.7688 23.2254 31.6979 23.5838 31.6979C23.9423 31.6979 24.2911 31.7688 24.6188 31.9068C24.9351 32.041 25.2188 32.2327 25.4641 32.4761C25.7075 32.7214 25.9011 33.0051 26.0333 33.3213C26.1713 33.6491 26.2423 33.9979 26.2423 34.3563C26.2423 34.7167 26.1713 35.0636 26.0333 35.3913C25.8992 35.7076 25.7075 35.9932 25.4622 36.2366C25.2168 36.4819 24.9332 36.6736 24.6169 36.8077C23.9633 37.0857 23.2024 37.0857 22.5469 36.8077C22.2326 36.6755 21.947 36.4819 21.7036 36.2385Z" fill="#77818B"/>
<path d="M47.287 42.0403C48.4466 40.9862 49.1749 39.4663 49.1749 37.7777C49.1749 35.3378 47.6282 33.1528 45.3263 32.342L38.7924 30.042L43.2333 20.1578H45.4144L47.4135 16.7365C47.6263 16.3704 47.5036 15.9008 47.1375 15.6881C46.7714 15.4753 46.3019 15.598 46.0891 15.9641L44.5347 18.6263H38.892C38.4684 18.6263 38.1254 18.9694 38.1254 19.393C38.1254 19.8166 38.4684 20.1597 38.892 20.1597H41.5524L37.3414 29.5322L26.6196 25.7563C25.3623 25.3136 24.0666 25.1526 22.7997 25.258L22.3263 22.5459H24.0781C25.1534 22.5459 26.0293 21.67 26.0293 20.5948C26.0293 19.6633 25.3642 18.8563 24.4499 18.6781L19.2711 17.6718C18.698 17.5607 18.1096 17.7102 17.6573 18.082C17.2069 18.4538 16.9462 19.002 16.9462 19.5885V20.5948C16.9462 21.67 17.8221 22.5459 18.8974 22.5459H20.768L21.2855 25.5168C20.2314 25.7928 19.2194 26.2604 18.2898 26.9198C15.8345 28.6582 14.4258 31.3798 14.4258 34.389C14.4258 37.5649 16.053 40.3671 18.514 42.0078H16.6702C15.4646 42.0078 14.4833 42.9891 14.4833 44.1947V44.2292C14.4833 45.4348 15.4646 46.4161 16.6702 46.4161H46.9267C48.1323 46.4161 49.1136 45.4348 49.1136 44.2292V44.1947C49.1155 43.1118 48.322 42.2128 47.287 42.0403ZM18.8974 21.0126C18.6674 21.0126 18.4795 20.8248 18.4795 20.5948V19.5885C18.4795 19.416 18.5754 19.3125 18.6309 19.2665C18.6789 19.2282 18.7689 19.1707 18.8935 19.1707C18.9204 19.1707 18.9472 19.1726 18.9759 19.1783L24.1548 20.1846C24.3503 20.2229 24.494 20.3954 24.494 20.5948C24.494 20.8248 24.3062 21.0126 24.0762 21.0126H18.8974ZM15.9591 34.389C15.9591 31.8839 17.1321 29.6184 19.1753 28.1713C20.492 27.2398 22.0081 26.7607 23.5529 26.7607C24.4059 26.7607 25.2684 26.9063 26.1079 27.2034L44.8164 33.7891C46.5069 34.3833 47.6416 35.9875 47.6416 37.7777C47.6416 40.1103 45.7441 42.0078 43.4115 42.0078H23.5779C19.3765 42.0078 15.9591 38.5903 15.9591 34.389ZM47.5822 44.2311C47.5822 44.5914 47.2889 44.8847 46.9286 44.8847H16.6721C16.3118 44.8847 16.0185 44.5914 16.0185 44.2311V44.1966C16.0185 43.8363 16.3118 43.543 16.6721 43.543H46.9286C47.2889 43.543 47.5822 43.8363 47.5822 44.1966V44.2311Z" fill="#77818B"/>
<path d="M18.8973 21.0126C18.6673 21.0126 18.4795 20.8247 18.4795 20.5947V19.5885C18.4795 19.416 18.5753 19.3125 18.6309 19.2665C18.6788 19.2282 18.7689 19.1707 18.8935 19.1707C18.9203 19.1707 18.9472 19.1726 18.9759 19.1783L24.1547 20.1846C24.3502 20.2229 24.494 20.3954 24.494 20.5947C24.494 20.8247 24.3062 21.0126 24.0762 21.0126H18.8973Z" fill="#E9EDEF"/>
<path d="M20.8457 61.248C23.0897 61.248 24.6137 60.348 24.6137 58.896C24.6137 57.456 23.0897 56.556 20.8457 56.556C18.6017 56.556 17.0897 57.456 17.0897 58.896C17.0897 60.348 18.6017 61.248 20.8457 61.248ZM20.8457 57.348C22.4897 57.348 23.6057 57.948 23.6057 58.896C23.6057 59.856 22.4897 60.456 20.8457 60.456C19.2137 60.456 18.0977 59.856 18.0977 58.896C18.0977 57.948 19.2137 57.348 20.8457 57.348ZM25.7417 63.06V62.256H15.9977V63.06H18.5057V66.888H19.5017V63.06H22.2017V66.888H23.1977V63.06H25.7417ZM36.8648 59.424H35.2688V56.112H34.2848V64.068H35.2688V60.24H36.8648V59.424ZM32.7008 62.316L33.1928 61.536C31.6088 60.96 30.5408 59.604 30.5408 58.128V56.772H29.5568V58.104C29.5568 59.772 28.5128 61.224 26.8688 61.8L27.3848 62.58C28.6808 62.1 29.6288 61.14 30.0728 59.844C30.5528 60.996 31.4888 61.872 32.7008 62.316ZM29.5808 65.844V63.312H28.5968V66.648H35.7368V65.844H29.5808ZM46.7038 62.196L47.1238 61.38C45.2398 61.056 43.1878 59.46 43.1878 57.672V56.844H42.1558V57.672C42.1558 59.46 40.1158 61.056 38.2318 61.38L38.6398 62.196C40.2958 61.848 41.9638 60.732 42.6718 59.196C43.3798 60.732 45.0598 61.836 46.7038 62.196ZM47.6038 64.68H43.1638V62.064H42.1798V64.68H37.8358V65.484H47.6038V64.68Z" fill="#77818B"/>
<defs>
<linearGradient id="paint0_linear" x1="31.8001" y1="0" x2="31.8001" y2="78" gradientUnits="userSpaceOnUse">
<stop stop-color="white"/>
<stop offset="1" stop-color="white" stop-opacity="0"/>
</linearGradient>
</defs>
</svg>
