<svg width="63" height="78" viewBox="0 0 63 78" fill="none" xmlns="http://www.w3.org/2000/svg">
<path d="M0.399902 8C0.399902 3.58172 3.98162 0 8.3999 0H54.7999C59.2182 0 62.7999 3.58172 62.7999 8V70C62.7999 74.4183 59.2182 78 54.7999 78H8.3999C3.98162 78 0.399902 74.4183 0.399902 70V8Z" fill="white"/>

<g clip-path="url(#clip0)">
<path opacity="0.7" d="M30.7107 43.7725L30.2833 44.1999C29.4227 45.0605 28.0254 45.0605 27.1649 44.1999L21.1523 38.1874C20.2917 37.3268 20.2917 35.9295 21.1523 35.0689L21.5797 34.6415C22.4403 33.7809 23.8375 33.7809 24.6981 34.6415L30.7107 40.6541C31.5732 41.5147 31.5732 42.91 30.7107 43.7725Z" fill="#E9EDEF"/>
<path opacity="0.7" d="M35.144 21.0755L35.5714 20.6481C36.432 19.7875 37.8292 19.7875 38.6898 20.6481L44.7024 26.6607C45.563 27.5213 45.563 28.9185 44.7024 29.7791L44.275 30.2065C43.4144 31.0671 42.0171 31.0671 41.1566 30.2065L35.144 24.194C34.2834 23.3334 34.2834 21.9361 35.144 21.0755Z" fill="#E9EDEF"/>
<path d="M46.0152 24.351L44.4933 22.8272L44.4876 22.8215L45.2006 22.1085C45.7181 21.591 46.0017 20.9048 46.0017 20.1746C46.0017 19.4443 45.7181 18.7562 45.2006 18.2406L44.3227 17.3628C43.2551 16.2971 41.5206 16.2971 40.4549 17.3628L39.7419 18.0758L39.7342 18.0681L38.2507 16.5846C37.1831 15.5171 35.4486 15.519 34.3829 16.5846L33.346 17.6216C32.3263 17.1251 31.0594 17.2976 30.2141 18.1429L29.8078 18.5492C28.7421 19.6149 28.7421 21.3514 29.8078 22.4171L33.2578 25.8671L26.4747 32.6521L23.0247 29.2021C21.9591 28.1364 20.2226 28.1364 19.1569 29.2021L18.7506 29.6084C17.9053 30.4536 17.7328 31.7206 18.2292 32.7402L17.1923 33.7771C16.1266 34.8428 16.1266 36.5793 17.1923 37.645L18.7218 39.1745L18.0088 39.8875C17.4913 40.405 17.2076 41.0911 17.2076 41.8214C17.2076 42.5516 17.4913 43.2397 18.0088 43.7553L18.8866 44.6331C19.4195 45.166 20.121 45.4324 20.8206 45.4324C21.5201 45.4324 22.2216 45.166 22.7545 44.6331L23.4675 43.9201L23.4732 43.9259L24.9606 45.4132C25.4781 45.9307 26.1642 46.2144 26.8945 46.2144C27.6247 46.2144 28.3128 45.9307 28.8284 45.4132L29.8653 44.3763C30.2429 44.5603 30.6531 44.6542 31.0632 44.6542C31.7628 44.6542 32.4643 44.3878 32.9971 43.855L33.4035 43.4486C34.4691 42.383 34.4691 40.6465 33.4035 39.5808L30.4614 36.6387L37.2464 29.8537L40.1885 32.7958C40.7213 33.3286 41.4228 33.5951 42.1224 33.5951C42.8239 33.5951 43.5235 33.3286 44.0563 32.7958L44.4626 32.3895C45.3079 31.5442 45.4804 30.2773 44.984 29.2576L46.0209 28.2207C47.0827 27.1531 47.0827 25.4186 46.0152 24.351ZM41.5378 18.4476C42.0074 17.98 42.7683 17.98 43.2379 18.4476L44.1157 19.3255C44.3419 19.5516 44.4684 19.8545 44.4684 20.1765C44.4684 20.4966 44.3438 20.7994 44.1157 21.0256L43.4027 21.7386L40.8248 19.1606L41.5378 18.4476ZM21.662 43.5521C21.1924 44.0217 20.4315 44.0198 19.9619 43.5521L19.0841 42.6743C18.8579 42.4481 18.7314 42.1453 18.7314 41.8233C18.7314 41.5032 18.856 41.2004 19.0841 40.9742L19.7971 40.2612L22.375 42.8391L21.662 43.5521ZM27.7359 44.3303C27.5097 44.5565 27.2069 44.683 26.8868 44.683C26.5667 44.683 26.2639 44.5584 26.0358 44.3303L24.5446 42.8372L24.5389 42.8315L24.5561 42.8123L19.8086 38.0647L19.7913 38.0839L18.2695 36.5621C17.7999 36.0925 17.7999 35.3316 18.2695 34.862L19.1991 33.9324L22.2561 36.9895L28.6655 43.3988L27.7359 44.3303ZM32.3129 40.6656C32.7806 41.1352 32.7806 41.8961 32.3129 42.3657L31.9066 42.7721C31.4389 43.2397 30.6761 43.2397 30.2084 42.7721L19.8277 32.3914C19.3601 31.9218 19.3601 31.1609 19.8277 30.6913L20.2341 30.285C20.4679 30.0511 20.7765 29.9342 21.0851 29.9342C21.3936 29.9342 21.7003 30.0511 21.9341 30.285L25.3841 33.735L29.3689 37.7197L32.3129 40.6656ZM29.3708 35.5539L27.5538 33.7369L34.3388 26.9538L36.1558 28.7708L29.3708 35.5539ZM43.3721 31.3066L42.9657 31.7129C42.4981 32.1825 41.7352 32.1825 41.2656 31.7129L38.3236 28.7708L34.3388 24.7861L30.8888 21.3361C30.4192 20.8665 30.4192 20.1056 30.8888 19.636L31.2951 19.2296C31.529 18.9958 31.8376 18.8789 32.1461 18.8789C32.4528 18.8789 32.7614 18.9958 32.9952 19.2296L42.868 29.1024L43.374 29.6084C43.8416 30.0741 43.8416 30.837 43.3721 31.3066ZM44.9303 27.1359L44.0007 28.0655L34.5343 18.5991L35.4639 17.6695C35.9335 17.2018 36.6944 17.1999 37.164 17.6695L38.6551 19.1626L38.6628 19.1702L38.6456 19.1894L43.3778 23.9216L43.397 23.9044L43.4027 23.9101L44.9303 25.4377C45.3999 25.9054 45.3999 26.6682 44.9303 27.1359Z" fill="#77818B"/>
</g>
<path d="M26.525 57.936V57.18H24.353V56.1H23.381V57.18H21.197V57.936H26.525ZM30.341 62.148V56.136H29.393V62.148H30.341ZM27.449 58.956H26.261V59.748H27.449V62.076H28.385V56.304H27.449V58.956ZM26.093 60.156C26.093 59.064 25.181 58.368 23.873 58.368C22.553 58.368 21.641 59.064 21.641 60.156C21.641 61.224 22.553 61.932 23.873 61.932C25.181 61.932 26.093 61.224 26.093 60.156ZM22.505 60.156C22.505 59.484 23.057 59.088 23.873 59.088C24.689 59.088 25.229 59.484 25.229 60.156C25.229 60.828 24.689 61.224 23.873 61.224C23.057 61.224 22.505 60.828 22.505 60.156ZM30.725 66.024H24.233V65.004H30.341V62.628H23.237V63.36H29.369V64.296H23.261V66.768H30.725V66.024ZM41.0081 62.352L41.4521 61.536C39.5681 61.188 37.5281 59.532 37.5281 57.708V56.88H36.4961V57.708C36.4961 59.556 34.4561 61.152 32.5841 61.536L33.0281 62.352C34.6361 61.968 36.3401 60.816 37.0121 59.244C37.6841 60.828 39.3761 61.968 41.0081 62.352ZM41.9321 64.632H32.1761V65.448H41.9321V64.632Z" fill="#77818B"/>
<defs>
<linearGradient id="paint0_linear" x1="31.5999" y1="0" x2="31.5999" y2="78" gradientUnits="userSpaceOnUse">
<stop stop-color="white"/>
<stop offset="1" stop-color="white" stop-opacity="0"/>
</linearGradient>
<clipPath id="clip0">
<rect width="46" height="46" fill="white" transform="translate(8.6001 8)"/>
</clipPath>
</defs>
</svg>
