<svg width="18" height="18" viewBox="0 0 18 18" fill="none" xmlns="http://www.w3.org/2000/svg">
<path d="M8.99986 0C4.02949 0 0 4.02949 0 9.00013C0 13.9708 4.02949 18 8.99986 18C13.9702 18 17.9997 13.9705 17.9997 9.00013C17.9997 4.02976 13.9705 0 8.99986 0ZM12.8157 6.35501L8.90228 12.4045C8.51139 13.0087 7.65101 13.0716 7.17663 12.5303L5.25555 10.3392C4.95954 10.0015 4.99315 9.48779 5.3309 9.19178C5.66866 8.89577 6.18234 8.92939 6.47835 9.26714L7.92615 10.9188L11.4501 5.47159C11.694 5.09453 12.1974 4.98664 12.5745 5.23061C12.9518 5.47457 13.0597 5.97795 12.8157 6.35501Z" fill="white"/>
<defs>
<linearGradient id="paint0_linear" x1="8.99986" y1="0" x2="8.99986" y2="18" gradientUnits="userSpaceOnUse">
<stop stop-color="white"/>
<stop offset="1" stop-color="white" stop-opacity="0"/>
</linearGradient>
</defs>
</svg>
