<svg width="30" height="30" viewBox="0 0 30 30" fill="none" xmlns="http://www.w3.org/2000/svg">
<path d="M17.3031 29.265C18.0653 29.265 18.49 28.7205 18.49 27.8821V25.0508H19.0127C22.2577 25.0508 24 23.265 24 20.0635V11.7223C24 8.52089 22.2577 6.73505 19.0127 6.73505H4.9873C1.74229 6.73505 0 8.53178 0 11.7223V20.0635C0 23.2541 1.74229 25.0508 4.9873 25.0508H11.9782L15.735 28.3938C16.3993 28.9819 16.7695 29.265 17.3031 29.265ZM16.8566 27.2723L13.3721 23.8095C12.9583 23.3848 12.6534 23.2977 12.0436 23.2977H4.9873C2.79855 23.2977 1.75318 22.1761 1.75318 20.0527V11.7223C1.75318 9.59893 2.79855 8.48822 4.9873 8.48822H19.0127C21.2123 8.48822 22.2468 9.59893 22.2468 11.7223V20.0527C22.2468 22.1761 21.2123 23.2977 19.0127 23.2977H17.6733C17.0853 23.2977 16.8566 23.5263 16.8566 24.1144V27.2723Z" fill="#11171C"/>
<rect x="15" y="1" width="14" height="14" rx="7" fill="#2355F5"/>
<rect x="15" y="1" width="14" height="14" rx="7" stroke="white" stroke-width="2"/>
<defs>
<linearGradient id="paint0_linear" x1="22" y1="2" x2="22" y2="14" gradientUnits="userSpaceOnUse">
<stop stop-color="white"/>
<stop offset="1" stop-color="white" stop-opacity="0"/>
</linearGradient>
</defs>
</svg>
