<svg width="18" height="16" viewBox="0 0 18 16" fill="none" xmlns="http://www.w3.org/2000/svg">
<path d="M0 7.52585C0 7.83502 0.241307 8.12911 0.648513 8.12911C0.859656 8.12911 1.0331 8.016 1.19145 7.88781L2.17176 7.05831V14.2523C2.17176 15.308 2.79765 15.9188 3.87599 15.9188H14.0788C15.1496 15.9188 15.7755 15.308 15.7755 14.2523V7.00553L16.8236 7.88781C16.9744 8.016 17.1479 8.12911 17.359 8.12911C17.7134 8.12911 18 7.91043 18 7.54847C18 7.32224 17.9246 7.17143 17.7662 7.03569L15.7755 5.36162V2.23971C15.7755 1.90792 15.5643 1.69677 15.2325 1.69677H14.4256C14.1014 1.69677 13.8827 1.90792 13.8827 2.23971V3.77051L9.91621 0.437451C9.35819 -0.0376221 8.66443 -0.0376221 8.09887 0.437451L0.241307 7.03569C0.0754085 7.17143 0 7.35241 0 7.52585ZM11.1831 9.65237C11.1831 9.30549 10.9569 9.07926 10.61 9.07926H7.41265C7.05823 9.07926 6.83201 9.30549 6.83201 9.65237V14.7047H4.13238C3.64977 14.7047 3.38584 14.4333 3.38584 13.9431V6.0403L8.73984 1.5535C8.90574 1.40268 9.10934 1.40268 9.27524 1.5535L14.5614 5.98751V13.9431C14.5614 14.4333 14.2974 14.7047 13.8224 14.7047H11.1831V9.65237Z" fill="#11171C"/>
</svg>
