<svg width="24" height="6" viewBox="0 0 24 6" fill="none" xmlns="http://www.w3.org/2000/svg">
<path d="M5.12831 3.00003C5.12831 1.58751 3.98303 0.454956 2.54507 0.454956C1.14528 0.454956 0 1.58751 0 3.00003C0 4.41254 1.14528 5.54509 2.54507 5.54509C3.98303 5.54509 5.12831 4.41254 5.12831 3.00003ZM14.5451 3.00003C14.5451 1.58751 13.4125 0.454956 12 0.454956C10.6002 0.454956 9.46766 1.58751 9.46766 3.00003C9.46766 4.41254 10.6002 5.54509 12 5.54509C13.4125 5.54509 14.5451 4.41254 14.5451 3.00003ZM24 3.00003C24 1.58751 22.8674 0.454956 21.4549 0.454956C20.017 0.454956 18.8844 1.58751 18.8844 3.00003C18.8844 4.41254 20.017 5.54509 21.4549 5.54509C22.8674 5.54509 24 4.41254 24 3.00003Z" fill="#11171C"/>
</svg>
