<svg width="18" height="18" viewBox="0 0 18 18" fill="none" xmlns="http://www.w3.org/2000/svg">
<path d="M9 18C13.9235 18 18 13.9147 18 9C18 4.07647 13.9147 0 8.99118 0C4.07647 0 0 4.07647 0 9C0 13.9147 4.08529 18 9 18ZM9 16.5C4.83529 16.5 1.50882 13.1647 1.50882 9C1.50882 4.83529 4.82647 1.5 8.99118 1.5C13.1559 1.5 16.4912 4.83529 16.5 9C16.5088 13.1647 13.1647 16.5 9 16.5ZM6.44118 8.19706C6.96176 8.19706 7.39412 7.73824 7.39412 7.09412C7.39412 6.45 6.96176 5.99118 6.44118 5.99118C5.92059 5.99118 5.49706 6.45 5.49706 7.09412C5.49706 7.73824 5.92059 8.19706 6.44118 8.19706ZM11.5941 8.19706C12.1147 8.19706 12.5471 7.73824 12.5471 7.09412C12.5471 6.45 12.1147 5.99118 11.5941 5.99118C11.0824 5.99118 10.65 6.45 10.65 7.09412C10.65 7.73824 11.0824 8.19706 11.5941 8.19706ZM5.91176 11.6118C5.91176 12.1941 7.14706 13.4206 8.99118 13.4206C10.8353 13.4206 12.0706 12.1941 12.0706 11.6118C12.0706 11.4 11.8676 11.3029 11.6824 11.3912C11.0382 11.7441 10.2706 12.1412 8.99118 12.1412C7.71176 12.1412 6.94412 11.7353 6.30882 11.3912C6.11471 11.3029 5.91176 11.4 5.91176 11.6118Z" fill="#11171C"/>
</svg>
