<svg width="6" height="10" viewBox="0 0 6 10" fill="none" xmlns="http://www.w3.org/2000/svg">
<path d="M0.183105 5C0.183105 5.14401 0.234949 5.27074 0.344396 5.38018L4.91237 9.84447C5.01029 9.94816 5.13702 10 5.28679 10C5.58633 10 5.81675 9.77535 5.81675 9.47581C5.81675 9.32604 5.75338 9.19931 5.66122 9.10138L1.46767 5L5.66122 0.898618C5.75338 0.800691 5.81675 0.668203 5.81675 0.524194C5.81675 0.224654 5.58633 0 5.28679 0C5.13702 0 5.01029 0.0518433 4.91237 0.14977L0.344396 4.61982C0.234949 4.7235 0.183105 4.85599 0.183105 5Z" fill="white"/>
<defs>
<linearGradient id="paint0_linear" x1="2.99993" y1="0" x2="2.99993" y2="10" gradientUnits="userSpaceOnUse">
<stop stop-color="white"/>
<stop offset="1" stop-color="white" stop-opacity="0"/>
</linearGradient>
</defs>
</svg>
