<svg width="6" height="10" viewBox="0 0 6 10" fill="none" xmlns="http://www.w3.org/2000/svg">
<path d="M5.81675 5C5.81675 4.85599 5.75914 4.7235 5.64969 4.61982L1.08748 0.14977C0.983797 0.0518433 0.857069 0 0.707299 0C0.41352 0 0.183105 0.224654 0.183105 0.524194C0.183105 0.668203 0.240709 0.800691 0.332875 0.898618L4.52642 5L0.332875 9.10138C0.240709 9.19931 0.183105 9.32604 0.183105 9.47581C0.183105 9.77535 0.41352 10 0.707299 10C0.857069 10 0.983797 9.94816 1.08748 9.84447L5.64969 5.38018C5.75914 5.27074 5.81675 5.14401 5.81675 5Z" fill="white"/>
<defs>
<linearGradient id="paint0_linear" x1="2.99993" y1="0" x2="2.99993" y2="10" gradientUnits="userSpaceOnUse">
<stop stop-color="white"/>
<stop offset="1" stop-color="white" stop-opacity="0"/>
</linearGradient>
</defs>
</svg>
