<svg width="18" height="18" viewBox="0 0 18 18" fill="none" xmlns="http://www.w3.org/2000/svg">
<path d="M17.3844 13.8861L15.8248 10.0163C15.7729 9.88777 15.7463 9.75032 15.7463 9.61178V6.74635C15.7461 3.02047 12.7259 0 8.99999 0C5.27411 0 2.25364 3.02047 2.25364 6.74635V9.61178C2.25364 9.75032 2.22712 9.88777 2.17517 10.0163L0.615555 13.8861C0.329012 14.5975 0.852582 15.3729 1.6194 15.3729H6.37294C6.37294 16.8216 7.55158 18 8.99999 18C10.4484 18 11.627 16.8216 11.627 15.3729H16.3806C17.1474 15.3729 17.671 14.5975 17.3844 13.8861ZM8.99999 16.3765C8.44665 16.3765 7.99641 15.9263 7.99641 15.3729H10.0038C10.0036 15.9263 9.55332 16.3765 8.99999 16.3765ZM2.42086 13.7495L3.68094 10.6229C3.81109 10.2999 3.87711 9.95974 3.87711 9.61151V6.74608C3.87711 5.37776 4.40988 4.09116 5.37748 3.12384C6.34507 2.15624 7.63167 1.62347 8.99999 1.62347C10.3683 1.62347 11.6549 2.15624 12.6222 3.12384C13.5898 4.09143 14.1226 5.37776 14.1226 6.74608V9.61151C14.1226 9.95974 14.1886 10.2999 14.3188 10.6229L15.5788 13.7495H2.42086Z" fill="#11171C"/>
</svg>
