<svg width="18" height="18" viewBox="0 0 18 18" fill="none" xmlns="http://www.w3.org/2000/svg">
<path d="M0.861833 10.2635H4.74047C5.13446 10.2635 5.37085 10.0884 5.45841 9.7382L6.77172 3.70574L9.07438 17.5305C9.17945 18.1609 10.1513 18.1521 10.2739 17.5305L12.4977 7.0678L13.0231 9.66815C13.1019 10.0709 13.3295 10.2635 13.741 10.2635H17.1381C17.4883 10.2635 17.7685 9.9921 17.7685 9.65064C17.7685 9.30043 17.4971 9.02901 17.1381 9.02901H14.0387L13.0318 4.57252C12.9005 3.9684 11.9987 3.9684 11.8498 4.59879L9.65224 14.4136L7.34957 0.466247C7.25326 -0.14663 6.36021 -0.16414 6.22013 0.466247L4.36399 9.02901H0.861833C0.502862 9.02901 0.231445 9.30918 0.231445 9.65064C0.231445 9.9921 0.502862 10.2635 0.861833 10.2635Z" fill="#11171C"/>
</svg>
