<svg width="18" height="16" viewBox="0 0 18 16" fill="none" xmlns="http://www.w3.org/2000/svg">
<path d="M0 7.39862C0 7.90113 0.403661 8.30479 0.906179 8.30479C1.4087 8.30479 1.81236 7.90113 1.81236 7.39862V6.85491C1.81236 5.54507 2.71854 4.68008 4.06957 4.68008H10.281V6.40182C10.281 6.84667 10.5693 7.12676 11.0224 7.12676C11.2201 7.12676 11.4261 7.05262 11.5826 6.92081L14.6966 4.35056C15.0673 4.05399 15.059 3.55971 14.6966 3.24667L11.5826 0.659943C11.4261 0.536373 11.2201 0.453993 11.0224 0.453993C10.5693 0.453993 10.281 0.742322 10.281 1.18717V2.89244H4.24256C1.6476 2.89244 0 4.38351 0 6.7231V7.39862ZM7.71899 9.6064C7.71899 9.16154 7.4389 8.88145 6.97757 8.88145C6.77986 8.88145 6.57391 8.9556 6.42563 9.07916L3.31167 11.6494C2.94096 11.9542 2.93272 12.4403 3.31167 12.7533L6.42563 15.34C6.57391 15.4718 6.77986 15.546 6.97757 15.546C7.4389 15.546 7.71899 15.2659 7.71899 14.821V13.0993H13.7574C16.3524 13.0993 18 11.6 18 9.26864V8.59312C18 8.08237 17.5963 7.67871 17.0938 7.67871C16.5913 7.67871 16.1876 8.08237 16.1876 8.59312V9.13683C16.1876 10.4384 15.2815 11.3117 13.9304 11.3117H7.71899V9.6064Z" fill="#11171C"/>
</svg>
