<svg width="22" height="24" viewBox="0 0 22 24" fill="none" xmlns="http://www.w3.org/2000/svg">
<path d="M1.11648 19.3732H2.39417C2.68983 19.3732 2.81654 19.3204 3.04885 19.1304L3.75632 18.5918L3.77744 18.6129C4.16814 19.0036 4.69611 19.0776 5.23463 18.8452L8.74034 17.3986C9.00432 17.293 9.13104 17.198 9.28943 17.0396L19.3947 7.00821C20.3873 6.02619 20.3768 4.87522 19.3736 3.86152L17.1561 1.62294C16.1424 0.619797 14.9915 0.598678 13.9989 1.5807L3.88303 11.6121C3.72464 11.7599 3.62961 11.8761 3.52402 12.1401L2.04571 15.6458C1.82396 16.1632 1.87676 16.6806 2.26745 17.0818L0.810261 18.6235C0.493481 18.9508 0.651871 19.3732 1.11648 19.3732ZM15.0654 2.76335C15.3716 2.47824 15.7306 2.45713 16.0157 2.74223L18.2438 4.99137C18.5289 5.28703 18.5077 5.64605 18.2121 5.94171L17.4201 6.72311L14.2734 3.5553L15.0654 2.76335ZM5.51973 12.2457L13.2809 4.53732L16.4276 7.70513L8.66642 15.4135L5.51973 12.2457ZM5.07624 17.2085C4.86505 17.2825 4.70666 17.2825 4.5166 17.0924L3.79856 16.3744C3.60849 16.1843 3.60849 16.0153 3.69297 15.8253L4.71722 13.4283L7.47322 16.2054L5.07624 17.2085ZM0.905296 23.1429H21.0842C21.5488 23.1429 21.9395 22.7522 21.9395 22.2876C21.9395 21.823 21.5488 21.4429 21.0842 21.4429H0.905296C0.440684 21.4429 0.0605469 21.823 0.0605469 22.2876C0.0605469 22.7522 0.440684 23.1429 0.905296 23.1429Z" fill="white"/>
<defs>
<linearGradient id="paint0_linear" x1="11" y1="0.857193" x2="11" y2="23.1429" gradientUnits="userSpaceOnUse">
<stop offset="1" stop-color="white" stop-opacity="0"/>
</linearGradient>
</defs>
</svg>
